<?xml version="1.0"?>
<svg xmlns="http://www.w3.org/2000/svg" xmlns:xlink="http://www.w3.org/1999/xlink" viewBox="0 0 356.600000 152.000000" width="178.300000mm" height="76.000000mm" version="1.1">
<a xlink:href="process.svg">
<rect x="1.000000" y="1.000000" width="355.600000" height="151.000000" rx="0" ry="0" style="stroke:none;fill:#cccccc;"/>
<rect x="0.000000" y="0.000000" width="355.600000" height="151.000000" rx="0" ry="0" style="stroke:none;fill:#ffffff;"/>
</a>
<text x="10.000000" y="7.000000" font-family="Arial" font-size="7"></text>
<a xlink:href="crossover2LR4-0x7fc5e99784f0.svg">
<rect x="33.000000" y="65.000000" width="129.000000" height="24.000000" rx="0" ry="0" style="stroke:none;fill:#cccccc;"/>
<rect x="32.000000" y="64.000000" width="129.000000" height="24.000000" rx="0" ry="0" style="stroke:none;fill:#003366;"/>
</a>
<a xlink:href="crossover2LR4-0x7fc5e99784f0.svg">
<text x="96.500000" y="78.000000" font-family="Arial" font-size="7" text-anchor="middle" fill="#FFFFFF">crossover2LR4...03f, 1.0f))))</text>
</a>
<circle cx="34.000000" cy="66.000000" r="1"/>
<line x1="29.000000" y1="75.000000" x2="32.000000" y2="76.000000"  transform="rotate(0.000000,32.000000,76.000000)" style="stroke: black; stroke-width:0.25;"/>
<line x1="29.000000" y1="77.000000" x2="32.000000" y2="76.000000"  transform="rotate(0.000000,32.000000,76.000000)" style="stroke: black; stroke-width:0.25;"/>
<a xlink:href="LOW-0x7fc5e9661f30.svg">
<rect x="218.900000" y="33.000000" width="25.800000" height="24.000000" rx="0" ry="0" style="stroke:none;fill:#cccccc;"/>
<rect x="217.900000" y="32.000000" width="25.800000" height="24.000000" rx="0" ry="0" style="stroke:none;fill:#003366;"/>
</a>
<a xlink:href="LOW-0x7fc5e9661f30.svg">
<text x="230.800000" y="46.000000" font-family="Arial" font-size="7" text-anchor="middle" fill="#FFFFFF">LOW_G</text>
</a>
<circle cx="219.900000" cy="34.000000" r="1"/>
<rect x="260.700000" y="29.000000" width="24.000000" height="24.000000" rx="0" ry="0" style="stroke:none;fill:#cccccc;"/>
<rect x="259.700000" y="28.000000" width="24.000000" height="24.000000" rx="0" ry="0" style="stroke:none;fill:#4B71A1;"/>
<text x="271.700000" y="42.000000" font-family="Arial" font-size="7" text-anchor="middle" fill="#FFFFFF">*</text>
<circle cx="261.700000" cy="30.000000" r="1"/>
<line x1="256.700000" y1="35.000000" x2="259.700000" y2="36.000000"  transform="rotate(0.000000,259.700000,36.000000)" style="stroke: black; stroke-width:0.25;"/>
<line x1="256.700000" y1="37.000000" x2="259.700000" y2="36.000000"  transform="rotate(0.000000,259.700000,36.000000)" style="stroke: black; stroke-width:0.25;"/>
<line x1="256.700000" y1="43.000000" x2="259.700000" y2="44.000000"  transform="rotate(0.000000,259.700000,44.000000)" style="stroke: black; stroke-width:0.25;"/>
<line x1="256.700000" y1="45.000000" x2="259.700000" y2="44.000000"  transform="rotate(0.000000,259.700000,44.000000)" style="stroke: black; stroke-width:0.25;"/>
<a xlink:href="HIGH-0x7fc5e9659a10.svg">
<rect x="186.000000" y="73.000000" width="51.600000" height="24.000000" rx="0" ry="0" style="stroke:none;fill:#cccccc;"/>
<rect x="185.000000" y="72.000000" width="51.600000" height="24.000000" rx="0" ry="0" style="stroke:none;fill:#003366;"/>
</a>
<a xlink:href="HIGH-0x7fc5e9659a10.svg">
<text x="210.800000" y="86.000000" font-family="Arial" font-size="7" text-anchor="middle" fill="#FFFFFF">HIGH_DELAY</text>
</a>
<circle cx="187.000000" cy="74.000000" r="1"/>
<rect x="253.600000" y="69.000000" width="24.000000" height="24.000000" rx="0" ry="0" style="stroke:none;fill:#cccccc;"/>
<rect x="252.600000" y="68.000000" width="24.000000" height="24.000000" rx="0" ry="0" style="stroke:none;fill:#4B71A1;"/>
<text x="264.600000" y="82.000000" font-family="Arial" font-size="7" text-anchor="middle" fill="#FFFFFF">@</text>
<circle cx="254.600000" cy="70.000000" r="1"/>
<line x1="249.600000" y1="75.000000" x2="252.600000" y2="76.000000"  transform="rotate(0.000000,252.600000,76.000000)" style="stroke: black; stroke-width:0.25;"/>
<line x1="249.600000" y1="77.000000" x2="252.600000" y2="76.000000"  transform="rotate(0.000000,252.600000,76.000000)" style="stroke: black; stroke-width:0.25;"/>
<line x1="249.600000" y1="83.000000" x2="252.600000" y2="84.000000"  transform="rotate(0.000000,252.600000,84.000000)" style="stroke: black; stroke-width:0.25;"/>
<line x1="249.600000" y1="85.000000" x2="252.600000" y2="84.000000"  transform="rotate(0.000000,252.600000,84.000000)" style="stroke: black; stroke-width:0.25;"/>
<a xlink:href="HIGH-0x7fc5e9646fb0.svg">
<rect x="218.900000" y="105.000000" width="25.800000" height="24.000000" rx="0" ry="0" style="stroke:none;fill:#cccccc;"/>
<rect x="217.900000" y="104.000000" width="25.800000" height="24.000000" rx="0" ry="0" style="stroke:none;fill:#003366;"/>
</a>
<a xlink:href="HIGH-0x7fc5e9646fb0.svg">
<text x="230.800000" y="118.000000" font-family="Arial" font-size="7" text-anchor="middle" fill="#FFFFFF">HIGH_G</text>
</a>
<circle cx="219.900000" cy="106.000000" r="1"/>
<rect x="293.600000" y="85.000000" width="24.000000" height="24.000000" rx="0" ry="0" style="stroke:none;fill:#cccccc;"/>
<rect x="292.600000" y="84.000000" width="24.000000" height="24.000000" rx="0" ry="0" style="stroke:none;fill:#4B71A1;"/>
<text x="304.600000" y="98.000000" font-family="Arial" font-size="7" text-anchor="middle" fill="#FFFFFF">*</text>
<circle cx="294.600000" cy="86.000000" r="1"/>
<line x1="289.600000" y1="91.000000" x2="292.600000" y2="92.000000"  transform="rotate(0.000000,292.600000,92.000000)" style="stroke: black; stroke-width:0.25;"/>
<line x1="289.600000" y1="93.000000" x2="292.600000" y2="92.000000"  transform="rotate(0.000000,292.600000,92.000000)" style="stroke: black; stroke-width:0.25;"/>
<line x1="289.600000" y1="99.000000" x2="292.600000" y2="100.000000"  transform="rotate(0.000000,292.600000,100.000000)" style="stroke: black; stroke-width:0.25;"/>
<line x1="289.600000" y1="101.000000" x2="292.600000" y2="100.000000"  transform="rotate(0.000000,292.600000,100.000000)" style="stroke: black; stroke-width:0.25;"/>
<line x1="15.000000" y1="15.000000" x2="15.000000" y2="137.000000"  style="stroke: black; stroke-linecap:round; stroke-width:0.25; stroke-dasharray:3,3;"/>
<line x1="15.000000" y1="137.000000" x2="341.600000" y2="137.000000"  style="stroke: black; stroke-linecap:round; stroke-width:0.25; stroke-dasharray:3,3;"/>
<line x1="341.600000" y1="137.000000" x2="341.600000" y2="15.000000"  style="stroke: black; stroke-linecap:round; stroke-width:0.25; stroke-dasharray:3,3;"/>
<line x1="15.000000" y1="15.000000" x2="20.000000" y2="15.000000"  style="stroke: black; stroke-linecap:round; stroke-width:0.25; stroke-dasharray:3,3;"/>
<line x1="68.375000" y1="15.000000" x2="341.600000" y2="15.000000"  style="stroke: black; stroke-linecap:round; stroke-width:0.25; stroke-dasharray:3,3;"/>
<text x="20.000000" y="17.000000" font-family="Arial" font-size="7">band_split(9)</text>
<line x1="343.600000" y1="71.000000" x2="346.600000" y2="72.000000"  transform="rotate(0.000000,346.600000,72.000000)" style="stroke: black; stroke-width:0.25;"/>
<line x1="343.600000" y1="73.000000" x2="346.600000" y2="72.000000"  transform="rotate(0.000000,346.600000,72.000000)" style="stroke: black; stroke-width:0.25;"/>
<line x1="343.600000" y1="79.000000" x2="346.600000" y2="80.000000"  transform="rotate(0.000000,346.600000,80.000000)" style="stroke: black; stroke-width:0.25;"/>
<line x1="343.600000" y1="81.000000" x2="346.600000" y2="80.000000"  transform="rotate(0.000000,346.600000,80.000000)" style="stroke: black; stroke-width:0.25;"/>
<line x1="10.000000" y1="76.000000" x2="20.000000" y2="76.000000"  style="stroke:black; stroke-linecap:round; stroke-width:0.25;"/>
<line x1="20.000000" y1="76.000000" x2="24.000000" y2="76.000000"  style="stroke:black; stroke-linecap:round; stroke-width:0.25;"/>
<line x1="24.000000" y1="76.000000" x2="28.000000" y2="76.000000"  style="stroke:black; stroke-linecap:round; stroke-width:0.25;"/>
<line x1="28.000000" y1="76.000000" x2="28.000000" y2="76.000000"  style="stroke:black; stroke-linecap:round; stroke-width:0.25;"/>
<line x1="28.000000" y1="76.000000" x2="32.000000" y2="76.000000"  style="stroke:black; stroke-linecap:round; stroke-width:0.25;"/>
<line x1="161.000000" y1="72.000000" x2="165.000000" y2="72.000000"  style="stroke:black; stroke-linecap:round; stroke-width:0.25;"/>
<line x1="161.000000" y1="80.000000" x2="165.000000" y2="80.000000"  style="stroke:black; stroke-linecap:round; stroke-width:0.25;"/>
<line x1="165.000000" y1="24.000000" x2="181.000000" y2="24.000000"  style="stroke:black; stroke-linecap:round; stroke-width:0.25;"/>
<line x1="165.000000" y1="72.000000" x2="165.000000" y2="24.000000"  style="stroke:black; stroke-linecap:round; stroke-width:0.25;"/>
<line x1="165.000000" y1="72.000000" x2="165.000000" y2="72.000000"  style="stroke:black; stroke-linecap:round; stroke-width:0.25;"/>
<line x1="165.000000" y1="80.000000" x2="165.000000" y2="80.000000"  style="stroke:black; stroke-linecap:round; stroke-width:0.25;"/>
<line x1="165.000000" y1="80.000000" x2="173.000000" y2="80.000000"  style="stroke:black; stroke-linecap:round; stroke-width:0.25;"/>
<line x1="173.000000" y1="64.000000" x2="181.000000" y2="64.000000"  style="stroke:black; stroke-linecap:round; stroke-width:0.25;"/>
<line x1="173.000000" y1="80.000000" x2="173.000000" y2="64.000000"  style="stroke:black; stroke-linecap:round; stroke-width:0.25;"/>
<line x1="181.000000" y1="24.000000" x2="213.900000" y2="24.000000"  style="stroke:black; stroke-linecap:round; stroke-width:0.25;"/>
<line x1="181.000000" y1="64.000000" x2="210.800000" y2="64.000000"  style="stroke:black; stroke-linecap:round; stroke-width:0.25;"/>
<line x1="210.800000" y1="64.000000" x2="240.600000" y2="64.000000"  style="stroke:black; stroke-linecap:round; stroke-width:0.25;"/>
<line x1="213.900000" y1="24.000000" x2="230.800000" y2="24.000000"  style="stroke:black; stroke-linecap:round; stroke-width:0.25;"/>
<line x1="230.800000" y1="24.000000" x2="247.700000" y2="24.000000"  style="stroke:black; stroke-linecap:round; stroke-width:0.25;"/>
<line x1="236.600000" y1="84.000000" x2="240.600000" y2="84.000000"  style="stroke:black; stroke-linecap:round; stroke-width:0.25;"/>
<line x1="240.600000" y1="84.000000" x2="248.600000" y2="84.000000"  style="stroke:black; stroke-linecap:round; stroke-width:0.25;"/>
<line x1="240.600000" y1="64.000000" x2="248.600000" y2="64.000000"  style="stroke:black; stroke-linecap:round; stroke-width:0.25;"/>
<line x1="243.700000" y1="44.000000" x2="247.700000" y2="44.000000"  style="stroke:black; stroke-linecap:round; stroke-width:0.25;"/>
<line x1="243.700000" y1="116.000000" x2="247.700000" y2="116.000000"  style="stroke:black; stroke-linecap:round; stroke-width:0.25;"/>
<line x1="247.700000" y1="44.000000" x2="255.700000" y2="44.000000"  style="stroke:black; stroke-linecap:round; stroke-width:0.25;"/>
<line x1="247.700000" y1="116.000000" x2="280.600000" y2="116.000000"  style="stroke:black; stroke-linecap:round; stroke-width:0.25;"/>
<line x1="247.700000" y1="24.000000" x2="255.700000" y2="24.000000"  style="stroke:black; stroke-linecap:round; stroke-width:0.25;"/>
<line x1="248.600000" y1="76.000000" x2="252.600000" y2="76.000000"  style="stroke:black; stroke-linecap:round; stroke-width:0.25;"/>
<line x1="248.600000" y1="84.000000" x2="252.600000" y2="84.000000"  style="stroke:black; stroke-linecap:round; stroke-width:0.25;"/>
<line x1="248.600000" y1="64.000000" x2="248.600000" y2="76.000000"  style="stroke:black; stroke-linecap:round; stroke-width:0.25;"/>
<line x1="248.600000" y1="76.000000" x2="248.600000" y2="76.000000"  style="stroke:black; stroke-linecap:round; stroke-width:0.25;"/>
<line x1="255.700000" y1="36.000000" x2="259.700000" y2="36.000000"  style="stroke:black; stroke-linecap:round; stroke-width:0.25;"/>
<line x1="255.700000" y1="44.000000" x2="259.700000" y2="44.000000"  style="stroke:black; stroke-linecap:round; stroke-width:0.25;"/>
<line x1="255.700000" y1="24.000000" x2="255.700000" y2="36.000000"  style="stroke:black; stroke-linecap:round; stroke-width:0.25;"/>
<line x1="255.700000" y1="36.000000" x2="255.700000" y2="36.000000"  style="stroke:black; stroke-linecap:round; stroke-width:0.25;"/>
<line x1="276.600000" y1="80.000000" x2="280.600000" y2="80.000000"  style="stroke:black; stroke-linecap:round; stroke-width:0.25;"/>
<line x1="280.600000" y1="100.000000" x2="288.600000" y2="100.000000"  style="stroke:black; stroke-linecap:round; stroke-width:0.25;"/>
<line x1="280.600000" y1="116.000000" x2="280.600000" y2="100.000000"  style="stroke:black; stroke-linecap:round; stroke-width:0.25;"/>
<line x1="280.600000" y1="116.000000" x2="280.600000" y2="116.000000"  style="stroke:black; stroke-linecap:round; stroke-width:0.25;"/>
<line x1="280.600000" y1="80.000000" x2="288.600000" y2="80.000000"  style="stroke:black; stroke-linecap:round; stroke-width:0.25;"/>
<line x1="283.700000" y1="40.000000" x2="287.700000" y2="40.000000"  style="stroke:black; stroke-linecap:round; stroke-width:0.25;"/>
<line x1="287.700000" y1="40.000000" x2="320.600000" y2="40.000000"  style="stroke:black; stroke-linecap:round; stroke-width:0.25;"/>
<line x1="288.600000" y1="80.000000" x2="288.600000" y2="92.000000"  style="stroke:black; stroke-linecap:round; stroke-width:0.25;"/>
<line x1="288.600000" y1="92.000000" x2="288.600000" y2="92.000000"  style="stroke:black; stroke-linecap:round; stroke-width:0.25;"/>
<line x1="288.600000" y1="92.000000" x2="292.600000" y2="92.000000"  style="stroke:black; stroke-linecap:round; stroke-width:0.25;"/>
<line x1="288.600000" y1="100.000000" x2="292.600000" y2="100.000000"  style="stroke:black; stroke-linecap:round; stroke-width:0.25;"/>
<line x1="316.600000" y1="96.000000" x2="320.600000" y2="96.000000"  style="stroke:black; stroke-linecap:round; stroke-width:0.25;"/>
<line x1="320.600000" y1="40.000000" x2="328.600000" y2="40.000000"  style="stroke:black; stroke-linecap:round; stroke-width:0.25;"/>
<line x1="320.600000" y1="80.000000" x2="328.600000" y2="80.000000"  style="stroke:black; stroke-linecap:round; stroke-width:0.25;"/>
<line x1="320.600000" y1="96.000000" x2="320.600000" y2="80.000000"  style="stroke:black; stroke-linecap:round; stroke-width:0.25;"/>
<line x1="320.600000" y1="96.000000" x2="320.600000" y2="96.000000"  style="stroke:black; stroke-linecap:round; stroke-width:0.25;"/>
<line x1="328.600000" y1="40.000000" x2="328.600000" y2="72.000000"  style="stroke:black; stroke-linecap:round; stroke-width:0.25;"/>
<line x1="328.600000" y1="72.000000" x2="328.600000" y2="72.000000"  style="stroke:black; stroke-linecap:round; stroke-width:0.25;"/>
<line x1="328.600000" y1="72.000000" x2="332.600000" y2="72.000000"  style="stroke:black; stroke-linecap:round; stroke-width:0.25;"/>
<line x1="328.600000" y1="80.000000" x2="332.600000" y2="80.000000"  style="stroke:black; stroke-linecap:round; stroke-width:0.25;"/>
<line x1="332.600000" y1="72.000000" x2="336.600000" y2="72.000000"  style="stroke:black; stroke-linecap:round; stroke-width:0.25;"/>
<line x1="332.600000" y1="80.000000" x2="336.600000" y2="80.000000"  style="stroke:black; stroke-linecap:round; stroke-width:0.25;"/>
<line x1="336.600000" y1="72.000000" x2="346.600000" y2="72.000000"  style="stroke:black; stroke-linecap:round; stroke-width:0.25;"/>
<line x1="336.600000" y1="80.000000" x2="346.600000" y2="80.000000"  style="stroke:black; stroke-linecap:round; stroke-width:0.25;"/>
</svg>
