<?xml version="1.0"?>
<svg xmlns="http://www.w3.org/2000/svg" xmlns:xlink="http://www.w3.org/1999/xlink" viewBox="0 0 355.300000 156.000000" width="177.650000mm" height="78.000000mm" version="1.1">
<a xlink:href="LOW-0x7fc5e9661f30.svg">
<rect x="1.000000" y="1.000000" width="354.300000" height="155.000000" rx="0" ry="0" style="stroke:none;fill:#cccccc;"/>
<rect x="0.000000" y="0.000000" width="354.300000" height="155.000000" rx="0" ry="0" style="stroke:none;fill:#ffffff;"/>
</a>
<text x="10.000000" y="7.000000" font-family="Arial" font-size="7"></text>
<rect x="142.650000" y="25.000000" width="24.000000" height="24.000000" rx="0" ry="0" style="stroke:none;fill:#cccccc;"/>
<rect x="141.650000" y="24.000000" width="24.000000" height="24.000000" rx="0" ry="0" style="stroke:none;fill:#f44800;"/>
<text x="153.650000" y="38.000000" font-family="Arial" font-size="7" text-anchor="middle" fill="#FFFFFF">10</text>
<circle cx="143.650000" cy="26.000000" r="1"/>
<rect x="25.000000" y="57.000000" width="219.300000" height="24.000000" rx="0" ry="0" style="stroke:none;fill:#cccccc;"/>
<rect x="24.000000" y="56.000000" width="219.300000" height="24.000000" rx="0" ry="0" style="stroke:none;fill:#477881;"/>
<text x="133.650000" y="70.000000" font-family="Arial" font-size="7" text-anchor="middle" fill="#FFFFFF">hslider(Low Boost|Cut, 0.0f, -4e+01f, 4e+01f, 0.1f)</text>
<circle cx="26.000000" cy="58.000000" r="1"/>
<rect x="122.650000" y="99.000000" width="24.000000" height="24.000000" rx="0" ry="0" style="stroke:none;fill:#cccccc;"/>
<rect x="121.650000" y="98.000000" width="24.000000" height="24.000000" rx="0" ry="0" style="stroke:none;fill:#f44800;"/>
<text x="133.650000" y="112.000000" font-family="Arial" font-size="7" text-anchor="middle" fill="#FFFFFF">20</text>
<circle cx="123.650000" cy="100.000000" r="1"/>
<line x1="112.650000" y1="89.000000" x2="112.650000" y2="131.000000"  style="stroke: black; stroke-linecap:round; stroke-width:0.25; stroke-dasharray:3,3;"/>
<line x1="112.650000" y1="131.000000" x2="154.650000" y2="131.000000"  style="stroke: black; stroke-linecap:round; stroke-width:0.25; stroke-dasharray:3,3;"/>
<line x1="154.650000" y1="131.000000" x2="154.650000" y2="89.000000"  style="stroke: black; stroke-linecap:round; stroke-width:0.25; stroke-dasharray:3,3;"/>
<line x1="112.650000" y1="89.000000" x2="117.650000" y2="89.000000"  style="stroke: black; stroke-linecap:round; stroke-width:0.25; stroke-dasharray:3,3;"/>
<line x1="140.225000" y1="89.000000" x2="154.650000" y2="89.000000"  style="stroke: black; stroke-linecap:round; stroke-width:0.25; stroke-dasharray:3,3;"/>
<text x="117.650000" y="91.000000" font-family="Arial" font-size="7">maxGR</text>
<rect x="260.300000" y="83.000000" width="24.000000" height="24.000000" rx="0" ry="0" style="stroke:none;fill:#cccccc;"/>
<rect x="259.300000" y="82.000000" width="24.000000" height="24.000000" rx="0" ry="0" style="stroke:none;fill:#4B71A1;"/>
<text x="271.300000" y="96.000000" font-family="Arial" font-size="7" text-anchor="middle" fill="#FFFFFF">/</text>
<circle cx="261.300000" cy="84.000000" r="1"/>
<line x1="256.300000" y1="89.000000" x2="259.300000" y2="90.000000"  transform="rotate(0.000000,259.300000,90.000000)" style="stroke: black; stroke-width:0.25;"/>
<line x1="256.300000" y1="91.000000" x2="259.300000" y2="90.000000"  transform="rotate(0.000000,259.300000,90.000000)" style="stroke: black; stroke-width:0.25;"/>
<line x1="256.300000" y1="97.000000" x2="259.300000" y2="98.000000"  transform="rotate(0.000000,259.300000,98.000000)" style="stroke: black; stroke-width:0.25;"/>
<line x1="256.300000" y1="99.000000" x2="259.300000" y2="98.000000"  transform="rotate(0.000000,259.300000,98.000000)" style="stroke: black; stroke-width:0.25;"/>
<rect x="300.300000" y="67.000000" width="24.000000" height="24.000000" rx="0" ry="0" style="stroke:none;fill:#cccccc;"/>
<rect x="299.300000" y="66.000000" width="24.000000" height="24.000000" rx="0" ry="0" style="stroke:none;fill:#4B71A1;"/>
<text x="311.300000" y="80.000000" font-family="Arial" font-size="7" text-anchor="middle" fill="#FFFFFF">pow</text>
<circle cx="301.300000" cy="68.000000" r="1"/>
<line x1="296.300000" y1="73.000000" x2="299.300000" y2="74.000000"  transform="rotate(0.000000,299.300000,74.000000)" style="stroke: black; stroke-width:0.25;"/>
<line x1="296.300000" y1="75.000000" x2="299.300000" y2="74.000000"  transform="rotate(0.000000,299.300000,74.000000)" style="stroke: black; stroke-width:0.25;"/>
<line x1="296.300000" y1="81.000000" x2="299.300000" y2="82.000000"  transform="rotate(0.000000,299.300000,82.000000)" style="stroke: black; stroke-width:0.25;"/>
<line x1="296.300000" y1="83.000000" x2="299.300000" y2="82.000000"  transform="rotate(0.000000,299.300000,82.000000)" style="stroke: black; stroke-width:0.25;"/>
<line x1="15.000000" y1="15.000000" x2="15.000000" y2="141.000000"  style="stroke: black; stroke-linecap:round; stroke-width:0.25; stroke-dasharray:3,3;"/>
<line x1="15.000000" y1="141.000000" x2="340.300000" y2="141.000000"  style="stroke: black; stroke-linecap:round; stroke-width:0.25; stroke-dasharray:3,3;"/>
<line x1="340.300000" y1="141.000000" x2="340.300000" y2="15.000000"  style="stroke: black; stroke-linecap:round; stroke-width:0.25; stroke-dasharray:3,3;"/>
<line x1="15.000000" y1="15.000000" x2="20.000000" y2="15.000000"  style="stroke: black; stroke-linecap:round; stroke-width:0.25; stroke-dasharray:3,3;"/>
<line x1="119.975000" y1="15.000000" x2="340.300000" y2="15.000000"  style="stroke: black; stroke-linecap:round; stroke-width:0.25; stroke-dasharray:3,3;"/>
<text x="20.000000" y="17.000000" font-family="Arial" font-size="7">db2linear(hsl...e+01f, 0.1f))</text>
<line x1="342.300000" y1="77.000000" x2="345.300000" y2="78.000000"  transform="rotate(0.000000,345.300000,78.000000)" style="stroke: black; stroke-width:0.25;"/>
<line x1="342.300000" y1="79.000000" x2="345.300000" y2="78.000000"  transform="rotate(0.000000,345.300000,78.000000)" style="stroke: black; stroke-width:0.25;"/>
<line x1="145.650000" y1="110.000000" x2="149.650000" y2="110.000000"  style="stroke:black; stroke-linecap:round; stroke-width:0.25;"/>
<line x1="149.650000" y1="110.000000" x2="159.650000" y2="110.000000"  style="stroke:black; stroke-linecap:round; stroke-width:0.25;"/>
<line x1="159.650000" y1="110.000000" x2="247.300000" y2="110.000000"  style="stroke:black; stroke-linecap:round; stroke-width:0.25;"/>
<line x1="165.650000" y1="36.000000" x2="169.650000" y2="36.000000"  style="stroke:black; stroke-linecap:round; stroke-width:0.25;"/>
<line x1="169.650000" y1="36.000000" x2="287.300000" y2="36.000000"  style="stroke:black; stroke-linecap:round; stroke-width:0.25;"/>
<line x1="243.300000" y1="68.000000" x2="247.300000" y2="68.000000"  style="stroke:black; stroke-linecap:round; stroke-width:0.25;"/>
<line x1="247.300000" y1="98.000000" x2="255.300000" y2="98.000000"  style="stroke:black; stroke-linecap:round; stroke-width:0.25;"/>
<line x1="247.300000" y1="110.000000" x2="247.300000" y2="98.000000"  style="stroke:black; stroke-linecap:round; stroke-width:0.25;"/>
<line x1="247.300000" y1="110.000000" x2="247.300000" y2="110.000000"  style="stroke:black; stroke-linecap:round; stroke-width:0.25;"/>
<line x1="247.300000" y1="68.000000" x2="255.300000" y2="68.000000"  style="stroke:black; stroke-linecap:round; stroke-width:0.25;"/>
<line x1="255.300000" y1="68.000000" x2="255.300000" y2="90.000000"  style="stroke:black; stroke-linecap:round; stroke-width:0.25;"/>
<line x1="255.300000" y1="90.000000" x2="255.300000" y2="90.000000"  style="stroke:black; stroke-linecap:round; stroke-width:0.25;"/>
<line x1="255.300000" y1="90.000000" x2="259.300000" y2="90.000000"  style="stroke:black; stroke-linecap:round; stroke-width:0.25;"/>
<line x1="255.300000" y1="98.000000" x2="259.300000" y2="98.000000"  style="stroke:black; stroke-linecap:round; stroke-width:0.25;"/>
<line x1="283.300000" y1="94.000000" x2="287.300000" y2="94.000000"  style="stroke:black; stroke-linecap:round; stroke-width:0.25;"/>
<line x1="287.300000" y1="36.000000" x2="295.300000" y2="36.000000"  style="stroke:black; stroke-linecap:round; stroke-width:0.25;"/>
<line x1="287.300000" y1="82.000000" x2="295.300000" y2="82.000000"  style="stroke:black; stroke-linecap:round; stroke-width:0.25;"/>
<line x1="287.300000" y1="94.000000" x2="287.300000" y2="82.000000"  style="stroke:black; stroke-linecap:round; stroke-width:0.25;"/>
<line x1="287.300000" y1="94.000000" x2="287.300000" y2="94.000000"  style="stroke:black; stroke-linecap:round; stroke-width:0.25;"/>
<line x1="295.300000" y1="36.000000" x2="295.300000" y2="74.000000"  style="stroke:black; stroke-linecap:round; stroke-width:0.25;"/>
<line x1="295.300000" y1="74.000000" x2="295.300000" y2="74.000000"  style="stroke:black; stroke-linecap:round; stroke-width:0.25;"/>
<line x1="295.300000" y1="74.000000" x2="299.300000" y2="74.000000"  style="stroke:black; stroke-linecap:round; stroke-width:0.25;"/>
<line x1="295.300000" y1="82.000000" x2="299.300000" y2="82.000000"  style="stroke:black; stroke-linecap:round; stroke-width:0.25;"/>
<line x1="323.300000" y1="78.000000" x2="327.300000" y2="78.000000"  style="stroke:black; stroke-linecap:round; stroke-width:0.25;"/>
<line x1="327.300000" y1="78.000000" x2="327.300000" y2="78.000000"  style="stroke:black; stroke-linecap:round; stroke-width:0.25;"/>
<line x1="327.300000" y1="78.000000" x2="331.300000" y2="78.000000"  style="stroke:black; stroke-linecap:round; stroke-width:0.25;"/>
<line x1="331.300000" y1="78.000000" x2="335.300000" y2="78.000000"  style="stroke:black; stroke-linecap:round; stroke-width:0.25;"/>
<line x1="335.300000" y1="78.000000" x2="345.300000" y2="78.000000"  style="stroke:black; stroke-linecap:round; stroke-width:0.25;"/>
</svg>
