<?xml version="1.0"?>
<svg xmlns="http://www.w3.org/2000/svg" xmlns:xlink="http://www.w3.org/1999/xlink" viewBox="0 0 368.200000 156.000000" width="184.100000mm" height="78.000000mm" version="1.1">
<a xlink:href="HIGH-0x7fc5e9646fb0.svg">
<rect x="1.000000" y="1.000000" width="367.200000" height="155.000000" rx="0" ry="0" style="stroke:none;fill:#cccccc;"/>
<rect x="0.000000" y="0.000000" width="367.200000" height="155.000000" rx="0" ry="0" style="stroke:none;fill:#ffffff;"/>
</a>
<text x="10.000000" y="7.000000" font-family="Arial" font-size="7"></text>
<rect x="149.100000" y="25.000000" width="24.000000" height="24.000000" rx="0" ry="0" style="stroke:none;fill:#cccccc;"/>
<rect x="148.100000" y="24.000000" width="24.000000" height="24.000000" rx="0" ry="0" style="stroke:none;fill:#f44800;"/>
<text x="160.100000" y="38.000000" font-family="Arial" font-size="7" text-anchor="middle" fill="#FFFFFF">10</text>
<circle cx="150.100000" cy="26.000000" r="1"/>
<rect x="25.000000" y="57.000000" width="232.200000" height="24.000000" rx="0" ry="0" style="stroke:none;fill:#cccccc;"/>
<rect x="24.000000" y="56.000000" width="232.200000" height="24.000000" rx="0" ry="0" style="stroke:none;fill:#477881;"/>
<text x="140.100000" y="70.000000" font-family="Arial" font-size="7" text-anchor="middle" fill="#FFFFFF">hslider(High Boost|Cut, 0.0f, -4e+01f, 4e+01f, 0.1f)</text>
<circle cx="26.000000" cy="58.000000" r="1"/>
<rect x="129.100000" y="99.000000" width="24.000000" height="24.000000" rx="0" ry="0" style="stroke:none;fill:#cccccc;"/>
<rect x="128.100000" y="98.000000" width="24.000000" height="24.000000" rx="0" ry="0" style="stroke:none;fill:#f44800;"/>
<text x="140.100000" y="112.000000" font-family="Arial" font-size="7" text-anchor="middle" fill="#FFFFFF">20</text>
<circle cx="130.100000" cy="100.000000" r="1"/>
<line x1="119.100000" y1="89.000000" x2="119.100000" y2="131.000000"  style="stroke: black; stroke-linecap:round; stroke-width:0.25; stroke-dasharray:3,3;"/>
<line x1="119.100000" y1="131.000000" x2="161.100000" y2="131.000000"  style="stroke: black; stroke-linecap:round; stroke-width:0.25; stroke-dasharray:3,3;"/>
<line x1="161.100000" y1="131.000000" x2="161.100000" y2="89.000000"  style="stroke: black; stroke-linecap:round; stroke-width:0.25; stroke-dasharray:3,3;"/>
<line x1="119.100000" y1="89.000000" x2="124.100000" y2="89.000000"  style="stroke: black; stroke-linecap:round; stroke-width:0.25; stroke-dasharray:3,3;"/>
<line x1="146.675000" y1="89.000000" x2="161.100000" y2="89.000000"  style="stroke: black; stroke-linecap:round; stroke-width:0.25; stroke-dasharray:3,3;"/>
<text x="124.100000" y="91.000000" font-family="Arial" font-size="7">maxGR</text>
<rect x="273.200000" y="83.000000" width="24.000000" height="24.000000" rx="0" ry="0" style="stroke:none;fill:#cccccc;"/>
<rect x="272.200000" y="82.000000" width="24.000000" height="24.000000" rx="0" ry="0" style="stroke:none;fill:#4B71A1;"/>
<text x="284.200000" y="96.000000" font-family="Arial" font-size="7" text-anchor="middle" fill="#FFFFFF">/</text>
<circle cx="274.200000" cy="84.000000" r="1"/>
<line x1="269.200000" y1="89.000000" x2="272.200000" y2="90.000000"  transform="rotate(0.000000,272.200000,90.000000)" style="stroke: black; stroke-width:0.25;"/>
<line x1="269.200000" y1="91.000000" x2="272.200000" y2="90.000000"  transform="rotate(0.000000,272.200000,90.000000)" style="stroke: black; stroke-width:0.25;"/>
<line x1="269.200000" y1="97.000000" x2="272.200000" y2="98.000000"  transform="rotate(0.000000,272.200000,98.000000)" style="stroke: black; stroke-width:0.25;"/>
<line x1="269.200000" y1="99.000000" x2="272.200000" y2="98.000000"  transform="rotate(0.000000,272.200000,98.000000)" style="stroke: black; stroke-width:0.25;"/>
<rect x="313.200000" y="67.000000" width="24.000000" height="24.000000" rx="0" ry="0" style="stroke:none;fill:#cccccc;"/>
<rect x="312.200000" y="66.000000" width="24.000000" height="24.000000" rx="0" ry="0" style="stroke:none;fill:#4B71A1;"/>
<text x="324.200000" y="80.000000" font-family="Arial" font-size="7" text-anchor="middle" fill="#FFFFFF">pow</text>
<circle cx="314.200000" cy="68.000000" r="1"/>
<line x1="309.200000" y1="73.000000" x2="312.200000" y2="74.000000"  transform="rotate(0.000000,312.200000,74.000000)" style="stroke: black; stroke-width:0.25;"/>
<line x1="309.200000" y1="75.000000" x2="312.200000" y2="74.000000"  transform="rotate(0.000000,312.200000,74.000000)" style="stroke: black; stroke-width:0.25;"/>
<line x1="309.200000" y1="81.000000" x2="312.200000" y2="82.000000"  transform="rotate(0.000000,312.200000,82.000000)" style="stroke: black; stroke-width:0.25;"/>
<line x1="309.200000" y1="83.000000" x2="312.200000" y2="82.000000"  transform="rotate(0.000000,312.200000,82.000000)" style="stroke: black; stroke-width:0.25;"/>
<line x1="15.000000" y1="15.000000" x2="15.000000" y2="141.000000"  style="stroke: black; stroke-linecap:round; stroke-width:0.25; stroke-dasharray:3,3;"/>
<line x1="15.000000" y1="141.000000" x2="353.200000" y2="141.000000"  style="stroke: black; stroke-linecap:round; stroke-width:0.25; stroke-dasharray:3,3;"/>
<line x1="353.200000" y1="141.000000" x2="353.200000" y2="15.000000"  style="stroke: black; stroke-linecap:round; stroke-width:0.25; stroke-dasharray:3,3;"/>
<line x1="15.000000" y1="15.000000" x2="20.000000" y2="15.000000"  style="stroke: black; stroke-linecap:round; stroke-width:0.25; stroke-dasharray:3,3;"/>
<line x1="119.975000" y1="15.000000" x2="353.200000" y2="15.000000"  style="stroke: black; stroke-linecap:round; stroke-width:0.25; stroke-dasharray:3,3;"/>
<text x="20.000000" y="17.000000" font-family="Arial" font-size="7">db2linear(hsl...e+01f, 0.1f))</text>
<line x1="355.200000" y1="77.000000" x2="358.200000" y2="78.000000"  transform="rotate(0.000000,358.200000,78.000000)" style="stroke: black; stroke-width:0.25;"/>
<line x1="355.200000" y1="79.000000" x2="358.200000" y2="78.000000"  transform="rotate(0.000000,358.200000,78.000000)" style="stroke: black; stroke-width:0.25;"/>
<line x1="152.100000" y1="110.000000" x2="156.100000" y2="110.000000"  style="stroke:black; stroke-linecap:round; stroke-width:0.25;"/>
<line x1="156.100000" y1="110.000000" x2="166.100000" y2="110.000000"  style="stroke:black; stroke-linecap:round; stroke-width:0.25;"/>
<line x1="166.100000" y1="110.000000" x2="260.200000" y2="110.000000"  style="stroke:black; stroke-linecap:round; stroke-width:0.25;"/>
<line x1="172.100000" y1="36.000000" x2="176.100000" y2="36.000000"  style="stroke:black; stroke-linecap:round; stroke-width:0.25;"/>
<line x1="176.100000" y1="36.000000" x2="300.200000" y2="36.000000"  style="stroke:black; stroke-linecap:round; stroke-width:0.25;"/>
<line x1="256.200000" y1="68.000000" x2="260.200000" y2="68.000000"  style="stroke:black; stroke-linecap:round; stroke-width:0.25;"/>
<line x1="260.200000" y1="68.000000" x2="268.200000" y2="68.000000"  style="stroke:black; stroke-linecap:round; stroke-width:0.25;"/>
<line x1="260.200000" y1="98.000000" x2="268.200000" y2="98.000000"  style="stroke:black; stroke-linecap:round; stroke-width:0.25;"/>
<line x1="260.200000" y1="110.000000" x2="260.200000" y2="98.000000"  style="stroke:black; stroke-linecap:round; stroke-width:0.25;"/>
<line x1="260.200000" y1="110.000000" x2="260.200000" y2="110.000000"  style="stroke:black; stroke-linecap:round; stroke-width:0.25;"/>
<line x1="268.200000" y1="68.000000" x2="268.200000" y2="90.000000"  style="stroke:black; stroke-linecap:round; stroke-width:0.25;"/>
<line x1="268.200000" y1="90.000000" x2="268.200000" y2="90.000000"  style="stroke:black; stroke-linecap:round; stroke-width:0.25;"/>
<line x1="268.200000" y1="90.000000" x2="272.200000" y2="90.000000"  style="stroke:black; stroke-linecap:round; stroke-width:0.25;"/>
<line x1="268.200000" y1="98.000000" x2="272.200000" y2="98.000000"  style="stroke:black; stroke-linecap:round; stroke-width:0.25;"/>
<line x1="296.200000" y1="94.000000" x2="300.200000" y2="94.000000"  style="stroke:black; stroke-linecap:round; stroke-width:0.25;"/>
<line x1="300.200000" y1="36.000000" x2="308.200000" y2="36.000000"  style="stroke:black; stroke-linecap:round; stroke-width:0.25;"/>
<line x1="300.200000" y1="82.000000" x2="308.200000" y2="82.000000"  style="stroke:black; stroke-linecap:round; stroke-width:0.25;"/>
<line x1="300.200000" y1="94.000000" x2="300.200000" y2="82.000000"  style="stroke:black; stroke-linecap:round; stroke-width:0.25;"/>
<line x1="300.200000" y1="94.000000" x2="300.200000" y2="94.000000"  style="stroke:black; stroke-linecap:round; stroke-width:0.25;"/>
<line x1="308.200000" y1="36.000000" x2="308.200000" y2="74.000000"  style="stroke:black; stroke-linecap:round; stroke-width:0.25;"/>
<line x1="308.200000" y1="74.000000" x2="308.200000" y2="74.000000"  style="stroke:black; stroke-linecap:round; stroke-width:0.25;"/>
<line x1="308.200000" y1="74.000000" x2="312.200000" y2="74.000000"  style="stroke:black; stroke-linecap:round; stroke-width:0.25;"/>
<line x1="308.200000" y1="82.000000" x2="312.200000" y2="82.000000"  style="stroke:black; stroke-linecap:round; stroke-width:0.25;"/>
<line x1="336.200000" y1="78.000000" x2="340.200000" y2="78.000000"  style="stroke:black; stroke-linecap:round; stroke-width:0.25;"/>
<line x1="340.200000" y1="78.000000" x2="340.200000" y2="78.000000"  style="stroke:black; stroke-linecap:round; stroke-width:0.25;"/>
<line x1="340.200000" y1="78.000000" x2="344.200000" y2="78.000000"  style="stroke:black; stroke-linecap:round; stroke-width:0.25;"/>
<line x1="344.200000" y1="78.000000" x2="348.200000" y2="78.000000"  style="stroke:black; stroke-linecap:round; stroke-width:0.25;"/>
<line x1="348.200000" y1="78.000000" x2="358.200000" y2="78.000000"  style="stroke:black; stroke-linecap:round; stroke-width:0.25;"/>
</svg>
