<?xml version="1.0"?>
<svg xmlns="http://www.w3.org/2000/svg" xmlns:xlink="http://www.w3.org/1999/xlink" viewBox="0 0 563.500000 72.000000" width="281.750000mm" height="36.000000mm" version="1.1">
<a xlink:href="process.svg">
<rect x="1.000000" y="1.000000" width="562.500000" height="71.000000" rx="0" ry="0" style="stroke:none;fill:#cccccc;"/>
<rect x="0.000000" y="0.000000" width="562.500000" height="71.000000" rx="0" ry="0" style="stroke:none;fill:#ffffff;"/>
</a>
<text x="10.000000" y="7.000000" font-family="Arial" font-size="7"></text>
<a xlink:href="low-0x7fc5e987b5f0.svg">
<rect x="33.000000" y="25.000000" width="129.000000" height="24.000000" rx="0" ry="0" style="stroke:none;fill:#cccccc;"/>
<rect x="32.000000" y="24.000000" width="129.000000" height="24.000000" rx="0" ry="0" style="stroke:none;fill:#003366;"/>
</a>
<a xlink:href="low-0x7fc5e987b5f0.svg">
<text x="96.500000" y="38.000000" font-family="Arial" font-size="7" text-anchor="middle" fill="#FFFFFF">low_shelf(hgr...03f, 1.0f))))</text>
</a>
<circle cx="34.000000" cy="26.000000" r="1"/>
<line x1="29.000000" y1="35.000000" x2="32.000000" y2="36.000000"  transform="rotate(0.000000,32.000000,36.000000)" style="stroke: black; stroke-width:0.25;"/>
<line x1="29.000000" y1="37.000000" x2="32.000000" y2="36.000000"  transform="rotate(0.000000,32.000000,36.000000)" style="stroke: black; stroke-width:0.25;"/>
<a xlink:href="peak-0x7fc5e987fa60.svg">
<rect x="170.000000" y="25.000000" width="38.700000" height="24.000000" rx="0" ry="0" style="stroke:none;fill:#cccccc;"/>
<rect x="169.000000" y="24.000000" width="38.700000" height="24.000000" rx="0" ry="0" style="stroke:none;fill:#003366;"/>
</a>
<a xlink:href="peak-0x7fc5e987fa60.svg">
<text x="188.350000" y="38.000000" font-family="Arial" font-size="7" text-anchor="middle" fill="#FFFFFF">peak(0)</text>
</a>
<circle cx="171.000000" cy="26.000000" r="1"/>
<line x1="166.000000" y1="35.000000" x2="169.000000" y2="36.000000"  transform="rotate(0.000000,169.000000,36.000000)" style="stroke: black; stroke-width:0.25;"/>
<line x1="166.000000" y1="37.000000" x2="169.000000" y2="36.000000"  transform="rotate(0.000000,169.000000,36.000000)" style="stroke: black; stroke-width:0.25;"/>
<a xlink:href="peak-0x7fc5e98814e0.svg">
<rect x="216.700000" y="25.000000" width="38.700000" height="24.000000" rx="0" ry="0" style="stroke:none;fill:#cccccc;"/>
<rect x="215.700000" y="24.000000" width="38.700000" height="24.000000" rx="0" ry="0" style="stroke:none;fill:#003366;"/>
</a>
<a xlink:href="peak-0x7fc5e98814e0.svg">
<text x="235.050000" y="38.000000" font-family="Arial" font-size="7" text-anchor="middle" fill="#FFFFFF">peak(1)</text>
</a>
<circle cx="217.700000" cy="26.000000" r="1"/>
<line x1="212.700000" y1="35.000000" x2="215.700000" y2="36.000000"  transform="rotate(0.000000,215.700000,36.000000)" style="stroke: black; stroke-width:0.25;"/>
<line x1="212.700000" y1="37.000000" x2="215.700000" y2="36.000000"  transform="rotate(0.000000,215.700000,36.000000)" style="stroke: black; stroke-width:0.25;"/>
<a xlink:href="peak-0x7fc5e9882f60.svg">
<rect x="263.400000" y="25.000000" width="38.700000" height="24.000000" rx="0" ry="0" style="stroke:none;fill:#cccccc;"/>
<rect x="262.400000" y="24.000000" width="38.700000" height="24.000000" rx="0" ry="0" style="stroke:none;fill:#003366;"/>
</a>
<a xlink:href="peak-0x7fc5e9882f60.svg">
<text x="281.750000" y="38.000000" font-family="Arial" font-size="7" text-anchor="middle" fill="#FFFFFF">peak(2)</text>
</a>
<circle cx="264.400000" cy="26.000000" r="1"/>
<line x1="259.400000" y1="35.000000" x2="262.400000" y2="36.000000"  transform="rotate(0.000000,262.400000,36.000000)" style="stroke: black; stroke-width:0.25;"/>
<line x1="259.400000" y1="37.000000" x2="262.400000" y2="36.000000"  transform="rotate(0.000000,262.400000,36.000000)" style="stroke: black; stroke-width:0.25;"/>
<a xlink:href="peak-0x7fc5e98849e0.svg">
<rect x="310.100000" y="25.000000" width="38.700000" height="24.000000" rx="0" ry="0" style="stroke:none;fill:#cccccc;"/>
<rect x="309.100000" y="24.000000" width="38.700000" height="24.000000" rx="0" ry="0" style="stroke:none;fill:#003366;"/>
</a>
<a xlink:href="peak-0x7fc5e98849e0.svg">
<text x="328.450000" y="38.000000" font-family="Arial" font-size="7" text-anchor="middle" fill="#FFFFFF">peak(3)</text>
</a>
<circle cx="311.100000" cy="26.000000" r="1"/>
<line x1="306.100000" y1="35.000000" x2="309.100000" y2="36.000000"  transform="rotate(0.000000,309.100000,36.000000)" style="stroke: black; stroke-width:0.25;"/>
<line x1="306.100000" y1="37.000000" x2="309.100000" y2="36.000000"  transform="rotate(0.000000,309.100000,36.000000)" style="stroke: black; stroke-width:0.25;"/>
<a xlink:href="peak-0x7fc5e9886440.svg">
<rect x="356.800000" y="25.000000" width="38.700000" height="24.000000" rx="0" ry="0" style="stroke:none;fill:#cccccc;"/>
<rect x="355.800000" y="24.000000" width="38.700000" height="24.000000" rx="0" ry="0" style="stroke:none;fill:#003366;"/>
</a>
<a xlink:href="peak-0x7fc5e9886440.svg">
<text x="375.150000" y="38.000000" font-family="Arial" font-size="7" text-anchor="middle" fill="#FFFFFF">peak(4)</text>
</a>
<circle cx="357.800000" cy="26.000000" r="1"/>
<line x1="352.800000" y1="35.000000" x2="355.800000" y2="36.000000"  transform="rotate(0.000000,355.800000,36.000000)" style="stroke: black; stroke-width:0.25;"/>
<line x1="352.800000" y1="37.000000" x2="355.800000" y2="36.000000"  transform="rotate(0.000000,355.800000,36.000000)" style="stroke: black; stroke-width:0.25;"/>
<a xlink:href="high-0x7fc5e98884f0.svg">
<rect x="403.500000" y="25.000000" width="129.000000" height="24.000000" rx="0" ry="0" style="stroke:none;fill:#cccccc;"/>
<rect x="402.500000" y="24.000000" width="129.000000" height="24.000000" rx="0" ry="0" style="stroke:none;fill:#003366;"/>
</a>
<a xlink:href="high-0x7fc5e98884f0.svg">
<text x="467.000000" y="38.000000" font-family="Arial" font-size="7" text-anchor="middle" fill="#FFFFFF">high_shelf(hg...04f, 1.0f))))</text>
</a>
<circle cx="404.500000" cy="26.000000" r="1"/>
<line x1="399.500000" y1="35.000000" x2="402.500000" y2="36.000000"  transform="rotate(0.000000,402.500000,36.000000)" style="stroke: black; stroke-width:0.25;"/>
<line x1="399.500000" y1="37.000000" x2="402.500000" y2="36.000000"  transform="rotate(0.000000,402.500000,36.000000)" style="stroke: black; stroke-width:0.25;"/>
<line x1="15.000000" y1="15.000000" x2="15.000000" y2="57.000000"  style="stroke: black; stroke-linecap:round; stroke-width:0.25; stroke-dasharray:3,3;"/>
<line x1="15.000000" y1="57.000000" x2="548.500000" y2="57.000000"  style="stroke: black; stroke-linecap:round; stroke-width:0.25; stroke-dasharray:3,3;"/>
<line x1="548.500000" y1="57.000000" x2="548.500000" y2="15.000000"  style="stroke: black; stroke-linecap:round; stroke-width:0.25; stroke-dasharray:3,3;"/>
<line x1="15.000000" y1="15.000000" x2="20.000000" y2="15.000000"  style="stroke: black; stroke-linecap:round; stroke-width:0.25; stroke-dasharray:3,3;"/>
<line x1="42.575000" y1="15.000000" x2="548.500000" y2="15.000000"  style="stroke: black; stroke-linecap:round; stroke-width:0.25; stroke-dasharray:3,3;"/>
<text x="20.000000" y="17.000000" font-family="Arial" font-size="7">eq(1)</text>
<line x1="550.500000" y1="35.000000" x2="553.500000" y2="36.000000"  transform="rotate(0.000000,553.500000,36.000000)" style="stroke: black; stroke-width:0.25;"/>
<line x1="550.500000" y1="37.000000" x2="553.500000" y2="36.000000"  transform="rotate(0.000000,553.500000,36.000000)" style="stroke: black; stroke-width:0.25;"/>
<line x1="10.000000" y1="36.000000" x2="20.000000" y2="36.000000"  style="stroke:black; stroke-linecap:round; stroke-width:0.25;"/>
<line x1="20.000000" y1="36.000000" x2="24.000000" y2="36.000000"  style="stroke:black; stroke-linecap:round; stroke-width:0.25;"/>
<line x1="24.000000" y1="36.000000" x2="28.000000" y2="36.000000"  style="stroke:black; stroke-linecap:round; stroke-width:0.25;"/>
<line x1="28.000000" y1="36.000000" x2="28.000000" y2="36.000000"  style="stroke:black; stroke-linecap:round; stroke-width:0.25;"/>
<line x1="28.000000" y1="36.000000" x2="32.000000" y2="36.000000"  style="stroke:black; stroke-linecap:round; stroke-width:0.25;"/>
<line x1="161.000000" y1="36.000000" x2="165.000000" y2="36.000000"  style="stroke:black; stroke-linecap:round; stroke-width:0.25;"/>
<line x1="165.000000" y1="36.000000" x2="165.000000" y2="36.000000"  style="stroke:black; stroke-linecap:round; stroke-width:0.25;"/>
<line x1="165.000000" y1="36.000000" x2="169.000000" y2="36.000000"  style="stroke:black; stroke-linecap:round; stroke-width:0.25;"/>
<line x1="207.700000" y1="36.000000" x2="211.700000" y2="36.000000"  style="stroke:black; stroke-linecap:round; stroke-width:0.25;"/>
<line x1="211.700000" y1="36.000000" x2="211.700000" y2="36.000000"  style="stroke:black; stroke-linecap:round; stroke-width:0.25;"/>
<line x1="211.700000" y1="36.000000" x2="215.700000" y2="36.000000"  style="stroke:black; stroke-linecap:round; stroke-width:0.25;"/>
<line x1="254.400000" y1="36.000000" x2="258.400000" y2="36.000000"  style="stroke:black; stroke-linecap:round; stroke-width:0.25;"/>
<line x1="258.400000" y1="36.000000" x2="258.400000" y2="36.000000"  style="stroke:black; stroke-linecap:round; stroke-width:0.25;"/>
<line x1="258.400000" y1="36.000000" x2="262.400000" y2="36.000000"  style="stroke:black; stroke-linecap:round; stroke-width:0.25;"/>
<line x1="301.100000" y1="36.000000" x2="305.100000" y2="36.000000"  style="stroke:black; stroke-linecap:round; stroke-width:0.25;"/>
<line x1="305.100000" y1="36.000000" x2="305.100000" y2="36.000000"  style="stroke:black; stroke-linecap:round; stroke-width:0.25;"/>
<line x1="305.100000" y1="36.000000" x2="309.100000" y2="36.000000"  style="stroke:black; stroke-linecap:round; stroke-width:0.25;"/>
<line x1="347.800000" y1="36.000000" x2="351.800000" y2="36.000000"  style="stroke:black; stroke-linecap:round; stroke-width:0.25;"/>
<line x1="351.800000" y1="36.000000" x2="351.800000" y2="36.000000"  style="stroke:black; stroke-linecap:round; stroke-width:0.25;"/>
<line x1="351.800000" y1="36.000000" x2="355.800000" y2="36.000000"  style="stroke:black; stroke-linecap:round; stroke-width:0.25;"/>
<line x1="394.500000" y1="36.000000" x2="398.500000" y2="36.000000"  style="stroke:black; stroke-linecap:round; stroke-width:0.25;"/>
<line x1="398.500000" y1="36.000000" x2="398.500000" y2="36.000000"  style="stroke:black; stroke-linecap:round; stroke-width:0.25;"/>
<line x1="398.500000" y1="36.000000" x2="402.500000" y2="36.000000"  style="stroke:black; stroke-linecap:round; stroke-width:0.25;"/>
<line x1="531.500000" y1="36.000000" x2="535.500000" y2="36.000000"  style="stroke:black; stroke-linecap:round; stroke-width:0.25;"/>
<line x1="535.500000" y1="36.000000" x2="535.500000" y2="36.000000"  style="stroke:black; stroke-linecap:round; stroke-width:0.25;"/>
<line x1="535.500000" y1="36.000000" x2="539.500000" y2="36.000000"  style="stroke:black; stroke-linecap:round; stroke-width:0.25;"/>
<line x1="539.500000" y1="36.000000" x2="543.500000" y2="36.000000"  style="stroke:black; stroke-linecap:round; stroke-width:0.25;"/>
<line x1="543.500000" y1="36.000000" x2="553.500000" y2="36.000000"  style="stroke:black; stroke-linecap:round; stroke-width:0.25;"/>
</svg>
