<?xml version="1.0"?>
<svg xmlns="http://www.w3.org/2000/svg" xmlns:xlink="http://www.w3.org/1999/xlink" viewBox="0 0 482.900000 112.000000" width="241.450000mm" height="56.000000mm" version="1.1">
<a xlink:href="BP-0x7fc5e8bc16e0.svg">
<rect x="1.000000" y="1.000000" width="481.900000" height="111.000000" rx="0" ry="0" style="stroke:none;fill:#cccccc;"/>
<rect x="0.000000" y="0.000000" width="481.900000" height="111.000000" rx="0" ry="0" style="stroke:none;fill:#ffffff;"/>
</a>
<text x="10.000000" y="7.000000" font-family="Arial" font-size="7"></text>
<rect x="45.000000" y="45.000000" width="219.300000" height="24.000000" rx="0" ry="0" style="stroke:none;fill:#cccccc;"/>
<rect x="44.000000" y="44.000000" width="219.300000" height="24.000000" rx="0" ry="0" style="stroke:none;fill:#477881;"/>
<text x="153.650000" y="58.000000" font-family="Arial" font-size="7" text-anchor="middle" fill="#FFFFFF">hslider(Peak Frequency, 49.0f, 1.0f, 1e+02f, 1.0f)</text>
<circle cx="46.000000" cy="46.000000" r="1"/>
<line x1="35.000000" y1="35.000000" x2="35.000000" y2="77.000000"  style="stroke: black; stroke-linecap:round; stroke-width:0.25; stroke-dasharray:3,3;"/>
<line x1="35.000000" y1="77.000000" x2="272.300000" y2="77.000000"  style="stroke: black; stroke-linecap:round; stroke-width:0.25; stroke-dasharray:3,3;"/>
<line x1="272.300000" y1="77.000000" x2="272.300000" y2="35.000000"  style="stroke: black; stroke-linecap:round; stroke-width:0.25; stroke-dasharray:3,3;"/>
<line x1="35.000000" y1="35.000000" x2="40.000000" y2="35.000000"  style="stroke: black; stroke-linecap:round; stroke-width:0.25; stroke-dasharray:3,3;"/>
<line x1="133.525000" y1="35.000000" x2="272.300000" y2="35.000000"  style="stroke: black; stroke-linecap:round; stroke-width:0.25; stroke-dasharray:3,3;"/>
<text x="40.000000" y="37.000000" font-family="Arial" font-size="7">hgroup(Peaking Equalizer 1)</text>
<line x1="25.000000" y1="25.000000" x2="25.000000" y2="87.000000"  style="stroke: black; stroke-linecap:round; stroke-width:0.25; stroke-dasharray:3,3;"/>
<line x1="25.000000" y1="87.000000" x2="282.300000" y2="87.000000"  style="stroke: black; stroke-linecap:round; stroke-width:0.25; stroke-dasharray:3,3;"/>
<line x1="282.300000" y1="87.000000" x2="282.300000" y2="25.000000"  style="stroke: black; stroke-linecap:round; stroke-width:0.25; stroke-dasharray:3,3;"/>
<line x1="25.000000" y1="25.000000" x2="30.000000" y2="25.000000"  style="stroke: black; stroke-linecap:round; stroke-width:0.25; stroke-dasharray:3,3;"/>
<line x1="129.975000" y1="25.000000" x2="282.300000" y2="25.000000"  style="stroke: black; stroke-linecap:round; stroke-width:0.25; stroke-dasharray:3,3;"/>
<text x="30.000000" y="27.000000" font-family="Arial" font-size="7">pq_group(hsli...e+02f, 1.0f))</text>
<rect x="302.300000" y="45.000000" width="24.000000" height="24.000000" rx="0" ry="0" style="stroke:none;fill:#cccccc;"/>
<rect x="301.300000" y="44.000000" width="24.000000" height="24.000000" rx="0" ry="0" style="stroke:none;fill:#47945E;"/>
<text x="313.300000" y="58.000000" font-family="Arial" font-size="7" text-anchor="middle" fill="#FFFFFF">x</text>
<circle cx="303.300000" cy="46.000000" r="1"/>
<line x1="298.300000" y1="55.000000" x2="301.300000" y2="56.000000"  transform="rotate(0.000000,301.300000,56.000000)" style="stroke: black; stroke-width:0.25;"/>
<line x1="298.300000" y1="57.000000" x2="301.300000" y2="56.000000"  transform="rotate(0.000000,301.300000,56.000000)" style="stroke: black; stroke-width:0.25;"/>
<a xlink:href="fb-0x7fc5e8bc1040.svg">
<rect x="342.300000" y="49.000000" width="24.000000" height="24.000000" rx="0" ry="0" style="stroke:none;fill:#cccccc;"/>
<rect x="341.300000" y="48.000000" width="24.000000" height="24.000000" rx="0" ry="0" style="stroke:none;fill:#003366;"/>
</a>
<a xlink:href="fb-0x7fc5e8bc1040.svg">
<text x="353.300000" y="62.000000" font-family="Arial" font-size="7" text-anchor="middle" fill="#FFFFFF">fb</text>
</a>
<circle cx="343.300000" cy="50.000000" r="1"/>
<line x1="338.300000" y1="59.000000" x2="341.300000" y2="60.000000"  transform="rotate(0.000000,341.300000,60.000000)" style="stroke: black; stroke-width:0.25;"/>
<line x1="338.300000" y1="61.000000" x2="341.300000" y2="60.000000"  transform="rotate(0.000000,341.300000,60.000000)" style="stroke: black; stroke-width:0.25;"/>
<line x1="367.300000" y1="60.000000" x2="367.300000" y2="56.000000"  style="stroke:black; stroke-linecap:round; stroke-width:0.25;"/>
<line x1="367.300000" y1="56.000000" x2="371.300000" y2="56.000000"  style="stroke:black; stroke-linecap:round; stroke-width:0.25;"/>
<line x1="371.300000" y1="56.000000" x2="371.300000" y2="60.000000"  style="stroke:black; stroke-linecap:round; stroke-width:0.25;"/>
<line x1="292.300000" y1="31.000000" x2="292.300000" y2="81.000000"  style="stroke: black; stroke-linecap:round; stroke-width:0.25; stroke-dasharray:3,3;"/>
<line x1="292.300000" y1="81.000000" x2="382.300000" y2="81.000000"  style="stroke: black; stroke-linecap:round; stroke-width:0.25; stroke-dasharray:3,3;"/>
<line x1="382.300000" y1="81.000000" x2="382.300000" y2="31.000000"  style="stroke: black; stroke-linecap:round; stroke-width:0.25; stroke-dasharray:3,3;"/>
<line x1="292.300000" y1="31.000000" x2="297.300000" y2="31.000000"  style="stroke: black; stroke-linecap:round; stroke-width:0.25; stroke-dasharray:3,3;"/>
<line x1="339.225000" y1="31.000000" x2="382.300000" y2="31.000000"  style="stroke: black; stroke-linecap:round; stroke-width:0.25; stroke-dasharray:3,3;"/>
<text x="297.300000" y="33.000000" font-family="Arial" font-size="7">Abstraction</text>
<a xlink:href="pianokey2hz-0x7fc5e87f9c90.svg">
<rect x="400.300000" y="45.000000" width="51.600000" height="24.000000" rx="0" ry="0" style="stroke:none;fill:#cccccc;"/>
<rect x="399.300000" y="44.000000" width="51.600000" height="24.000000" rx="0" ry="0" style="stroke:none;fill:#003366;"/>
</a>
<a xlink:href="pianokey2hz-0x7fc5e87f9c90.svg">
<text x="425.100000" y="58.000000" font-family="Arial" font-size="7" text-anchor="middle" fill="#FFFFFF">pianokey2hz</text>
</a>
<circle cx="401.300000" cy="46.000000" r="1"/>
<line x1="396.300000" y1="55.000000" x2="399.300000" y2="56.000000"  transform="rotate(0.000000,399.300000,56.000000)" style="stroke: black; stroke-width:0.25;"/>
<line x1="396.300000" y1="57.000000" x2="399.300000" y2="56.000000"  transform="rotate(0.000000,399.300000,56.000000)" style="stroke: black; stroke-width:0.25;"/>
<line x1="15.000000" y1="15.000000" x2="15.000000" y2="97.000000"  style="stroke: black; stroke-linecap:round; stroke-width:0.25; stroke-dasharray:3,3;"/>
<line x1="15.000000" y1="97.000000" x2="467.900000" y2="97.000000"  style="stroke: black; stroke-linecap:round; stroke-width:0.25; stroke-dasharray:3,3;"/>
<line x1="467.900000" y1="97.000000" x2="467.900000" y2="15.000000"  style="stroke: black; stroke-linecap:round; stroke-width:0.25; stroke-dasharray:3,3;"/>
<line x1="15.000000" y1="15.000000" x2="20.000000" y2="15.000000"  style="stroke: black; stroke-linecap:round; stroke-width:0.25; stroke-dasharray:3,3;"/>
<line x1="32.900000" y1="15.000000" x2="467.900000" y2="15.000000"  style="stroke: black; stroke-linecap:round; stroke-width:0.25; stroke-dasharray:3,3;"/>
<text x="20.000000" y="17.000000" font-family="Arial" font-size="7">FP</text>
<line x1="469.900000" y1="55.000000" x2="472.900000" y2="56.000000"  transform="rotate(0.000000,472.900000,56.000000)" style="stroke: black; stroke-width:0.25;"/>
<line x1="469.900000" y1="57.000000" x2="472.900000" y2="56.000000"  transform="rotate(0.000000,472.900000,56.000000)" style="stroke: black; stroke-width:0.25;"/>
<line x1="263.300000" y1="56.000000" x2="267.300000" y2="56.000000"  style="stroke:black; stroke-linecap:round; stroke-width:0.25;"/>
<line x1="267.300000" y1="56.000000" x2="277.300000" y2="56.000000"  style="stroke:black; stroke-linecap:round; stroke-width:0.25;"/>
<line x1="277.300000" y1="56.000000" x2="287.300000" y2="56.000000"  style="stroke:black; stroke-linecap:round; stroke-width:0.25;"/>
<line x1="287.300000" y1="56.000000" x2="287.300000" y2="56.000000"  style="stroke:black; stroke-linecap:round; stroke-width:0.25;"/>
<line x1="287.300000" y1="56.000000" x2="297.300000" y2="56.000000"  style="stroke:black; stroke-linecap:round; stroke-width:0.25;"/>
<line x1="297.300000" y1="56.000000" x2="301.300000" y2="56.000000"  style="stroke:black; stroke-linecap:round; stroke-width:0.25;"/>
<line x1="337.300000" y1="40.000000" x2="337.300000" y2="40.000000"  style="stroke:black; stroke-linecap:round; stroke-width:0.25;"/>
<line x1="337.300000" y1="40.000000" x2="337.300000" y2="60.000000"  style="stroke:black; stroke-linecap:round; stroke-width:0.25;"/>
<line x1="337.300000" y1="60.000000" x2="337.300000" y2="60.000000"  style="stroke:black; stroke-linecap:round; stroke-width:0.25;"/>
<line x1="337.300000" y1="60.000000" x2="341.300000" y2="60.000000"  style="stroke:black; stroke-linecap:round; stroke-width:0.25;"/>
<line x1="353.300000" y1="40.000000" x2="337.300000" y2="40.000000"  style="stroke:black; stroke-linecap:round; stroke-width:0.25;"/>
<line x1="365.300000" y1="60.000000" x2="369.300000" y2="60.000000"  style="stroke:black; stroke-linecap:round; stroke-width:0.25;"/>
<line x1="369.300000" y1="40.000000" x2="353.300000" y2="40.000000"  style="stroke:black; stroke-linecap:round; stroke-width:0.25;"/>
<line x1="369.300000" y1="40.000000" x2="369.300000" y2="40.000000"  style="stroke:black; stroke-linecap:round; stroke-width:0.25;"/>
<line x1="369.300000" y1="56.000000" x2="369.300000" y2="40.000000"  style="stroke:black; stroke-linecap:round; stroke-width:0.25;"/>
<line x1="369.300000" y1="60.000000" x2="371.300000" y2="60.000000"  style="stroke:black; stroke-linecap:round; stroke-width:0.25;"/>
<line x1="371.300000" y1="60.000000" x2="377.300000" y2="60.000000"  style="stroke:black; stroke-linecap:round; stroke-width:0.25;"/>
<line x1="377.300000" y1="60.000000" x2="387.300000" y2="60.000000"  style="stroke:black; stroke-linecap:round; stroke-width:0.25;"/>
<line x1="387.300000" y1="56.000000" x2="395.300000" y2="56.000000"  style="stroke:black; stroke-linecap:round; stroke-width:0.25;"/>
<line x1="387.300000" y1="60.000000" x2="387.300000" y2="56.000000"  style="stroke:black; stroke-linecap:round; stroke-width:0.25;"/>
<line x1="387.300000" y1="60.000000" x2="387.300000" y2="60.000000"  style="stroke:black; stroke-linecap:round; stroke-width:0.25;"/>
<line x1="395.300000" y1="56.000000" x2="399.300000" y2="56.000000"  style="stroke:black; stroke-linecap:round; stroke-width:0.25;"/>
<line x1="450.900000" y1="56.000000" x2="454.900000" y2="56.000000"  style="stroke:black; stroke-linecap:round; stroke-width:0.25;"/>
<line x1="454.900000" y1="56.000000" x2="454.900000" y2="56.000000"  style="stroke:black; stroke-linecap:round; stroke-width:0.25;"/>
<line x1="454.900000" y1="56.000000" x2="458.900000" y2="56.000000"  style="stroke:black; stroke-linecap:round; stroke-width:0.25;"/>
<line x1="458.900000" y1="56.000000" x2="462.900000" y2="56.000000"  style="stroke:black; stroke-linecap:round; stroke-width:0.25;"/>
<line x1="462.900000" y1="56.000000" x2="472.900000" y2="56.000000"  style="stroke:black; stroke-linecap:round; stroke-width:0.25;"/>
</svg>
