<?xml version="1.0"?>
<svg xmlns="http://www.w3.org/2000/svg" xmlns:xlink="http://www.w3.org/1999/xlink" viewBox="0 0 473.100000 216.000000" width="236.550000mm" height="108.000000mm" version="1.1">
<a xlink:href="v1-0x7fc5e9943cd0.svg">
<rect x="1.000000" y="1.000000" width="472.100000" height="215.000000" rx="0" ry="0" style="stroke:none;fill:#cccccc;"/>
<rect x="0.000000" y="0.000000" width="472.100000" height="215.000000" rx="0" ry="0" style="stroke:none;fill:#ffffff;"/>
</a>
<text x="10.000000" y="7.000000" font-family="Arial" font-size="7"></text>
<rect x="55.000000" y="55.000000" width="245.100000" height="24.000000" rx="0" ry="0" style="stroke:none;fill:#cccccc;"/>
<rect x="54.000000" y="54.000000" width="245.100000" height="24.000000" rx="0" ry="0" style="stroke:none;fill:#477881;"/>
<text x="176.550000" y="68.000000" font-family="Arial" font-size="7" text-anchor="middle" fill="#FFFFFF">hslider(Crossover Frequency, 2e+02f, 1.0f, 5e+03f, 1.0f)</text>
<circle cx="56.000000" cy="56.000000" r="1"/>
<line x1="45.000000" y1="45.000000" x2="45.000000" y2="87.000000"  style="stroke: black; stroke-linecap:round; stroke-width:0.25; stroke-dasharray:3,3;"/>
<line x1="45.000000" y1="87.000000" x2="308.100000" y2="87.000000"  style="stroke: black; stroke-linecap:round; stroke-width:0.25; stroke-dasharray:3,3;"/>
<line x1="308.100000" y1="87.000000" x2="308.100000" y2="45.000000"  style="stroke: black; stroke-linecap:round; stroke-width:0.25; stroke-dasharray:3,3;"/>
<line x1="45.000000" y1="45.000000" x2="50.000000" y2="45.000000"  style="stroke: black; stroke-linecap:round; stroke-width:0.25; stroke-dasharray:3,3;"/>
<line x1="111.275000" y1="45.000000" x2="308.100000" y2="45.000000"  style="stroke: black; stroke-linecap:round; stroke-width:0.25; stroke-dasharray:3,3;"/>
<text x="50.000000" y="47.000000" font-family="Arial" font-size="7">vgroup(LF Filter)</text>
<line x1="35.000000" y1="35.000000" x2="35.000000" y2="97.000000"  style="stroke: black; stroke-linecap:round; stroke-width:0.25; stroke-dasharray:3,3;"/>
<line x1="35.000000" y1="97.000000" x2="318.100000" y2="97.000000"  style="stroke: black; stroke-linecap:round; stroke-width:0.25; stroke-dasharray:3,3;"/>
<line x1="318.100000" y1="97.000000" x2="318.100000" y2="35.000000"  style="stroke: black; stroke-linecap:round; stroke-width:0.25; stroke-dasharray:3,3;"/>
<line x1="35.000000" y1="35.000000" x2="40.000000" y2="35.000000"  style="stroke: black; stroke-linecap:round; stroke-width:0.25; stroke-dasharray:3,3;"/>
<line x1="117.400000" y1="35.000000" x2="318.100000" y2="35.000000"  style="stroke: black; stroke-linecap:round; stroke-width:0.25; stroke-dasharray:3,3;"/>
<text x="40.000000" y="37.000000" font-family="Arial" font-size="7">hgroup(Band Split (9))</text>
<line x1="25.000000" y1="25.000000" x2="25.000000" y2="107.000000"  style="stroke: black; stroke-linecap:round; stroke-width:0.25; stroke-dasharray:3,3;"/>
<line x1="25.000000" y1="107.000000" x2="328.100000" y2="107.000000"  style="stroke: black; stroke-linecap:round; stroke-width:0.25; stroke-dasharray:3,3;"/>
<line x1="328.100000" y1="107.000000" x2="328.100000" y2="25.000000"  style="stroke: black; stroke-linecap:round; stroke-width:0.25; stroke-dasharray:3,3;"/>
<line x1="25.000000" y1="25.000000" x2="30.000000" y2="25.000000"  style="stroke: black; stroke-linecap:round; stroke-width:0.25; stroke-dasharray:3,3;"/>
<line x1="42.900000" y1="25.000000" x2="328.100000" y2="25.000000"  style="stroke: black; stroke-linecap:round; stroke-width:0.25; stroke-dasharray:3,3;"/>
<text x="30.000000" y="27.000000" font-family="Arial" font-size="7">CF</text>
<rect x="158.200000" y="127.000000" width="38.700000" height="24.000000" rx="0" ry="0" style="stroke:none;fill:#cccccc;"/>
<rect x="157.200000" y="126.000000" width="38.700000" height="24.000000" rx="0" ry="0" style="stroke:none;fill:#f44800;"/>
<text x="176.550000" y="140.000000" font-family="Arial" font-size="7" text-anchor="middle" fill="#FFFFFF">3.14159</text>
<circle cx="159.200000" cy="128.000000" r="1"/>
<line x1="148.200000" y1="117.000000" x2="148.200000" y2="159.000000"  style="stroke: black; stroke-linecap:round; stroke-width:0.25; stroke-dasharray:3,3;"/>
<line x1="148.200000" y1="159.000000" x2="204.900000" y2="159.000000"  style="stroke: black; stroke-linecap:round; stroke-width:0.25; stroke-dasharray:3,3;"/>
<line x1="204.900000" y1="159.000000" x2="204.900000" y2="117.000000"  style="stroke: black; stroke-linecap:round; stroke-width:0.25; stroke-dasharray:3,3;"/>
<line x1="148.200000" y1="117.000000" x2="153.200000" y2="117.000000"  style="stroke: black; stroke-linecap:round; stroke-width:0.25; stroke-dasharray:3,3;"/>
<line x1="166.100000" y1="117.000000" x2="204.900000" y2="117.000000"  style="stroke: black; stroke-linecap:round; stroke-width:0.25; stroke-dasharray:3,3;"/>
<text x="153.200000" y="119.000000" font-family="Arial" font-size="7">PI</text>
<rect x="346.100000" y="81.000000" width="24.000000" height="24.000000" rx="0" ry="0" style="stroke:none;fill:#cccccc;"/>
<rect x="345.100000" y="80.000000" width="24.000000" height="24.000000" rx="0" ry="0" style="stroke:none;fill:#4B71A1;"/>
<text x="357.100000" y="94.000000" font-family="Arial" font-size="7" text-anchor="middle" fill="#FFFFFF">*</text>
<circle cx="347.100000" cy="82.000000" r="1"/>
<line x1="342.100000" y1="87.000000" x2="345.100000" y2="88.000000"  transform="rotate(0.000000,345.100000,88.000000)" style="stroke: black; stroke-width:0.25;"/>
<line x1="342.100000" y1="89.000000" x2="345.100000" y2="88.000000"  transform="rotate(0.000000,345.100000,88.000000)" style="stroke: black; stroke-width:0.25;"/>
<line x1="342.100000" y1="95.000000" x2="345.100000" y2="96.000000"  transform="rotate(0.000000,345.100000,96.000000)" style="stroke: black; stroke-width:0.25;"/>
<line x1="342.100000" y1="97.000000" x2="345.100000" y2="96.000000"  transform="rotate(0.000000,345.100000,96.000000)" style="stroke: black; stroke-width:0.25;"/>
<a xlink:href="SR-0x7fc5e8580320.svg">
<rect x="185.550000" y="169.000000" width="24.000000" height="24.000000" rx="0" ry="0" style="stroke:none;fill:#cccccc;"/>
<rect x="184.550000" y="168.000000" width="24.000000" height="24.000000" rx="0" ry="0" style="stroke:none;fill:#003366;"/>
</a>
<a xlink:href="SR-0x7fc5e8580320.svg">
<text x="196.550000" y="182.000000" font-family="Arial" font-size="7" text-anchor="middle" fill="#FFFFFF">SR</text>
</a>
<circle cx="186.550000" cy="170.000000" r="1"/>
<rect x="386.100000" y="97.000000" width="24.000000" height="24.000000" rx="0" ry="0" style="stroke:none;fill:#cccccc;"/>
<rect x="385.100000" y="96.000000" width="24.000000" height="24.000000" rx="0" ry="0" style="stroke:none;fill:#4B71A1;"/>
<text x="397.100000" y="110.000000" font-family="Arial" font-size="7" text-anchor="middle" fill="#FFFFFF">/</text>
<circle cx="387.100000" cy="98.000000" r="1"/>
<line x1="382.100000" y1="103.000000" x2="385.100000" y2="104.000000"  transform="rotate(0.000000,385.100000,104.000000)" style="stroke: black; stroke-width:0.25;"/>
<line x1="382.100000" y1="105.000000" x2="385.100000" y2="104.000000"  transform="rotate(0.000000,385.100000,104.000000)" style="stroke: black; stroke-width:0.25;"/>
<line x1="382.100000" y1="111.000000" x2="385.100000" y2="112.000000"  transform="rotate(0.000000,385.100000,112.000000)" style="stroke: black; stroke-width:0.25;"/>
<line x1="382.100000" y1="113.000000" x2="385.100000" y2="112.000000"  transform="rotate(0.000000,385.100000,112.000000)" style="stroke: black; stroke-width:0.25;"/>
<rect x="418.100000" y="97.000000" width="24.000000" height="24.000000" rx="0" ry="0" style="stroke:none;fill:#cccccc;"/>
<rect x="417.100000" y="96.000000" width="24.000000" height="24.000000" rx="0" ry="0" style="stroke:none;fill:#4B71A1;"/>
<text x="429.100000" y="110.000000" font-family="Arial" font-size="7" text-anchor="middle" fill="#FFFFFF">tan</text>
<circle cx="419.100000" cy="98.000000" r="1"/>
<line x1="414.100000" y1="107.000000" x2="417.100000" y2="108.000000"  transform="rotate(0.000000,417.100000,108.000000)" style="stroke: black; stroke-width:0.25;"/>
<line x1="414.100000" y1="109.000000" x2="417.100000" y2="108.000000"  transform="rotate(0.000000,417.100000,108.000000)" style="stroke: black; stroke-width:0.25;"/>
<line x1="15.000000" y1="15.000000" x2="15.000000" y2="201.000000"  style="stroke: black; stroke-linecap:round; stroke-width:0.25; stroke-dasharray:3,3;"/>
<line x1="15.000000" y1="201.000000" x2="458.100000" y2="201.000000"  style="stroke: black; stroke-linecap:round; stroke-width:0.25; stroke-dasharray:3,3;"/>
<line x1="458.100000" y1="201.000000" x2="458.100000" y2="15.000000"  style="stroke: black; stroke-linecap:round; stroke-width:0.25; stroke-dasharray:3,3;"/>
<line x1="15.000000" y1="15.000000" x2="20.000000" y2="15.000000"  style="stroke: black; stroke-linecap:round; stroke-width:0.25; stroke-dasharray:3,3;"/>
<line x1="29.675000" y1="15.000000" x2="458.100000" y2="15.000000"  style="stroke: black; stroke-linecap:round; stroke-width:0.25; stroke-dasharray:3,3;"/>
<text x="20.000000" y="17.000000" font-family="Arial" font-size="7">g</text>
<line x1="460.100000" y1="107.000000" x2="463.100000" y2="108.000000"  transform="rotate(0.000000,463.100000,108.000000)" style="stroke: black; stroke-width:0.25;"/>
<line x1="460.100000" y1="109.000000" x2="463.100000" y2="108.000000"  transform="rotate(0.000000,463.100000,108.000000)" style="stroke: black; stroke-width:0.25;"/>
<line x1="195.900000" y1="138.000000" x2="199.900000" y2="138.000000"  style="stroke:black; stroke-linecap:round; stroke-width:0.25;"/>
<line x1="199.900000" y1="138.000000" x2="209.900000" y2="138.000000"  style="stroke:black; stroke-linecap:round; stroke-width:0.25;"/>
<line x1="208.550000" y1="180.000000" x2="212.550000" y2="180.000000"  style="stroke:black; stroke-linecap:round; stroke-width:0.25;"/>
<line x1="209.900000" y1="138.000000" x2="333.100000" y2="138.000000"  style="stroke:black; stroke-linecap:round; stroke-width:0.25;"/>
<line x1="212.550000" y1="180.000000" x2="373.100000" y2="180.000000"  style="stroke:black; stroke-linecap:round; stroke-width:0.25;"/>
<line x1="299.100000" y1="66.000000" x2="303.100000" y2="66.000000"  style="stroke:black; stroke-linecap:round; stroke-width:0.25;"/>
<line x1="303.100000" y1="66.000000" x2="313.100000" y2="66.000000"  style="stroke:black; stroke-linecap:round; stroke-width:0.25;"/>
<line x1="313.100000" y1="66.000000" x2="323.100000" y2="66.000000"  style="stroke:black; stroke-linecap:round; stroke-width:0.25;"/>
<line x1="323.100000" y1="66.000000" x2="333.100000" y2="66.000000"  style="stroke:black; stroke-linecap:round; stroke-width:0.25;"/>
<line x1="333.100000" y1="66.000000" x2="341.100000" y2="66.000000"  style="stroke:black; stroke-linecap:round; stroke-width:0.25;"/>
<line x1="333.100000" y1="96.000000" x2="341.100000" y2="96.000000"  style="stroke:black; stroke-linecap:round; stroke-width:0.25;"/>
<line x1="333.100000" y1="138.000000" x2="333.100000" y2="96.000000"  style="stroke:black; stroke-linecap:round; stroke-width:0.25;"/>
<line x1="333.100000" y1="138.000000" x2="333.100000" y2="138.000000"  style="stroke:black; stroke-linecap:round; stroke-width:0.25;"/>
<line x1="341.100000" y1="66.000000" x2="341.100000" y2="88.000000"  style="stroke:black; stroke-linecap:round; stroke-width:0.25;"/>
<line x1="341.100000" y1="88.000000" x2="341.100000" y2="88.000000"  style="stroke:black; stroke-linecap:round; stroke-width:0.25;"/>
<line x1="341.100000" y1="88.000000" x2="345.100000" y2="88.000000"  style="stroke:black; stroke-linecap:round; stroke-width:0.25;"/>
<line x1="341.100000" y1="96.000000" x2="345.100000" y2="96.000000"  style="stroke:black; stroke-linecap:round; stroke-width:0.25;"/>
<line x1="369.100000" y1="92.000000" x2="373.100000" y2="92.000000"  style="stroke:black; stroke-linecap:round; stroke-width:0.25;"/>
<line x1="373.100000" y1="92.000000" x2="381.100000" y2="92.000000"  style="stroke:black; stroke-linecap:round; stroke-width:0.25;"/>
<line x1="373.100000" y1="112.000000" x2="381.100000" y2="112.000000"  style="stroke:black; stroke-linecap:round; stroke-width:0.25;"/>
<line x1="373.100000" y1="180.000000" x2="373.100000" y2="112.000000"  style="stroke:black; stroke-linecap:round; stroke-width:0.25;"/>
<line x1="373.100000" y1="180.000000" x2="373.100000" y2="180.000000"  style="stroke:black; stroke-linecap:round; stroke-width:0.25;"/>
<line x1="381.100000" y1="92.000000" x2="381.100000" y2="104.000000"  style="stroke:black; stroke-linecap:round; stroke-width:0.25;"/>
<line x1="381.100000" y1="104.000000" x2="381.100000" y2="104.000000"  style="stroke:black; stroke-linecap:round; stroke-width:0.25;"/>
<line x1="381.100000" y1="104.000000" x2="385.100000" y2="104.000000"  style="stroke:black; stroke-linecap:round; stroke-width:0.25;"/>
<line x1="381.100000" y1="112.000000" x2="385.100000" y2="112.000000"  style="stroke:black; stroke-linecap:round; stroke-width:0.25;"/>
<line x1="409.100000" y1="108.000000" x2="413.100000" y2="108.000000"  style="stroke:black; stroke-linecap:round; stroke-width:0.25;"/>
<line x1="413.100000" y1="108.000000" x2="413.100000" y2="108.000000"  style="stroke:black; stroke-linecap:round; stroke-width:0.25;"/>
<line x1="413.100000" y1="108.000000" x2="417.100000" y2="108.000000"  style="stroke:black; stroke-linecap:round; stroke-width:0.25;"/>
<line x1="441.100000" y1="108.000000" x2="445.100000" y2="108.000000"  style="stroke:black; stroke-linecap:round; stroke-width:0.25;"/>
<line x1="445.100000" y1="108.000000" x2="445.100000" y2="108.000000"  style="stroke:black; stroke-linecap:round; stroke-width:0.25;"/>
<line x1="445.100000" y1="108.000000" x2="449.100000" y2="108.000000"  style="stroke:black; stroke-linecap:round; stroke-width:0.25;"/>
<line x1="449.100000" y1="108.000000" x2="453.100000" y2="108.000000"  style="stroke:black; stroke-linecap:round; stroke-width:0.25;"/>
<line x1="453.100000" y1="108.000000" x2="463.100000" y2="108.000000"  style="stroke:black; stroke-linecap:round; stroke-width:0.25;"/>
</svg>
