<?xml version="1.0"?>
<svg xmlns="http://www.w3.org/2000/svg" xmlns:xlink="http://www.w3.org/1999/xlink" viewBox="0 0 440.200000 196.000000" width="220.100000mm" height="98.000000mm" version="1.1">
<a xlink:href="b1-0x7fc5e9061dd0.svg">
<rect x="1.000000" y="1.000000" width="439.200000" height="195.000000" rx="0" ry="0" style="stroke:none;fill:#cccccc;"/>
<rect x="0.000000" y="0.000000" width="439.200000" height="195.000000" rx="0" ry="0" style="stroke:none;fill:#ffffff;"/>
</a>
<text x="10.000000" y="7.000000" font-family="Arial" font-size="7"></text>
<rect x="185.100000" y="25.000000" width="24.000000" height="24.000000" rx="0" ry="0" style="stroke:none;fill:#cccccc;"/>
<rect x="184.100000" y="24.000000" width="24.000000" height="24.000000" rx="0" ry="0" style="stroke:none;fill:#f44800;"/>
<text x="196.100000" y="38.000000" font-family="Arial" font-size="7" text-anchor="middle" fill="#FFFFFF">10</text>
<circle cx="186.100000" cy="26.000000" r="1"/>
<rect x="45.000000" y="77.000000" width="232.200000" height="24.000000" rx="0" ry="0" style="stroke:none;fill:#cccccc;"/>
<rect x="44.000000" y="76.000000" width="232.200000" height="24.000000" rx="0" ry="0" style="stroke:none;fill:#477881;"/>
<text x="160.100000" y="90.000000" font-family="Arial" font-size="7" text-anchor="middle" fill="#FFFFFF">hslider(Peak Boost|Cut, 0.0f, -4e+01f, 4e+01f, 0.1f)</text>
<circle cx="46.000000" cy="78.000000" r="1"/>
<line x1="35.000000" y1="67.000000" x2="35.000000" y2="109.000000"  style="stroke: black; stroke-linecap:round; stroke-width:0.25; stroke-dasharray:3,3;"/>
<line x1="35.000000" y1="109.000000" x2="285.200000" y2="109.000000"  style="stroke: black; stroke-linecap:round; stroke-width:0.25; stroke-dasharray:3,3;"/>
<line x1="285.200000" y1="109.000000" x2="285.200000" y2="67.000000"  style="stroke: black; stroke-linecap:round; stroke-width:0.25; stroke-dasharray:3,3;"/>
<line x1="35.000000" y1="67.000000" x2="40.000000" y2="67.000000"  style="stroke: black; stroke-linecap:round; stroke-width:0.25; stroke-dasharray:3,3;"/>
<line x1="133.525000" y1="67.000000" x2="285.200000" y2="67.000000"  style="stroke: black; stroke-linecap:round; stroke-width:0.25; stroke-dasharray:3,3;"/>
<text x="40.000000" y="69.000000" font-family="Arial" font-size="7">hgroup(Peaking Equalizer 4)</text>
<line x1="25.000000" y1="57.000000" x2="25.000000" y2="119.000000"  style="stroke: black; stroke-linecap:round; stroke-width:0.25; stroke-dasharray:3,3;"/>
<line x1="25.000000" y1="119.000000" x2="295.200000" y2="119.000000"  style="stroke: black; stroke-linecap:round; stroke-width:0.25; stroke-dasharray:3,3;"/>
<line x1="295.200000" y1="119.000000" x2="295.200000" y2="57.000000"  style="stroke: black; stroke-linecap:round; stroke-width:0.25; stroke-dasharray:3,3;"/>
<line x1="25.000000" y1="57.000000" x2="30.000000" y2="57.000000"  style="stroke: black; stroke-linecap:round; stroke-width:0.25; stroke-dasharray:3,3;"/>
<line x1="42.900000" y1="57.000000" x2="295.200000" y2="57.000000"  style="stroke: black; stroke-linecap:round; stroke-width:0.25; stroke-dasharray:3,3;"/>
<text x="30.000000" y="59.000000" font-family="Arial" font-size="7">LP</text>
<rect x="305.200000" y="77.000000" width="24.000000" height="24.000000" rx="0" ry="0" style="stroke:none;fill:#cccccc;"/>
<rect x="304.200000" y="76.000000" width="24.000000" height="24.000000" rx="0" ry="0" style="stroke:none;fill:#4B71A1;"/>
<text x="316.200000" y="90.000000" font-family="Arial" font-size="7" text-anchor="middle" fill="#FFFFFF">abs</text>
<circle cx="306.200000" cy="78.000000" r="1"/>
<line x1="301.200000" y1="87.000000" x2="304.200000" y2="88.000000"  transform="rotate(0.000000,304.200000,88.000000)" style="stroke: black; stroke-width:0.25;"/>
<line x1="301.200000" y1="89.000000" x2="304.200000" y2="88.000000"  transform="rotate(0.000000,304.200000,88.000000)" style="stroke: black; stroke-width:0.25;"/>
<rect x="165.100000" y="139.000000" width="24.000000" height="24.000000" rx="0" ry="0" style="stroke:none;fill:#cccccc;"/>
<rect x="164.100000" y="138.000000" width="24.000000" height="24.000000" rx="0" ry="0" style="stroke:none;fill:#f44800;"/>
<text x="176.100000" y="152.000000" font-family="Arial" font-size="7" text-anchor="middle" fill="#FFFFFF">20</text>
<circle cx="166.100000" cy="140.000000" r="1"/>
<line x1="155.100000" y1="129.000000" x2="155.100000" y2="171.000000"  style="stroke: black; stroke-linecap:round; stroke-width:0.25; stroke-dasharray:3,3;"/>
<line x1="155.100000" y1="171.000000" x2="197.100000" y2="171.000000"  style="stroke: black; stroke-linecap:round; stroke-width:0.25; stroke-dasharray:3,3;"/>
<line x1="197.100000" y1="171.000000" x2="197.100000" y2="129.000000"  style="stroke: black; stroke-linecap:round; stroke-width:0.25; stroke-dasharray:3,3;"/>
<line x1="155.100000" y1="129.000000" x2="160.100000" y2="129.000000"  style="stroke: black; stroke-linecap:round; stroke-width:0.25; stroke-dasharray:3,3;"/>
<line x1="182.675000" y1="129.000000" x2="197.100000" y2="129.000000"  style="stroke: black; stroke-linecap:round; stroke-width:0.25; stroke-dasharray:3,3;"/>
<text x="160.100000" y="131.000000" font-family="Arial" font-size="7">maxGR</text>
<rect x="345.200000" y="103.000000" width="24.000000" height="24.000000" rx="0" ry="0" style="stroke:none;fill:#cccccc;"/>
<rect x="344.200000" y="102.000000" width="24.000000" height="24.000000" rx="0" ry="0" style="stroke:none;fill:#4B71A1;"/>
<text x="356.200000" y="116.000000" font-family="Arial" font-size="7" text-anchor="middle" fill="#FFFFFF">/</text>
<circle cx="346.200000" cy="104.000000" r="1"/>
<line x1="341.200000" y1="109.000000" x2="344.200000" y2="110.000000"  transform="rotate(0.000000,344.200000,110.000000)" style="stroke: black; stroke-width:0.25;"/>
<line x1="341.200000" y1="111.000000" x2="344.200000" y2="110.000000"  transform="rotate(0.000000,344.200000,110.000000)" style="stroke: black; stroke-width:0.25;"/>
<line x1="341.200000" y1="117.000000" x2="344.200000" y2="118.000000"  transform="rotate(0.000000,344.200000,118.000000)" style="stroke: black; stroke-width:0.25;"/>
<line x1="341.200000" y1="119.000000" x2="344.200000" y2="118.000000"  transform="rotate(0.000000,344.200000,118.000000)" style="stroke: black; stroke-width:0.25;"/>
<rect x="385.200000" y="87.000000" width="24.000000" height="24.000000" rx="0" ry="0" style="stroke:none;fill:#cccccc;"/>
<rect x="384.200000" y="86.000000" width="24.000000" height="24.000000" rx="0" ry="0" style="stroke:none;fill:#4B71A1;"/>
<text x="396.200000" y="100.000000" font-family="Arial" font-size="7" text-anchor="middle" fill="#FFFFFF">pow</text>
<circle cx="386.200000" cy="88.000000" r="1"/>
<line x1="381.200000" y1="93.000000" x2="384.200000" y2="94.000000"  transform="rotate(0.000000,384.200000,94.000000)" style="stroke: black; stroke-width:0.25;"/>
<line x1="381.200000" y1="95.000000" x2="384.200000" y2="94.000000"  transform="rotate(0.000000,384.200000,94.000000)" style="stroke: black; stroke-width:0.25;"/>
<line x1="381.200000" y1="101.000000" x2="384.200000" y2="102.000000"  transform="rotate(0.000000,384.200000,102.000000)" style="stroke: black; stroke-width:0.25;"/>
<line x1="381.200000" y1="103.000000" x2="384.200000" y2="102.000000"  transform="rotate(0.000000,384.200000,102.000000)" style="stroke: black; stroke-width:0.25;"/>
<line x1="15.000000" y1="15.000000" x2="15.000000" y2="181.000000"  style="stroke: black; stroke-linecap:round; stroke-width:0.25; stroke-dasharray:3,3;"/>
<line x1="15.000000" y1="181.000000" x2="425.200000" y2="181.000000"  style="stroke: black; stroke-linecap:round; stroke-width:0.25; stroke-dasharray:3,3;"/>
<line x1="425.200000" y1="181.000000" x2="425.200000" y2="15.000000"  style="stroke: black; stroke-linecap:round; stroke-width:0.25; stroke-dasharray:3,3;"/>
<line x1="15.000000" y1="15.000000" x2="20.000000" y2="15.000000"  style="stroke: black; stroke-linecap:round; stroke-width:0.25; stroke-dasharray:3,3;"/>
<line x1="29.675000" y1="15.000000" x2="425.200000" y2="15.000000"  style="stroke: black; stroke-linecap:round; stroke-width:0.25; stroke-dasharray:3,3;"/>
<text x="20.000000" y="17.000000" font-family="Arial" font-size="7">g</text>
<line x1="427.200000" y1="97.000000" x2="430.200000" y2="98.000000"  transform="rotate(0.000000,430.200000,98.000000)" style="stroke: black; stroke-width:0.25;"/>
<line x1="427.200000" y1="99.000000" x2="430.200000" y2="98.000000"  transform="rotate(0.000000,430.200000,98.000000)" style="stroke: black; stroke-width:0.25;"/>
<line x1="188.100000" y1="150.000000" x2="192.100000" y2="150.000000"  style="stroke:black; stroke-linecap:round; stroke-width:0.25;"/>
<line x1="192.100000" y1="150.000000" x2="202.100000" y2="150.000000"  style="stroke:black; stroke-linecap:round; stroke-width:0.25;"/>
<line x1="202.100000" y1="150.000000" x2="332.200000" y2="150.000000"  style="stroke:black; stroke-linecap:round; stroke-width:0.25;"/>
<line x1="208.100000" y1="36.000000" x2="212.100000" y2="36.000000"  style="stroke:black; stroke-linecap:round; stroke-width:0.25;"/>
<line x1="212.100000" y1="36.000000" x2="372.200000" y2="36.000000"  style="stroke:black; stroke-linecap:round; stroke-width:0.25;"/>
<line x1="276.200000" y1="88.000000" x2="280.200000" y2="88.000000"  style="stroke:black; stroke-linecap:round; stroke-width:0.25;"/>
<line x1="280.200000" y1="88.000000" x2="290.200000" y2="88.000000"  style="stroke:black; stroke-linecap:round; stroke-width:0.25;"/>
<line x1="290.200000" y1="88.000000" x2="300.200000" y2="88.000000"  style="stroke:black; stroke-linecap:round; stroke-width:0.25;"/>
<line x1="300.200000" y1="88.000000" x2="300.200000" y2="88.000000"  style="stroke:black; stroke-linecap:round; stroke-width:0.25;"/>
<line x1="300.200000" y1="88.000000" x2="304.200000" y2="88.000000"  style="stroke:black; stroke-linecap:round; stroke-width:0.25;"/>
<line x1="328.200000" y1="88.000000" x2="332.200000" y2="88.000000"  style="stroke:black; stroke-linecap:round; stroke-width:0.25;"/>
<line x1="332.200000" y1="88.000000" x2="340.200000" y2="88.000000"  style="stroke:black; stroke-linecap:round; stroke-width:0.25;"/>
<line x1="332.200000" y1="118.000000" x2="340.200000" y2="118.000000"  style="stroke:black; stroke-linecap:round; stroke-width:0.25;"/>
<line x1="332.200000" y1="150.000000" x2="332.200000" y2="118.000000"  style="stroke:black; stroke-linecap:round; stroke-width:0.25;"/>
<line x1="332.200000" y1="150.000000" x2="332.200000" y2="150.000000"  style="stroke:black; stroke-linecap:round; stroke-width:0.25;"/>
<line x1="340.200000" y1="88.000000" x2="340.200000" y2="110.000000"  style="stroke:black; stroke-linecap:round; stroke-width:0.25;"/>
<line x1="340.200000" y1="110.000000" x2="340.200000" y2="110.000000"  style="stroke:black; stroke-linecap:round; stroke-width:0.25;"/>
<line x1="340.200000" y1="110.000000" x2="344.200000" y2="110.000000"  style="stroke:black; stroke-linecap:round; stroke-width:0.25;"/>
<line x1="340.200000" y1="118.000000" x2="344.200000" y2="118.000000"  style="stroke:black; stroke-linecap:round; stroke-width:0.25;"/>
<line x1="368.200000" y1="114.000000" x2="372.200000" y2="114.000000"  style="stroke:black; stroke-linecap:round; stroke-width:0.25;"/>
<line x1="372.200000" y1="36.000000" x2="380.200000" y2="36.000000"  style="stroke:black; stroke-linecap:round; stroke-width:0.25;"/>
<line x1="372.200000" y1="102.000000" x2="380.200000" y2="102.000000"  style="stroke:black; stroke-linecap:round; stroke-width:0.25;"/>
<line x1="372.200000" y1="114.000000" x2="372.200000" y2="102.000000"  style="stroke:black; stroke-linecap:round; stroke-width:0.25;"/>
<line x1="372.200000" y1="114.000000" x2="372.200000" y2="114.000000"  style="stroke:black; stroke-linecap:round; stroke-width:0.25;"/>
<line x1="380.200000" y1="36.000000" x2="380.200000" y2="94.000000"  style="stroke:black; stroke-linecap:round; stroke-width:0.25;"/>
<line x1="380.200000" y1="94.000000" x2="380.200000" y2="94.000000"  style="stroke:black; stroke-linecap:round; stroke-width:0.25;"/>
<line x1="380.200000" y1="94.000000" x2="384.200000" y2="94.000000"  style="stroke:black; stroke-linecap:round; stroke-width:0.25;"/>
<line x1="380.200000" y1="102.000000" x2="384.200000" y2="102.000000"  style="stroke:black; stroke-linecap:round; stroke-width:0.25;"/>
<line x1="408.200000" y1="98.000000" x2="412.200000" y2="98.000000"  style="stroke:black; stroke-linecap:round; stroke-width:0.25;"/>
<line x1="412.200000" y1="98.000000" x2="412.200000" y2="98.000000"  style="stroke:black; stroke-linecap:round; stroke-width:0.25;"/>
<line x1="412.200000" y1="98.000000" x2="416.200000" y2="98.000000"  style="stroke:black; stroke-linecap:round; stroke-width:0.25;"/>
<line x1="416.200000" y1="98.000000" x2="420.200000" y2="98.000000"  style="stroke:black; stroke-linecap:round; stroke-width:0.25;"/>
<line x1="420.200000" y1="98.000000" x2="430.200000" y2="98.000000"  style="stroke:black; stroke-linecap:round; stroke-width:0.25;"/>
</svg>
