<?xml version="1.0"?>
<svg xmlns="http://www.w3.org/2000/svg" xmlns:xlink="http://www.w3.org/1999/xlink" viewBox="0 0 430.400000 208.000000" width="215.200000mm" height="104.000000mm" version="1.1">
<a xlink:href="FFcompressor-0x7fc5e99ad5b0.svg">
<rect x="1.000000" y="1.000000" width="429.400000" height="207.000000" rx="0" ry="0" style="stroke:none;fill:#cccccc;"/>
<rect x="0.000000" y="0.000000" width="429.400000" height="207.000000" rx="0" ry="0" style="stroke:none;fill:#ffffff;"/>
</a>
<text x="10.000000" y="7.000000" font-family="Arial" font-size="7"></text>
<rect x="41.000000" y="77.000000" width="24.000000" height="24.000000" rx="0" ry="0" style="stroke:none;fill:#cccccc;"/>
<rect x="40.000000" y="76.000000" width="24.000000" height="24.000000" rx="0" ry="0" style="stroke:none;fill:#47945E;"/>
<text x="52.000000" y="90.000000" font-family="Arial" font-size="7" text-anchor="middle" fill="#FFFFFF">v0</text>
<circle cx="42.000000" cy="78.000000" r="1"/>
<line x1="37.000000" y1="87.000000" x2="40.000000" y2="88.000000"  transform="rotate(0.000000,40.000000,88.000000)" style="stroke: black; stroke-width:0.25;"/>
<line x1="37.000000" y1="89.000000" x2="40.000000" y2="88.000000"  transform="rotate(0.000000,40.000000,88.000000)" style="stroke: black; stroke-width:0.25;"/>
<rect x="41.000000" y="109.000000" width="24.000000" height="24.000000" rx="0" ry="0" style="stroke:none;fill:#cccccc;"/>
<rect x="40.000000" y="108.000000" width="24.000000" height="24.000000" rx="0" ry="0" style="stroke:none;fill:#47945E;"/>
<text x="52.000000" y="122.000000" font-family="Arial" font-size="7" text-anchor="middle" fill="#FFFFFF">v1</text>
<circle cx="42.000000" cy="110.000000" r="1"/>
<line x1="37.000000" y1="119.000000" x2="40.000000" y2="120.000000"  transform="rotate(0.000000,40.000000,120.000000)" style="stroke: black; stroke-width:0.25;"/>
<line x1="37.000000" y1="121.000000" x2="40.000000" y2="120.000000"  transform="rotate(0.000000,40.000000,120.000000)" style="stroke: black; stroke-width:0.25;"/>
<rect x="204.200000" y="25.000000" width="24.000000" height="24.000000" rx="0" ry="0" style="stroke:none;fill:#cccccc;"/>
<rect x="203.200000" y="24.000000" width="24.000000" height="24.000000" rx="0" ry="0" style="stroke:none;fill:#47945E;"/>
<text x="215.200000" y="38.000000" font-family="Arial" font-size="7" text-anchor="middle" fill="#FFFFFF">v0</text>
<circle cx="205.200000" cy="26.000000" r="1"/>
<rect x="93.000000" y="77.000000" width="206.400000" height="24.000000" rx="0" ry="0" style="stroke:none;fill:#cccccc;"/>
<rect x="92.000000" y="76.000000" width="206.400000" height="24.000000" rx="0" ry="0" style="stroke:none;fill:#477881;"/>
<text x="195.200000" y="90.000000" font-family="Arial" font-size="7" text-anchor="middle" fill="#FFFFFF">hslider(Stereo Link, 1.0f, 0.0f, 1.0f, 0.005f)</text>
<circle cx="94.000000" cy="78.000000" r="1"/>
<line x1="83.000000" y1="67.000000" x2="83.000000" y2="109.000000"  style="stroke: black; stroke-linecap:round; stroke-width:0.25; stroke-dasharray:3,3;"/>
<line x1="83.000000" y1="109.000000" x2="307.400000" y2="109.000000"  style="stroke: black; stroke-linecap:round; stroke-width:0.25; stroke-dasharray:3,3;"/>
<line x1="307.400000" y1="109.000000" x2="307.400000" y2="67.000000"  style="stroke: black; stroke-linecap:round; stroke-width:0.25; stroke-dasharray:3,3;"/>
<line x1="83.000000" y1="67.000000" x2="88.000000" y2="67.000000"  style="stroke: black; stroke-linecap:round; stroke-width:0.25; stroke-dasharray:3,3;"/>
<line x1="178.300000" y1="67.000000" x2="307.400000" y2="67.000000"  style="stroke: black; stroke-linecap:round; stroke-width:0.25; stroke-dasharray:3,3;"/>
<text x="88.000000" y="69.000000" font-family="Arial" font-size="7">vgroup(Low-end Compressor)</text>
<line x1="73.000000" y1="57.000000" x2="73.000000" y2="119.000000"  style="stroke: black; stroke-linecap:round; stroke-width:0.25; stroke-dasharray:3,3;"/>
<line x1="73.000000" y1="119.000000" x2="317.400000" y2="119.000000"  style="stroke: black; stroke-linecap:round; stroke-width:0.25; stroke-dasharray:3,3;"/>
<line x1="317.400000" y1="119.000000" x2="317.400000" y2="57.000000"  style="stroke: black; stroke-linecap:round; stroke-width:0.25; stroke-dasharray:3,3;"/>
<line x1="73.000000" y1="57.000000" x2="78.000000" y2="57.000000"  style="stroke: black; stroke-linecap:round; stroke-width:0.25; stroke-dasharray:3,3;"/>
<line x1="116.700000" y1="57.000000" x2="317.400000" y2="57.000000"  style="stroke: black; stroke-linecap:round; stroke-width:0.25; stroke-dasharray:3,3;"/>
<text x="78.000000" y="59.000000" font-family="Arial" font-size="7">StereoLink</text>
<rect x="164.200000" y="129.000000" width="24.000000" height="24.000000" rx="0" ry="0" style="stroke:none;fill:#cccccc;"/>
<rect x="163.200000" y="128.000000" width="24.000000" height="24.000000" rx="0" ry="0" style="stroke:none;fill:#47945E;"/>
<text x="175.200000" y="142.000000" font-family="Arial" font-size="7" text-anchor="middle" fill="#FFFFFF">v1</text>
<circle cx="165.200000" cy="130.000000" r="1"/>
<rect x="164.200000" y="161.000000" width="24.000000" height="24.000000" rx="0" ry="0" style="stroke:none;fill:#cccccc;"/>
<rect x="163.200000" y="160.000000" width="24.000000" height="24.000000" rx="0" ry="0" style="stroke:none;fill:#47945E;"/>
<text x="175.200000" y="174.000000" font-family="Arial" font-size="7" text-anchor="middle" fill="#FFFFFF">v0</text>
<circle cx="165.200000" cy="162.000000" r="1"/>
<rect x="204.200000" y="145.000000" width="24.000000" height="24.000000" rx="0" ry="0" style="stroke:none;fill:#cccccc;"/>
<rect x="203.200000" y="144.000000" width="24.000000" height="24.000000" rx="0" ry="0" style="stroke:none;fill:#4B71A1;"/>
<text x="215.200000" y="158.000000" font-family="Arial" font-size="7" text-anchor="middle" fill="#FFFFFF">-</text>
<circle cx="205.200000" cy="146.000000" r="1"/>
<line x1="200.200000" y1="151.000000" x2="203.200000" y2="152.000000"  transform="rotate(0.000000,203.200000,152.000000)" style="stroke: black; stroke-width:0.25;"/>
<line x1="200.200000" y1="153.000000" x2="203.200000" y2="152.000000"  transform="rotate(0.000000,203.200000,152.000000)" style="stroke: black; stroke-width:0.25;"/>
<line x1="200.200000" y1="159.000000" x2="203.200000" y2="160.000000"  transform="rotate(0.000000,203.200000,160.000000)" style="stroke: black; stroke-width:0.25;"/>
<line x1="200.200000" y1="161.000000" x2="203.200000" y2="160.000000"  transform="rotate(0.000000,203.200000,160.000000)" style="stroke: black; stroke-width:0.25;"/>
<rect x="335.400000" y="109.000000" width="24.000000" height="24.000000" rx="0" ry="0" style="stroke:none;fill:#cccccc;"/>
<rect x="334.400000" y="108.000000" width="24.000000" height="24.000000" rx="0" ry="0" style="stroke:none;fill:#4B71A1;"/>
<text x="346.400000" y="122.000000" font-family="Arial" font-size="7" text-anchor="middle" fill="#FFFFFF">*</text>
<circle cx="336.400000" cy="110.000000" r="1"/>
<line x1="331.400000" y1="115.000000" x2="334.400000" y2="116.000000"  transform="rotate(0.000000,334.400000,116.000000)" style="stroke: black; stroke-width:0.25;"/>
<line x1="331.400000" y1="117.000000" x2="334.400000" y2="116.000000"  transform="rotate(0.000000,334.400000,116.000000)" style="stroke: black; stroke-width:0.25;"/>
<line x1="331.400000" y1="123.000000" x2="334.400000" y2="124.000000"  transform="rotate(0.000000,334.400000,124.000000)" style="stroke: black; stroke-width:0.25;"/>
<line x1="331.400000" y1="125.000000" x2="334.400000" y2="124.000000"  transform="rotate(0.000000,334.400000,124.000000)" style="stroke: black; stroke-width:0.25;"/>
<rect x="375.400000" y="93.000000" width="24.000000" height="24.000000" rx="0" ry="0" style="stroke:none;fill:#cccccc;"/>
<rect x="374.400000" y="92.000000" width="24.000000" height="24.000000" rx="0" ry="0" style="stroke:none;fill:#4B71A1;"/>
<text x="386.400000" y="106.000000" font-family="Arial" font-size="7" text-anchor="middle" fill="#FFFFFF">+</text>
<circle cx="376.400000" cy="94.000000" r="1"/>
<line x1="371.400000" y1="99.000000" x2="374.400000" y2="100.000000"  transform="rotate(0.000000,374.400000,100.000000)" style="stroke: black; stroke-width:0.25;"/>
<line x1="371.400000" y1="101.000000" x2="374.400000" y2="100.000000"  transform="rotate(0.000000,374.400000,100.000000)" style="stroke: black; stroke-width:0.25;"/>
<line x1="371.400000" y1="107.000000" x2="374.400000" y2="108.000000"  transform="rotate(0.000000,374.400000,108.000000)" style="stroke: black; stroke-width:0.25;"/>
<line x1="371.400000" y1="109.000000" x2="374.400000" y2="108.000000"  transform="rotate(0.000000,374.400000,108.000000)" style="stroke: black; stroke-width:0.25;"/>
<line x1="15.000000" y1="15.000000" x2="15.000000" y2="193.000000"  style="stroke: black; stroke-linecap:round; stroke-width:0.25; stroke-dasharray:3,3;"/>
<line x1="15.000000" y1="193.000000" x2="415.400000" y2="193.000000"  style="stroke: black; stroke-linecap:round; stroke-width:0.25; stroke-dasharray:3,3;"/>
<line x1="415.400000" y1="193.000000" x2="415.400000" y2="15.000000"  style="stroke: black; stroke-linecap:round; stroke-width:0.25; stroke-dasharray:3,3;"/>
<line x1="15.000000" y1="15.000000" x2="20.000000" y2="15.000000"  style="stroke: black; stroke-linecap:round; stroke-width:0.25; stroke-dasharray:3,3;"/>
<line x1="119.975000" y1="15.000000" x2="415.400000" y2="15.000000"  style="stroke: black; stroke-linecap:round; stroke-width:0.25; stroke-dasharray:3,3;"/>
<text x="20.000000" y="17.000000" font-family="Arial" font-size="7">interpolate_l...0f, 0.005f)))</text>
<line x1="417.400000" y1="103.000000" x2="420.400000" y2="104.000000"  transform="rotate(0.000000,420.400000,104.000000)" style="stroke: black; stroke-width:0.25;"/>
<line x1="417.400000" y1="105.000000" x2="420.400000" y2="104.000000"  transform="rotate(0.000000,420.400000,104.000000)" style="stroke: black; stroke-width:0.25;"/>
<line x1="10.000000" y1="100.000000" x2="20.000000" y2="100.000000"  style="stroke:black; stroke-linecap:round; stroke-width:0.25;"/>
<line x1="10.000000" y1="108.000000" x2="20.000000" y2="108.000000"  style="stroke:black; stroke-linecap:round; stroke-width:0.25;"/>
<line x1="20.000000" y1="100.000000" x2="24.000000" y2="100.000000"  style="stroke:black; stroke-linecap:round; stroke-width:0.25;"/>
<line x1="20.000000" y1="108.000000" x2="24.000000" y2="108.000000"  style="stroke:black; stroke-linecap:round; stroke-width:0.25;"/>
<line x1="24.000000" y1="100.000000" x2="28.000000" y2="100.000000"  style="stroke:black; stroke-linecap:round; stroke-width:0.25;"/>
<line x1="24.000000" y1="108.000000" x2="28.000000" y2="108.000000"  style="stroke:black; stroke-linecap:round; stroke-width:0.25;"/>
<line x1="28.000000" y1="88.000000" x2="36.000000" y2="88.000000"  style="stroke:black; stroke-linecap:round; stroke-width:0.25;"/>
<line x1="28.000000" y1="100.000000" x2="28.000000" y2="88.000000"  style="stroke:black; stroke-linecap:round; stroke-width:0.25;"/>
<line x1="28.000000" y1="100.000000" x2="28.000000" y2="100.000000"  style="stroke:black; stroke-linecap:round; stroke-width:0.25;"/>
<line x1="28.000000" y1="108.000000" x2="36.000000" y2="108.000000"  style="stroke:black; stroke-linecap:round; stroke-width:0.25;"/>
<line x1="36.000000" y1="88.000000" x2="40.000000" y2="88.000000"  style="stroke:black; stroke-linecap:round; stroke-width:0.25;"/>
<line x1="36.000000" y1="108.000000" x2="36.000000" y2="120.000000"  style="stroke:black; stroke-linecap:round; stroke-width:0.25;"/>
<line x1="36.000000" y1="120.000000" x2="36.000000" y2="120.000000"  style="stroke:black; stroke-linecap:round; stroke-width:0.25;"/>
<line x1="36.000000" y1="120.000000" x2="40.000000" y2="120.000000"  style="stroke:black; stroke-linecap:round; stroke-width:0.25;"/>
<line x1="187.200000" y1="140.000000" x2="191.200000" y2="140.000000"  style="stroke:black; stroke-linecap:round; stroke-width:0.25;"/>
<line x1="187.200000" y1="172.000000" x2="191.200000" y2="172.000000"  style="stroke:black; stroke-linecap:round; stroke-width:0.25;"/>
<line x1="191.200000" y1="140.000000" x2="199.200000" y2="140.000000"  style="stroke:black; stroke-linecap:round; stroke-width:0.25;"/>
<line x1="191.200000" y1="160.000000" x2="199.200000" y2="160.000000"  style="stroke:black; stroke-linecap:round; stroke-width:0.25;"/>
<line x1="191.200000" y1="172.000000" x2="191.200000" y2="160.000000"  style="stroke:black; stroke-linecap:round; stroke-width:0.25;"/>
<line x1="191.200000" y1="172.000000" x2="191.200000" y2="172.000000"  style="stroke:black; stroke-linecap:round; stroke-width:0.25;"/>
<line x1="199.200000" y1="140.000000" x2="199.200000" y2="152.000000"  style="stroke:black; stroke-linecap:round; stroke-width:0.25;"/>
<line x1="199.200000" y1="152.000000" x2="199.200000" y2="152.000000"  style="stroke:black; stroke-linecap:round; stroke-width:0.25;"/>
<line x1="199.200000" y1="152.000000" x2="203.200000" y2="152.000000"  style="stroke:black; stroke-linecap:round; stroke-width:0.25;"/>
<line x1="199.200000" y1="160.000000" x2="203.200000" y2="160.000000"  style="stroke:black; stroke-linecap:round; stroke-width:0.25;"/>
<line x1="227.200000" y1="36.000000" x2="231.200000" y2="36.000000"  style="stroke:black; stroke-linecap:round; stroke-width:0.25;"/>
<line x1="227.200000" y1="156.000000" x2="231.200000" y2="156.000000"  style="stroke:black; stroke-linecap:round; stroke-width:0.25;"/>
<line x1="231.200000" y1="36.000000" x2="362.400000" y2="36.000000"  style="stroke:black; stroke-linecap:round; stroke-width:0.25;"/>
<line x1="231.200000" y1="156.000000" x2="322.400000" y2="156.000000"  style="stroke:black; stroke-linecap:round; stroke-width:0.25;"/>
<line x1="298.400000" y1="88.000000" x2="302.400000" y2="88.000000"  style="stroke:black; stroke-linecap:round; stroke-width:0.25;"/>
<line x1="302.400000" y1="88.000000" x2="312.400000" y2="88.000000"  style="stroke:black; stroke-linecap:round; stroke-width:0.25;"/>
<line x1="312.400000" y1="88.000000" x2="322.400000" y2="88.000000"  style="stroke:black; stroke-linecap:round; stroke-width:0.25;"/>
<line x1="322.400000" y1="88.000000" x2="330.400000" y2="88.000000"  style="stroke:black; stroke-linecap:round; stroke-width:0.25;"/>
<line x1="322.400000" y1="124.000000" x2="330.400000" y2="124.000000"  style="stroke:black; stroke-linecap:round; stroke-width:0.25;"/>
<line x1="322.400000" y1="156.000000" x2="322.400000" y2="124.000000"  style="stroke:black; stroke-linecap:round; stroke-width:0.25;"/>
<line x1="322.400000" y1="156.000000" x2="322.400000" y2="156.000000"  style="stroke:black; stroke-linecap:round; stroke-width:0.25;"/>
<line x1="330.400000" y1="88.000000" x2="330.400000" y2="116.000000"  style="stroke:black; stroke-linecap:round; stroke-width:0.25;"/>
<line x1="330.400000" y1="116.000000" x2="330.400000" y2="116.000000"  style="stroke:black; stroke-linecap:round; stroke-width:0.25;"/>
<line x1="330.400000" y1="116.000000" x2="334.400000" y2="116.000000"  style="stroke:black; stroke-linecap:round; stroke-width:0.25;"/>
<line x1="330.400000" y1="124.000000" x2="334.400000" y2="124.000000"  style="stroke:black; stroke-linecap:round; stroke-width:0.25;"/>
<line x1="358.400000" y1="120.000000" x2="362.400000" y2="120.000000"  style="stroke:black; stroke-linecap:round; stroke-width:0.25;"/>
<line x1="362.400000" y1="36.000000" x2="370.400000" y2="36.000000"  style="stroke:black; stroke-linecap:round; stroke-width:0.25;"/>
<line x1="362.400000" y1="108.000000" x2="370.400000" y2="108.000000"  style="stroke:black; stroke-linecap:round; stroke-width:0.25;"/>
<line x1="362.400000" y1="120.000000" x2="362.400000" y2="108.000000"  style="stroke:black; stroke-linecap:round; stroke-width:0.25;"/>
<line x1="362.400000" y1="120.000000" x2="362.400000" y2="120.000000"  style="stroke:black; stroke-linecap:round; stroke-width:0.25;"/>
<line x1="370.400000" y1="36.000000" x2="370.400000" y2="100.000000"  style="stroke:black; stroke-linecap:round; stroke-width:0.25;"/>
<line x1="370.400000" y1="100.000000" x2="370.400000" y2="100.000000"  style="stroke:black; stroke-linecap:round; stroke-width:0.25;"/>
<line x1="370.400000" y1="100.000000" x2="374.400000" y2="100.000000"  style="stroke:black; stroke-linecap:round; stroke-width:0.25;"/>
<line x1="370.400000" y1="108.000000" x2="374.400000" y2="108.000000"  style="stroke:black; stroke-linecap:round; stroke-width:0.25;"/>
<line x1="398.400000" y1="104.000000" x2="402.400000" y2="104.000000"  style="stroke:black; stroke-linecap:round; stroke-width:0.25;"/>
<line x1="402.400000" y1="104.000000" x2="402.400000" y2="104.000000"  style="stroke:black; stroke-linecap:round; stroke-width:0.25;"/>
<line x1="402.400000" y1="104.000000" x2="406.400000" y2="104.000000"  style="stroke:black; stroke-linecap:round; stroke-width:0.25;"/>
<line x1="406.400000" y1="104.000000" x2="410.400000" y2="104.000000"  style="stroke:black; stroke-linecap:round; stroke-width:0.25;"/>
<line x1="410.400000" y1="104.000000" x2="420.400000" y2="104.000000"  style="stroke:black; stroke-linecap:round; stroke-width:0.25;"/>
</svg>
