<?xml version="1.0"?>
<svg xmlns="http://www.w3.org/2000/svg" xmlns:xlink="http://www.w3.org/1999/xlink" viewBox="0 0 281.400000 176.000000" width="140.700000mm" height="88.000000mm" version="1.1">
<a xlink:href="peak-0x7fc5e999a320.svg">
<rect x="1.000000" y="1.000000" width="280.400000" height="175.000000" rx="0" ry="0" style="stroke:none;fill:#cccccc;"/>
<rect x="0.000000" y="0.000000" width="280.400000" height="175.000000" rx="0" ry="0" style="stroke:none;fill:#ffffff;"/>
</a>
<text x="10.000000" y="7.000000" font-family="Arial" font-size="7"></text>
<rect x="33.000000" y="77.000000" width="24.000000" height="24.000000" rx="0" ry="0" style="stroke:none;fill:#cccccc;"/>
<rect x="32.000000" y="76.000000" width="24.000000" height="24.000000" rx="0" ry="0" style="stroke:none;fill:#47945E;"/>
<text x="44.000000" y="90.000000" font-family="Arial" font-size="7" text-anchor="middle" fill="#FFFFFF">g</text>
<circle cx="34.000000" cy="78.000000" r="1"/>
<line x1="29.000000" y1="87.000000" x2="32.000000" y2="88.000000"  transform="rotate(0.000000,32.000000,88.000000)" style="stroke: black; stroke-width:0.25;"/>
<line x1="29.000000" y1="89.000000" x2="32.000000" y2="88.000000"  transform="rotate(0.000000,32.000000,88.000000)" style="stroke: black; stroke-width:0.25;"/>
<rect x="125.700000" y="35.000000" width="24.000000" height="24.000000" rx="0" ry="0" style="stroke:none;fill:#cccccc;"/>
<rect x="124.700000" y="34.000000" width="24.000000" height="24.000000" rx="0" ry="0" style="stroke:none;fill:#f44800;"/>
<text x="136.700000" y="48.000000" font-family="Arial" font-size="7" text-anchor="middle" fill="#FFFFFF">20</text>
<circle cx="126.700000" cy="36.000000" r="1"/>
<line x1="115.700000" y1="25.000000" x2="115.700000" y2="67.000000"  style="stroke: black; stroke-linecap:round; stroke-width:0.25; stroke-dasharray:3,3;"/>
<line x1="115.700000" y1="67.000000" x2="157.700000" y2="67.000000"  style="stroke: black; stroke-linecap:round; stroke-width:0.25; stroke-dasharray:3,3;"/>
<line x1="157.700000" y1="67.000000" x2="157.700000" y2="25.000000"  style="stroke: black; stroke-linecap:round; stroke-width:0.25; stroke-dasharray:3,3;"/>
<line x1="115.700000" y1="25.000000" x2="120.700000" y2="25.000000"  style="stroke: black; stroke-linecap:round; stroke-width:0.25; stroke-dasharray:3,3;"/>
<line x1="143.275000" y1="25.000000" x2="157.700000" y2="25.000000"  style="stroke: black; stroke-linecap:round; stroke-width:0.25; stroke-dasharray:3,3;"/>
<text x="120.700000" y="27.000000" font-family="Arial" font-size="7">maxGR</text>
<rect x="75.000000" y="87.000000" width="51.600000" height="24.000000" rx="0" ry="0" style="stroke:none;fill:#cccccc;"/>
<rect x="74.000000" y="86.000000" width="51.600000" height="24.000000" rx="0" ry="0" style="stroke:none;fill:#f44800;"/>
<text x="99.800000" y="100.000000" font-family="Arial" font-size="7" text-anchor="middle" fill="#FFFFFF">1.17549e-38</text>
<circle cx="76.000000" cy="88.000000" r="1"/>
<line x1="65.000000" y1="77.000000" x2="65.000000" y2="119.000000"  style="stroke: black; stroke-linecap:round; stroke-width:0.25; stroke-dasharray:3,3;"/>
<line x1="65.000000" y1="119.000000" x2="134.600000" y2="119.000000"  style="stroke: black; stroke-linecap:round; stroke-width:0.25; stroke-dasharray:3,3;"/>
<line x1="134.600000" y1="119.000000" x2="134.600000" y2="77.000000"  style="stroke: black; stroke-linecap:round; stroke-width:0.25; stroke-dasharray:3,3;"/>
<line x1="65.000000" y1="77.000000" x2="70.000000" y2="77.000000"  style="stroke: black; stroke-linecap:round; stroke-width:0.25; stroke-dasharray:3,3;"/>
<line x1="86.125000" y1="77.000000" x2="134.600000" y2="77.000000"  style="stroke: black; stroke-linecap:round; stroke-width:0.25; stroke-dasharray:3,3;"/>
<text x="70.000000" y="79.000000" font-family="Arial" font-size="7">MIN</text>
<rect x="88.800000" y="129.000000" width="24.000000" height="24.000000" rx="0" ry="0" style="stroke:none;fill:#cccccc;"/>
<rect x="87.800000" y="128.000000" width="24.000000" height="24.000000" rx="0" ry="0" style="stroke:none;fill:#47945E;"/>
<text x="99.800000" y="142.000000" font-family="Arial" font-size="7" text-anchor="middle" fill="#FFFFFF">g</text>
<circle cx="89.800000" cy="130.000000" r="1"/>
<rect x="152.600000" y="103.000000" width="24.000000" height="24.000000" rx="0" ry="0" style="stroke:none;fill:#cccccc;"/>
<rect x="151.600000" y="102.000000" width="24.000000" height="24.000000" rx="0" ry="0" style="stroke:none;fill:#4B71A1;"/>
<text x="163.600000" y="116.000000" font-family="Arial" font-size="7" text-anchor="middle" fill="#FFFFFF">max</text>
<circle cx="153.600000" cy="104.000000" r="1"/>
<line x1="148.600000" y1="109.000000" x2="151.600000" y2="110.000000"  transform="rotate(0.000000,151.600000,110.000000)" style="stroke: black; stroke-width:0.25;"/>
<line x1="148.600000" y1="111.000000" x2="151.600000" y2="110.000000"  transform="rotate(0.000000,151.600000,110.000000)" style="stroke: black; stroke-width:0.25;"/>
<line x1="148.600000" y1="117.000000" x2="151.600000" y2="118.000000"  transform="rotate(0.000000,151.600000,118.000000)" style="stroke: black; stroke-width:0.25;"/>
<line x1="148.600000" y1="119.000000" x2="151.600000" y2="118.000000"  transform="rotate(0.000000,151.600000,118.000000)" style="stroke: black; stroke-width:0.25;"/>
<rect x="184.600000" y="103.000000" width="25.800000" height="24.000000" rx="0" ry="0" style="stroke:none;fill:#cccccc;"/>
<rect x="183.600000" y="102.000000" width="25.800000" height="24.000000" rx="0" ry="0" style="stroke:none;fill:#4B71A1;"/>
<text x="196.500000" y="116.000000" font-family="Arial" font-size="7" text-anchor="middle" fill="#FFFFFF">log10</text>
<circle cx="185.600000" cy="104.000000" r="1"/>
<line x1="180.600000" y1="113.000000" x2="183.600000" y2="114.000000"  transform="rotate(0.000000,183.600000,114.000000)" style="stroke: black; stroke-width:0.25;"/>
<line x1="180.600000" y1="115.000000" x2="183.600000" y2="114.000000"  transform="rotate(0.000000,183.600000,114.000000)" style="stroke: black; stroke-width:0.25;"/>
<rect x="226.400000" y="77.000000" width="24.000000" height="24.000000" rx="0" ry="0" style="stroke:none;fill:#cccccc;"/>
<rect x="225.400000" y="76.000000" width="24.000000" height="24.000000" rx="0" ry="0" style="stroke:none;fill:#4B71A1;"/>
<text x="237.400000" y="90.000000" font-family="Arial" font-size="7" text-anchor="middle" fill="#FFFFFF">*</text>
<circle cx="227.400000" cy="78.000000" r="1"/>
<line x1="222.400000" y1="83.000000" x2="225.400000" y2="84.000000"  transform="rotate(0.000000,225.400000,84.000000)" style="stroke: black; stroke-width:0.25;"/>
<line x1="222.400000" y1="85.000000" x2="225.400000" y2="84.000000"  transform="rotate(0.000000,225.400000,84.000000)" style="stroke: black; stroke-width:0.25;"/>
<line x1="222.400000" y1="91.000000" x2="225.400000" y2="92.000000"  transform="rotate(0.000000,225.400000,92.000000)" style="stroke: black; stroke-width:0.25;"/>
<line x1="222.400000" y1="93.000000" x2="225.400000" y2="92.000000"  transform="rotate(0.000000,225.400000,92.000000)" style="stroke: black; stroke-width:0.25;"/>
<line x1="15.000000" y1="15.000000" x2="15.000000" y2="161.000000"  style="stroke: black; stroke-linecap:round; stroke-width:0.25; stroke-dasharray:3,3;"/>
<line x1="15.000000" y1="161.000000" x2="266.400000" y2="161.000000"  style="stroke: black; stroke-linecap:round; stroke-width:0.25; stroke-dasharray:3,3;"/>
<line x1="266.400000" y1="161.000000" x2="266.400000" y2="15.000000"  style="stroke: black; stroke-linecap:round; stroke-width:0.25; stroke-dasharray:3,3;"/>
<line x1="15.000000" y1="15.000000" x2="20.000000" y2="15.000000"  style="stroke: black; stroke-linecap:round; stroke-width:0.25; stroke-dasharray:3,3;"/>
<line x1="55.475000" y1="15.000000" x2="266.400000" y2="15.000000"  style="stroke: black; stroke-linecap:round; stroke-width:0.25; stroke-dasharray:3,3;"/>
<text x="20.000000" y="17.000000" font-family="Arial" font-size="7">linear2db</text>
<line x1="268.400000" y1="87.000000" x2="271.400000" y2="88.000000"  transform="rotate(0.000000,271.400000,88.000000)" style="stroke: black; stroke-width:0.25;"/>
<line x1="268.400000" y1="89.000000" x2="271.400000" y2="88.000000"  transform="rotate(0.000000,271.400000,88.000000)" style="stroke: black; stroke-width:0.25;"/>
<line x1="10.000000" y1="88.000000" x2="20.000000" y2="88.000000"  style="stroke:black; stroke-linecap:round; stroke-width:0.25;"/>
<line x1="20.000000" y1="88.000000" x2="24.000000" y2="88.000000"  style="stroke:black; stroke-linecap:round; stroke-width:0.25;"/>
<line x1="24.000000" y1="88.000000" x2="28.000000" y2="88.000000"  style="stroke:black; stroke-linecap:round; stroke-width:0.25;"/>
<line x1="28.000000" y1="88.000000" x2="28.000000" y2="88.000000"  style="stroke:black; stroke-linecap:round; stroke-width:0.25;"/>
<line x1="28.000000" y1="88.000000" x2="32.000000" y2="88.000000"  style="stroke:black; stroke-linecap:round; stroke-width:0.25;"/>
<line x1="111.800000" y1="140.000000" x2="115.800000" y2="140.000000"  style="stroke:black; stroke-linecap:round; stroke-width:0.25;"/>
<line x1="115.800000" y1="140.000000" x2="139.600000" y2="140.000000"  style="stroke:black; stroke-linecap:round; stroke-width:0.25;"/>
<line x1="125.600000" y1="98.000000" x2="129.600000" y2="98.000000"  style="stroke:black; stroke-linecap:round; stroke-width:0.25;"/>
<line x1="129.600000" y1="98.000000" x2="139.600000" y2="98.000000"  style="stroke:black; stroke-linecap:round; stroke-width:0.25;"/>
<line x1="139.600000" y1="98.000000" x2="147.600000" y2="98.000000"  style="stroke:black; stroke-linecap:round; stroke-width:0.25;"/>
<line x1="139.600000" y1="118.000000" x2="147.600000" y2="118.000000"  style="stroke:black; stroke-linecap:round; stroke-width:0.25;"/>
<line x1="139.600000" y1="140.000000" x2="139.600000" y2="118.000000"  style="stroke:black; stroke-linecap:round; stroke-width:0.25;"/>
<line x1="139.600000" y1="140.000000" x2="139.600000" y2="140.000000"  style="stroke:black; stroke-linecap:round; stroke-width:0.25;"/>
<line x1="147.600000" y1="98.000000" x2="147.600000" y2="110.000000"  style="stroke:black; stroke-linecap:round; stroke-width:0.25;"/>
<line x1="147.600000" y1="110.000000" x2="147.600000" y2="110.000000"  style="stroke:black; stroke-linecap:round; stroke-width:0.25;"/>
<line x1="147.600000" y1="110.000000" x2="151.600000" y2="110.000000"  style="stroke:black; stroke-linecap:round; stroke-width:0.25;"/>
<line x1="147.600000" y1="118.000000" x2="151.600000" y2="118.000000"  style="stroke:black; stroke-linecap:round; stroke-width:0.25;"/>
<line x1="148.700000" y1="46.000000" x2="152.700000" y2="46.000000"  style="stroke:black; stroke-linecap:round; stroke-width:0.25;"/>
<line x1="152.700000" y1="46.000000" x2="162.700000" y2="46.000000"  style="stroke:black; stroke-linecap:round; stroke-width:0.25;"/>
<line x1="162.700000" y1="46.000000" x2="213.400000" y2="46.000000"  style="stroke:black; stroke-linecap:round; stroke-width:0.25;"/>
<line x1="175.600000" y1="114.000000" x2="179.600000" y2="114.000000"  style="stroke:black; stroke-linecap:round; stroke-width:0.25;"/>
<line x1="179.600000" y1="114.000000" x2="179.600000" y2="114.000000"  style="stroke:black; stroke-linecap:round; stroke-width:0.25;"/>
<line x1="179.600000" y1="114.000000" x2="183.600000" y2="114.000000"  style="stroke:black; stroke-linecap:round; stroke-width:0.25;"/>
<line x1="209.400000" y1="114.000000" x2="213.400000" y2="114.000000"  style="stroke:black; stroke-linecap:round; stroke-width:0.25;"/>
<line x1="213.400000" y1="46.000000" x2="221.400000" y2="46.000000"  style="stroke:black; stroke-linecap:round; stroke-width:0.25;"/>
<line x1="213.400000" y1="92.000000" x2="221.400000" y2="92.000000"  style="stroke:black; stroke-linecap:round; stroke-width:0.25;"/>
<line x1="213.400000" y1="114.000000" x2="213.400000" y2="92.000000"  style="stroke:black; stroke-linecap:round; stroke-width:0.25;"/>
<line x1="213.400000" y1="114.000000" x2="213.400000" y2="114.000000"  style="stroke:black; stroke-linecap:round; stroke-width:0.25;"/>
<line x1="221.400000" y1="46.000000" x2="221.400000" y2="84.000000"  style="stroke:black; stroke-linecap:round; stroke-width:0.25;"/>
<line x1="221.400000" y1="84.000000" x2="221.400000" y2="84.000000"  style="stroke:black; stroke-linecap:round; stroke-width:0.25;"/>
<line x1="221.400000" y1="84.000000" x2="225.400000" y2="84.000000"  style="stroke:black; stroke-linecap:round; stroke-width:0.25;"/>
<line x1="221.400000" y1="92.000000" x2="225.400000" y2="92.000000"  style="stroke:black; stroke-linecap:round; stroke-width:0.25;"/>
<line x1="249.400000" y1="88.000000" x2="253.400000" y2="88.000000"  style="stroke:black; stroke-linecap:round; stroke-width:0.25;"/>
<line x1="253.400000" y1="88.000000" x2="253.400000" y2="88.000000"  style="stroke:black; stroke-linecap:round; stroke-width:0.25;"/>
<line x1="253.400000" y1="88.000000" x2="257.400000" y2="88.000000"  style="stroke:black; stroke-linecap:round; stroke-width:0.25;"/>
<line x1="257.400000" y1="88.000000" x2="261.400000" y2="88.000000"  style="stroke:black; stroke-linecap:round; stroke-width:0.25;"/>
<line x1="261.400000" y1="88.000000" x2="271.400000" y2="88.000000"  style="stroke:black; stroke-linecap:round; stroke-width:0.25;"/>
</svg>
