<?xml version="1.0"?>
<svg xmlns="http://www.w3.org/2000/svg" xmlns:xlink="http://www.w3.org/1999/xlink" viewBox="0 0 476.500000 140.000000" width="238.250000mm" height="70.000000mm" version="1.1">
<a xlink:href="FFcompressor-0x7fc5e99ad5b0.svg">
<rect x="1.000000" y="1.000000" width="475.500000" height="139.000000" rx="0" ry="0" style="stroke:none;fill:#cccccc;"/>
<rect x="0.000000" y="0.000000" width="475.500000" height="139.000000" rx="0" ry="0" style="stroke:none;fill:#ffffff;"/>
</a>
<text x="10.000000" y="7.000000" font-family="Arial" font-size="7"></text>
<a xlink:href="linear2db-0x7fc5e99aab60.svg">
<rect x="68.000000" y="63.000000" width="38.700000" height="24.000000" rx="0" ry="0" style="stroke:none;fill:#cccccc;"/>
<rect x="67.000000" y="62.000000" width="38.700000" height="24.000000" rx="0" ry="0" style="stroke:none;fill:#003366;"/>
</a>
<a xlink:href="linear2db-0x7fc5e99aab60.svg">
<text x="86.350000" y="76.000000" font-family="Arial" font-size="7" text-anchor="middle" fill="#FFFFFF">linear2db</text>
</a>
<circle cx="69.000000" cy="64.000000" r="1"/>
<line x1="64.000000" y1="73.000000" x2="67.000000" y2="74.000000"  transform="rotate(0.000000,67.000000,74.000000)" style="stroke: black; stroke-width:0.25;"/>
<line x1="64.000000" y1="75.000000" x2="67.000000" y2="74.000000"  transform="rotate(0.000000,67.000000,74.000000)" style="stroke: black; stroke-width:0.25;"/>
<rect x="132.700000" y="59.000000" width="24.000000" height="24.000000" rx="0" ry="0" style="stroke:none;fill:#cccccc;"/>
<rect x="131.700000" y="58.000000" width="24.000000" height="24.000000" rx="0" ry="0" style="stroke:none;fill:#f44800;"/>
<text x="143.700000" y="72.000000" font-family="Arial" font-size="7" text-anchor="middle" fill="#FFFFFF">20</text>
<circle cx="133.700000" cy="60.000000" r="1"/>
<line x1="122.700000" y1="49.000000" x2="122.700000" y2="91.000000"  style="stroke: black; stroke-linecap:round; stroke-width:0.25; stroke-dasharray:3,3;"/>
<line x1="122.700000" y1="91.000000" x2="164.700000" y2="91.000000"  style="stroke: black; stroke-linecap:round; stroke-width:0.25; stroke-dasharray:3,3;"/>
<line x1="164.700000" y1="91.000000" x2="164.700000" y2="49.000000"  style="stroke: black; stroke-linecap:round; stroke-width:0.25; stroke-dasharray:3,3;"/>
<line x1="122.700000" y1="49.000000" x2="127.700000" y2="49.000000"  style="stroke: black; stroke-linecap:round; stroke-width:0.25; stroke-dasharray:3,3;"/>
<line x1="150.275000" y1="49.000000" x2="164.700000" y2="49.000000"  style="stroke: black; stroke-linecap:round; stroke-width:0.25; stroke-dasharray:3,3;"/>
<text x="127.700000" y="51.000000" font-family="Arial" font-size="7">maxGR</text>
<rect x="182.700000" y="63.000000" width="24.000000" height="24.000000" rx="0" ry="0" style="stroke:none;fill:#cccccc;"/>
<rect x="181.700000" y="62.000000" width="24.000000" height="24.000000" rx="0" ry="0" style="stroke:none;fill:#4B71A1;"/>
<text x="193.700000" y="76.000000" font-family="Arial" font-size="7" text-anchor="middle" fill="#FFFFFF">max</text>
<circle cx="183.700000" cy="64.000000" r="1"/>
<line x1="178.700000" y1="69.000000" x2="181.700000" y2="70.000000"  transform="rotate(0.000000,181.700000,70.000000)" style="stroke: black; stroke-width:0.25;"/>
<line x1="178.700000" y1="71.000000" x2="181.700000" y2="70.000000"  transform="rotate(0.000000,181.700000,70.000000)" style="stroke: black; stroke-width:0.25;"/>
<line x1="178.700000" y1="77.000000" x2="181.700000" y2="78.000000"  transform="rotate(0.000000,181.700000,78.000000)" style="stroke: black; stroke-width:0.25;"/>
<line x1="178.700000" y1="79.000000" x2="181.700000" y2="78.000000"  transform="rotate(0.000000,181.700000,78.000000)" style="stroke: black; stroke-width:0.25;"/>
<rect x="244.700000" y="63.000000" width="129.000000" height="24.000000" rx="0" ry="0" style="stroke:none;fill:#cccccc;"/>
<rect x="243.700000" y="62.000000" width="129.000000" height="24.000000" rx="0" ry="0" style="stroke:none;fill:#477881;"/>
<text x="308.200000" y="76.000000" font-family="Arial" font-size="7" text-anchor="middle" fill="#FFFFFF">hbargraph(, -2e+01f, 2e+01f)</text>
<circle cx="245.700000" cy="64.000000" r="1"/>
<line x1="240.700000" y1="73.000000" x2="243.700000" y2="74.000000"  transform="rotate(0.000000,243.700000,74.000000)" style="stroke: black; stroke-width:0.25;"/>
<line x1="240.700000" y1="75.000000" x2="243.700000" y2="74.000000"  transform="rotate(0.000000,243.700000,74.000000)" style="stroke: black; stroke-width:0.25;"/>
<line x1="234.700000" y1="53.000000" x2="234.700000" y2="95.000000"  style="stroke: black; stroke-linecap:round; stroke-width:0.25; stroke-dasharray:3,3;"/>
<line x1="234.700000" y1="95.000000" x2="381.700000" y2="95.000000"  style="stroke: black; stroke-linecap:round; stroke-width:0.25; stroke-dasharray:3,3;"/>
<line x1="381.700000" y1="95.000000" x2="381.700000" y2="53.000000"  style="stroke: black; stroke-linecap:round; stroke-width:0.25; stroke-dasharray:3,3;"/>
<line x1="234.700000" y1="53.000000" x2="239.700000" y2="53.000000"  style="stroke: black; stroke-linecap:round; stroke-width:0.25; stroke-dasharray:3,3;"/>
<line x1="271.950000" y1="53.000000" x2="381.700000" y2="53.000000"  style="stroke: black; stroke-linecap:round; stroke-width:0.25; stroke-dasharray:3,3;"/>
<text x="239.700000" y="55.000000" font-family="Arial" font-size="7">hgroup()</text>
<line x1="224.700000" y1="43.000000" x2="224.700000" y2="105.000000"  style="stroke: black; stroke-linecap:round; stroke-width:0.25; stroke-dasharray:3,3;"/>
<line x1="224.700000" y1="105.000000" x2="391.700000" y2="105.000000"  style="stroke: black; stroke-linecap:round; stroke-width:0.25; stroke-dasharray:3,3;"/>
<line x1="391.700000" y1="105.000000" x2="391.700000" y2="43.000000"  style="stroke: black; stroke-linecap:round; stroke-width:0.25; stroke-dasharray:3,3;"/>
<line x1="224.700000" y1="43.000000" x2="229.700000" y2="43.000000"  style="stroke: black; stroke-linecap:round; stroke-width:0.25; stroke-dasharray:3,3;"/>
<line x1="320.000000" y1="43.000000" x2="391.700000" y2="43.000000"  style="stroke: black; stroke-linecap:round; stroke-width:0.25; stroke-dasharray:3,3;"/>
<text x="229.700000" y="45.000000" font-family="Arial" font-size="7">vgroup(Low-end Compressor)</text>
<line x1="214.700000" y1="33.000000" x2="214.700000" y2="115.000000"  style="stroke: black; stroke-linecap:round; stroke-width:0.25; stroke-dasharray:3,3;"/>
<line x1="214.700000" y1="115.000000" x2="401.700000" y2="115.000000"  style="stroke: black; stroke-linecap:round; stroke-width:0.25; stroke-dasharray:3,3;"/>
<line x1="401.700000" y1="115.000000" x2="401.700000" y2="33.000000"  style="stroke: black; stroke-linecap:round; stroke-width:0.25; stroke-dasharray:3,3;"/>
<line x1="214.700000" y1="33.000000" x2="219.700000" y2="33.000000"  style="stroke: black; stroke-linecap:round; stroke-width:0.25; stroke-dasharray:3,3;"/>
<line x1="319.675000" y1="33.000000" x2="401.700000" y2="33.000000"  style="stroke: black; stroke-linecap:round; stroke-width:0.25; stroke-dasharray:3,3;"/>
<text x="219.700000" y="35.000000" font-family="Arial" font-size="7">meter_group(h...01f, 2e+01f))</text>
<rect x="419.700000" y="59.000000" width="25.800000" height="24.000000" rx="0" ry="0" style="stroke:none;fill:#cccccc;"/>
<rect x="418.700000" y="58.000000" width="25.800000" height="24.000000" rx="0" ry="0" style="stroke:none;fill:#4B71A1;"/>
<text x="431.600000" y="72.000000" font-family="Arial" font-size="7" text-anchor="middle" fill="#FFFFFF">attach</text>
<circle cx="420.700000" cy="60.000000" r="1"/>
<line x1="415.700000" y1="65.000000" x2="418.700000" y2="66.000000"  transform="rotate(0.000000,418.700000,66.000000)" style="stroke: black; stroke-width:0.25;"/>
<line x1="415.700000" y1="67.000000" x2="418.700000" y2="66.000000"  transform="rotate(0.000000,418.700000,66.000000)" style="stroke: black; stroke-width:0.25;"/>
<line x1="415.700000" y1="73.000000" x2="418.700000" y2="74.000000"  transform="rotate(0.000000,418.700000,74.000000)" style="stroke: black; stroke-width:0.25;"/>
<line x1="415.700000" y1="75.000000" x2="418.700000" y2="74.000000"  transform="rotate(0.000000,418.700000,74.000000)" style="stroke: black; stroke-width:0.25;"/>
<line x1="15.000000" y1="15.000000" x2="15.000000" y2="125.000000"  style="stroke: black; stroke-linecap:round; stroke-width:0.25; stroke-dasharray:3,3;"/>
<line x1="15.000000" y1="125.000000" x2="461.500000" y2="125.000000"  style="stroke: black; stroke-linecap:round; stroke-width:0.25; stroke-dasharray:3,3;"/>
<line x1="461.500000" y1="125.000000" x2="461.500000" y2="15.000000"  style="stroke: black; stroke-linecap:round; stroke-width:0.25; stroke-dasharray:3,3;"/>
<line x1="15.000000" y1="15.000000" x2="20.000000" y2="15.000000"  style="stroke: black; stroke-linecap:round; stroke-width:0.25; stroke-dasharray:3,3;"/>
<line x1="42.575000" y1="15.000000" x2="461.500000" y2="15.000000"  style="stroke: black; stroke-linecap:round; stroke-width:0.25; stroke-dasharray:3,3;"/>
<text x="20.000000" y="17.000000" font-family="Arial" font-size="7">meter</text>
<line x1="463.500000" y1="69.000000" x2="466.500000" y2="70.000000"  transform="rotate(0.000000,466.500000,70.000000)" style="stroke: black; stroke-width:0.25;"/>
<line x1="463.500000" y1="71.000000" x2="466.500000" y2="70.000000"  transform="rotate(0.000000,466.500000,70.000000)" style="stroke: black; stroke-width:0.25;"/>
<line x1="10.000000" y1="70.000000" x2="20.000000" y2="70.000000"  style="stroke:black; stroke-linecap:round; stroke-width:0.25;"/>
<line x1="20.000000" y1="70.000000" x2="24.000000" y2="70.000000"  style="stroke:black; stroke-linecap:round; stroke-width:0.25;"/>
<line x1="24.000000" y1="70.000000" x2="28.000000" y2="70.000000"  style="stroke:black; stroke-linecap:round; stroke-width:0.25;"/>
<line x1="28.000000" y1="70.000000" x2="28.000000" y2="70.000000"  style="stroke:black; stroke-linecap:round; stroke-width:0.25;"/>
<line x1="28.000000" y1="70.000000" x2="32.000000" y2="70.000000"  style="stroke:black; stroke-linecap:round; stroke-width:0.25;"/>
<line x1="32.000000" y1="70.000000" x2="36.000000" y2="70.000000"  style="stroke:black; stroke-linecap:round; stroke-width:0.25;"/>
<line x1="36.000000" y1="70.000000" x2="63.000000" y2="24.000000"  style="stroke:black; stroke-linecap:round; stroke-width:0.25;"/>
<line x1="36.000000" y1="70.000000" x2="63.000000" y2="74.000000"  style="stroke:black; stroke-linecap:round; stroke-width:0.25;"/>
<line x1="63.000000" y1="24.000000" x2="234.850000" y2="24.000000"  style="stroke:black; stroke-linecap:round; stroke-width:0.25;"/>
<line x1="63.000000" y1="74.000000" x2="67.000000" y2="74.000000"  style="stroke:black; stroke-linecap:round; stroke-width:0.25;"/>
<line x1="105.700000" y1="74.000000" x2="109.700000" y2="74.000000"  style="stroke:black; stroke-linecap:round; stroke-width:0.25;"/>
<line x1="109.700000" y1="74.000000" x2="117.700000" y2="74.000000"  style="stroke:black; stroke-linecap:round; stroke-width:0.25;"/>
<line x1="117.700000" y1="74.000000" x2="117.700000" y2="100.000000"  style="stroke:black; stroke-linecap:round; stroke-width:0.25;"/>
<line x1="117.700000" y1="100.000000" x2="117.700000" y2="100.000000"  style="stroke:black; stroke-linecap:round; stroke-width:0.25;"/>
<line x1="117.700000" y1="100.000000" x2="143.700000" y2="100.000000"  style="stroke:black; stroke-linecap:round; stroke-width:0.25;"/>
<line x1="143.700000" y1="100.000000" x2="169.700000" y2="100.000000"  style="stroke:black; stroke-linecap:round; stroke-width:0.25;"/>
<line x1="155.700000" y1="70.000000" x2="159.700000" y2="70.000000"  style="stroke:black; stroke-linecap:round; stroke-width:0.25;"/>
<line x1="159.700000" y1="70.000000" x2="169.700000" y2="70.000000"  style="stroke:black; stroke-linecap:round; stroke-width:0.25;"/>
<line x1="169.700000" y1="70.000000" x2="177.700000" y2="70.000000"  style="stroke:black; stroke-linecap:round; stroke-width:0.25;"/>
<line x1="169.700000" y1="78.000000" x2="177.700000" y2="78.000000"  style="stroke:black; stroke-linecap:round; stroke-width:0.25;"/>
<line x1="169.700000" y1="100.000000" x2="169.700000" y2="78.000000"  style="stroke:black; stroke-linecap:round; stroke-width:0.25;"/>
<line x1="169.700000" y1="100.000000" x2="169.700000" y2="100.000000"  style="stroke:black; stroke-linecap:round; stroke-width:0.25;"/>
<line x1="177.700000" y1="70.000000" x2="181.700000" y2="70.000000"  style="stroke:black; stroke-linecap:round; stroke-width:0.25;"/>
<line x1="177.700000" y1="78.000000" x2="181.700000" y2="78.000000"  style="stroke:black; stroke-linecap:round; stroke-width:0.25;"/>
<line x1="205.700000" y1="74.000000" x2="209.700000" y2="74.000000"  style="stroke:black; stroke-linecap:round; stroke-width:0.25;"/>
<line x1="209.700000" y1="74.000000" x2="209.700000" y2="74.000000"  style="stroke:black; stroke-linecap:round; stroke-width:0.25;"/>
<line x1="209.700000" y1="74.000000" x2="219.700000" y2="74.000000"  style="stroke:black; stroke-linecap:round; stroke-width:0.25;"/>
<line x1="219.700000" y1="74.000000" x2="229.700000" y2="74.000000"  style="stroke:black; stroke-linecap:round; stroke-width:0.25;"/>
<line x1="229.700000" y1="74.000000" x2="239.700000" y2="74.000000"  style="stroke:black; stroke-linecap:round; stroke-width:0.25;"/>
<line x1="234.850000" y1="24.000000" x2="406.700000" y2="24.000000"  style="stroke:black; stroke-linecap:round; stroke-width:0.25;"/>
<line x1="239.700000" y1="74.000000" x2="243.700000" y2="74.000000"  style="stroke:black; stroke-linecap:round; stroke-width:0.25;"/>
<line x1="372.700000" y1="74.000000" x2="376.700000" y2="74.000000"  style="stroke:black; stroke-linecap:round; stroke-width:0.25;"/>
<line x1="376.700000" y1="74.000000" x2="386.700000" y2="74.000000"  style="stroke:black; stroke-linecap:round; stroke-width:0.25;"/>
<line x1="386.700000" y1="74.000000" x2="396.700000" y2="74.000000"  style="stroke:black; stroke-linecap:round; stroke-width:0.25;"/>
<line x1="396.700000" y1="74.000000" x2="406.700000" y2="74.000000"  style="stroke:black; stroke-linecap:round; stroke-width:0.25;"/>
<line x1="406.700000" y1="24.000000" x2="414.700000" y2="24.000000"  style="stroke:black; stroke-linecap:round; stroke-width:0.25;"/>
<line x1="406.700000" y1="74.000000" x2="414.700000" y2="74.000000"  style="stroke:black; stroke-linecap:round; stroke-width:0.25;"/>
<line x1="414.700000" y1="24.000000" x2="414.700000" y2="66.000000"  style="stroke:black; stroke-linecap:round; stroke-width:0.25;"/>
<line x1="414.700000" y1="66.000000" x2="414.700000" y2="66.000000"  style="stroke:black; stroke-linecap:round; stroke-width:0.25;"/>
<line x1="414.700000" y1="66.000000" x2="418.700000" y2="66.000000"  style="stroke:black; stroke-linecap:round; stroke-width:0.25;"/>
<line x1="414.700000" y1="74.000000" x2="418.700000" y2="74.000000"  style="stroke:black; stroke-linecap:round; stroke-width:0.25;"/>
<line x1="444.500000" y1="70.000000" x2="448.500000" y2="70.000000"  style="stroke:black; stroke-linecap:round; stroke-width:0.25;"/>
<line x1="448.500000" y1="70.000000" x2="448.500000" y2="70.000000"  style="stroke:black; stroke-linecap:round; stroke-width:0.25;"/>
<line x1="448.500000" y1="70.000000" x2="452.500000" y2="70.000000"  style="stroke:black; stroke-linecap:round; stroke-width:0.25;"/>
<line x1="452.500000" y1="70.000000" x2="456.500000" y2="70.000000"  style="stroke:black; stroke-linecap:round; stroke-width:0.25;"/>
<line x1="456.500000" y1="70.000000" x2="466.500000" y2="70.000000"  style="stroke:black; stroke-linecap:round; stroke-width:0.25;"/>
</svg>
