<?xml version="1.0"?>
<svg xmlns="http://www.w3.org/2000/svg" xmlns:xlink="http://www.w3.org/1999/xlink" viewBox="0 0 241.800000 328.000000" width="120.900000mm" height="164.000000mm" version="1.1">
<a xlink:href="hp-0x7fc5e9968660.svg">
<rect x="1.000000" y="1.000000" width="240.800000" height="327.000000" rx="0" ry="0" style="stroke:none;fill:#cccccc;"/>
<rect x="0.000000" y="0.000000" width="240.800000" height="327.000000" rx="0" ry="0" style="stroke:none;fill:#ffffff;"/>
</a>
<text x="10.000000" y="7.000000" font-family="Arial" font-size="7"></text>
<rect x="41.000000" y="121.000000" width="25.800000" height="24.000000" rx="0" ry="0" style="stroke:none;fill:#cccccc;"/>
<rect x="40.000000" y="120.000000" width="25.800000" height="24.000000" rx="0" ry="0" style="stroke:none;fill:#47945E;"/>
<text x="52.900000" y="134.000000" font-family="Arial" font-size="7" text-anchor="middle" fill="#FFFFFF">ic1eq</text>
<circle cx="42.000000" cy="122.000000" r="1"/>
<line x1="37.000000" y1="131.000000" x2="40.000000" y2="132.000000"  transform="rotate(0.000000,40.000000,132.000000)" style="stroke: black; stroke-width:0.25;"/>
<line x1="37.000000" y1="133.000000" x2="40.000000" y2="132.000000"  transform="rotate(0.000000,40.000000,132.000000)" style="stroke: black; stroke-width:0.25;"/>
<rect x="41.000000" y="153.000000" width="25.800000" height="24.000000" rx="0" ry="0" style="stroke:none;fill:#cccccc;"/>
<rect x="40.000000" y="152.000000" width="25.800000" height="24.000000" rx="0" ry="0" style="stroke:none;fill:#47945E;"/>
<text x="52.900000" y="166.000000" font-family="Arial" font-size="7" text-anchor="middle" fill="#FFFFFF">ic2eq</text>
<circle cx="42.000000" cy="154.000000" r="1"/>
<line x1="37.000000" y1="163.000000" x2="40.000000" y2="164.000000"  transform="rotate(0.000000,40.000000,164.000000)" style="stroke: black; stroke-width:0.25;"/>
<line x1="37.000000" y1="165.000000" x2="40.000000" y2="164.000000"  transform="rotate(0.000000,40.000000,164.000000)" style="stroke: black; stroke-width:0.25;"/>
<rect x="41.900000" y="185.000000" width="24.000000" height="24.000000" rx="0" ry="0" style="stroke:none;fill:#cccccc;"/>
<rect x="40.900000" y="184.000000" width="24.000000" height="24.000000" rx="0" ry="0" style="stroke:none;fill:#47945E;"/>
<text x="52.900000" y="198.000000" font-family="Arial" font-size="7" text-anchor="middle" fill="#FFFFFF">v0</text>
<circle cx="42.900000" cy="186.000000" r="1"/>
<line x1="37.900000" y1="195.000000" x2="40.900000" y2="196.000000"  transform="rotate(0.000000,40.900000,196.000000)" style="stroke: black; stroke-width:0.25;"/>
<line x1="37.900000" y1="197.000000" x2="40.900000" y2="196.000000"  transform="rotate(0.000000,40.900000,196.000000)" style="stroke: black; stroke-width:0.25;"/>
<rect x="74.800000" y="25.000000" width="24.000000" height="24.000000" rx="0" ry="0" style="stroke:none;fill:#cccccc;"/>
<rect x="73.800000" y="24.000000" width="24.000000" height="24.000000" rx="0" ry="0" style="stroke:none;fill:#f44800;"/>
<text x="85.800000" y="38.000000" font-family="Arial" font-size="7" text-anchor="middle" fill="#FFFFFF">2</text>
<circle cx="75.800000" cy="26.000000" r="1"/>
<a xlink:href="v1-0x7fc5e9965a40.svg">
<rect x="74.800000" y="57.000000" width="24.000000" height="24.000000" rx="0" ry="0" style="stroke:none;fill:#cccccc;"/>
<rect x="73.800000" y="56.000000" width="24.000000" height="24.000000" rx="0" ry="0" style="stroke:none;fill:#003366;"/>
</a>
<a xlink:href="v1-0x7fc5e9965a40.svg">
<text x="85.800000" y="70.000000" font-family="Arial" font-size="7" text-anchor="middle" fill="#FFFFFF">v1</text>
</a>
<circle cx="75.800000" cy="58.000000" r="1"/>
<rect x="114.800000" y="41.000000" width="24.000000" height="24.000000" rx="0" ry="0" style="stroke:none;fill:#cccccc;"/>
<rect x="113.800000" y="40.000000" width="24.000000" height="24.000000" rx="0" ry="0" style="stroke:none;fill:#4B71A1;"/>
<text x="125.800000" y="54.000000" font-family="Arial" font-size="7" text-anchor="middle" fill="#FFFFFF">*</text>
<circle cx="115.800000" cy="42.000000" r="1"/>
<line x1="110.800000" y1="47.000000" x2="113.800000" y2="48.000000"  transform="rotate(0.000000,113.800000,48.000000)" style="stroke: black; stroke-width:0.25;"/>
<line x1="110.800000" y1="49.000000" x2="113.800000" y2="48.000000"  transform="rotate(0.000000,113.800000,48.000000)" style="stroke: black; stroke-width:0.25;"/>
<line x1="110.800000" y1="55.000000" x2="113.800000" y2="56.000000"  transform="rotate(0.000000,113.800000,56.000000)" style="stroke: black; stroke-width:0.25;"/>
<line x1="110.800000" y1="57.000000" x2="113.800000" y2="56.000000"  transform="rotate(0.000000,113.800000,56.000000)" style="stroke: black; stroke-width:0.25;"/>
<rect x="93.900000" y="89.000000" width="25.800000" height="24.000000" rx="0" ry="0" style="stroke:none;fill:#cccccc;"/>
<rect x="92.900000" y="88.000000" width="25.800000" height="24.000000" rx="0" ry="0" style="stroke:none;fill:#47945E;"/>
<text x="105.800000" y="102.000000" font-family="Arial" font-size="7" text-anchor="middle" fill="#FFFFFF">ic1eq</text>
<circle cx="94.900000" cy="90.000000" r="1"/>
<rect x="154.800000" y="57.000000" width="24.000000" height="24.000000" rx="0" ry="0" style="stroke:none;fill:#cccccc;"/>
<rect x="153.800000" y="56.000000" width="24.000000" height="24.000000" rx="0" ry="0" style="stroke:none;fill:#4B71A1;"/>
<text x="165.800000" y="70.000000" font-family="Arial" font-size="7" text-anchor="middle" fill="#FFFFFF">-</text>
<circle cx="155.800000" cy="58.000000" r="1"/>
<line x1="150.800000" y1="63.000000" x2="153.800000" y2="64.000000"  transform="rotate(0.000000,153.800000,64.000000)" style="stroke: black; stroke-width:0.25;"/>
<line x1="150.800000" y1="65.000000" x2="153.800000" y2="64.000000"  transform="rotate(0.000000,153.800000,64.000000)" style="stroke: black; stroke-width:0.25;"/>
<line x1="150.800000" y1="71.000000" x2="153.800000" y2="72.000000"  transform="rotate(0.000000,153.800000,72.000000)" style="stroke: black; stroke-width:0.25;"/>
<line x1="150.800000" y1="73.000000" x2="153.800000" y2="72.000000"  transform="rotate(0.000000,153.800000,72.000000)" style="stroke: black; stroke-width:0.25;"/>
<rect x="74.800000" y="121.000000" width="24.000000" height="24.000000" rx="0" ry="0" style="stroke:none;fill:#cccccc;"/>
<rect x="73.800000" y="120.000000" width="24.000000" height="24.000000" rx="0" ry="0" style="stroke:none;fill:#f44800;"/>
<text x="85.800000" y="134.000000" font-family="Arial" font-size="7" text-anchor="middle" fill="#FFFFFF">2</text>
<circle cx="75.800000" cy="122.000000" r="1"/>
<a xlink:href="v2-0x7fc5e9965fc0.svg">
<rect x="74.800000" y="153.000000" width="24.000000" height="24.000000" rx="0" ry="0" style="stroke:none;fill:#cccccc;"/>
<rect x="73.800000" y="152.000000" width="24.000000" height="24.000000" rx="0" ry="0" style="stroke:none;fill:#003366;"/>
</a>
<a xlink:href="v2-0x7fc5e9965fc0.svg">
<text x="85.800000" y="166.000000" font-family="Arial" font-size="7" text-anchor="middle" fill="#FFFFFF">v2</text>
</a>
<circle cx="75.800000" cy="154.000000" r="1"/>
<rect x="114.800000" y="137.000000" width="24.000000" height="24.000000" rx="0" ry="0" style="stroke:none;fill:#cccccc;"/>
<rect x="113.800000" y="136.000000" width="24.000000" height="24.000000" rx="0" ry="0" style="stroke:none;fill:#4B71A1;"/>
<text x="125.800000" y="150.000000" font-family="Arial" font-size="7" text-anchor="middle" fill="#FFFFFF">*</text>
<circle cx="115.800000" cy="138.000000" r="1"/>
<line x1="110.800000" y1="143.000000" x2="113.800000" y2="144.000000"  transform="rotate(0.000000,113.800000,144.000000)" style="stroke: black; stroke-width:0.25;"/>
<line x1="110.800000" y1="145.000000" x2="113.800000" y2="144.000000"  transform="rotate(0.000000,113.800000,144.000000)" style="stroke: black; stroke-width:0.25;"/>
<line x1="110.800000" y1="151.000000" x2="113.800000" y2="152.000000"  transform="rotate(0.000000,113.800000,152.000000)" style="stroke: black; stroke-width:0.25;"/>
<line x1="110.800000" y1="153.000000" x2="113.800000" y2="152.000000"  transform="rotate(0.000000,113.800000,152.000000)" style="stroke: black; stroke-width:0.25;"/>
<rect x="93.900000" y="185.000000" width="25.800000" height="24.000000" rx="0" ry="0" style="stroke:none;fill:#cccccc;"/>
<rect x="92.900000" y="184.000000" width="25.800000" height="24.000000" rx="0" ry="0" style="stroke:none;fill:#47945E;"/>
<text x="105.800000" y="198.000000" font-family="Arial" font-size="7" text-anchor="middle" fill="#FFFFFF">ic2eq</text>
<circle cx="94.900000" cy="186.000000" r="1"/>
<rect x="154.800000" y="153.000000" width="24.000000" height="24.000000" rx="0" ry="0" style="stroke:none;fill:#cccccc;"/>
<rect x="153.800000" y="152.000000" width="24.000000" height="24.000000" rx="0" ry="0" style="stroke:none;fill:#4B71A1;"/>
<text x="165.800000" y="166.000000" font-family="Arial" font-size="7" text-anchor="middle" fill="#FFFFFF">-</text>
<circle cx="155.800000" cy="154.000000" r="1"/>
<line x1="150.800000" y1="159.000000" x2="153.800000" y2="160.000000"  transform="rotate(0.000000,153.800000,160.000000)" style="stroke: black; stroke-width:0.25;"/>
<line x1="150.800000" y1="161.000000" x2="153.800000" y2="160.000000"  transform="rotate(0.000000,153.800000,160.000000)" style="stroke: black; stroke-width:0.25;"/>
<line x1="150.800000" y1="167.000000" x2="153.800000" y2="168.000000"  transform="rotate(0.000000,153.800000,168.000000)" style="stroke: black; stroke-width:0.25;"/>
<line x1="150.800000" y1="169.000000" x2="153.800000" y2="168.000000"  transform="rotate(0.000000,153.800000,168.000000)" style="stroke: black; stroke-width:0.25;"/>
<rect x="114.800000" y="217.000000" width="24.000000" height="24.000000" rx="0" ry="0" style="stroke:none;fill:#cccccc;"/>
<rect x="113.800000" y="216.000000" width="24.000000" height="24.000000" rx="0" ry="0" style="stroke:none;fill:#47945E;"/>
<text x="125.800000" y="230.000000" font-family="Arial" font-size="7" text-anchor="middle" fill="#FFFFFF">v0</text>
<circle cx="115.800000" cy="218.000000" r="1"/>
<a xlink:href="v1-0x7fc5e9965a40.svg">
<rect x="114.800000" y="249.000000" width="24.000000" height="24.000000" rx="0" ry="0" style="stroke:none;fill:#cccccc;"/>
<rect x="113.800000" y="248.000000" width="24.000000" height="24.000000" rx="0" ry="0" style="stroke:none;fill:#003366;"/>
</a>
<a xlink:href="v1-0x7fc5e9965a40.svg">
<text x="125.800000" y="262.000000" font-family="Arial" font-size="7" text-anchor="middle" fill="#FFFFFF">v1</text>
</a>
<circle cx="115.800000" cy="250.000000" r="1"/>
<a xlink:href="v2-0x7fc5e9965fc0.svg">
<rect x="114.800000" y="281.000000" width="24.000000" height="24.000000" rx="0" ry="0" style="stroke:none;fill:#cccccc;"/>
<rect x="113.800000" y="280.000000" width="24.000000" height="24.000000" rx="0" ry="0" style="stroke:none;fill:#003366;"/>
</a>
<a xlink:href="v2-0x7fc5e9965fc0.svg">
<text x="125.800000" y="294.000000" font-family="Arial" font-size="7" text-anchor="middle" fill="#FFFFFF">v2</text>
</a>
<circle cx="115.800000" cy="282.000000" r="1"/>
<line x1="15.000000" y1="15.000000" x2="15.000000" y2="313.000000"  style="stroke: black; stroke-linecap:round; stroke-width:0.25; stroke-dasharray:3,3;"/>
<line x1="15.000000" y1="313.000000" x2="226.800000" y2="313.000000"  style="stroke: black; stroke-linecap:round; stroke-width:0.25; stroke-dasharray:3,3;"/>
<line x1="226.800000" y1="313.000000" x2="226.800000" y2="15.000000"  style="stroke: black; stroke-linecap:round; stroke-width:0.25; stroke-dasharray:3,3;"/>
<line x1="15.000000" y1="15.000000" x2="20.000000" y2="15.000000"  style="stroke: black; stroke-linecap:round; stroke-width:0.25; stroke-dasharray:3,3;"/>
<line x1="39.350000" y1="15.000000" x2="226.800000" y2="15.000000"  style="stroke: black; stroke-linecap:round; stroke-width:0.25; stroke-dasharray:3,3;"/>
<text x="20.000000" y="17.000000" font-family="Arial" font-size="7">tick</text>
<line x1="228.800000" y1="147.000000" x2="231.800000" y2="148.000000"  transform="rotate(0.000000,231.800000,148.000000)" style="stroke: black; stroke-width:0.25;"/>
<line x1="228.800000" y1="149.000000" x2="231.800000" y2="148.000000"  transform="rotate(0.000000,231.800000,148.000000)" style="stroke: black; stroke-width:0.25;"/>
<line x1="228.800000" y1="155.000000" x2="231.800000" y2="156.000000"  transform="rotate(0.000000,231.800000,156.000000)" style="stroke: black; stroke-width:0.25;"/>
<line x1="228.800000" y1="157.000000" x2="231.800000" y2="156.000000"  transform="rotate(0.000000,231.800000,156.000000)" style="stroke: black; stroke-width:0.25;"/>
<line x1="228.800000" y1="163.000000" x2="231.800000" y2="164.000000"  transform="rotate(0.000000,231.800000,164.000000)" style="stroke: black; stroke-width:0.25;"/>
<line x1="228.800000" y1="165.000000" x2="231.800000" y2="164.000000"  transform="rotate(0.000000,231.800000,164.000000)" style="stroke: black; stroke-width:0.25;"/>
<line x1="228.800000" y1="171.000000" x2="231.800000" y2="172.000000"  transform="rotate(0.000000,231.800000,172.000000)" style="stroke: black; stroke-width:0.25;"/>
<line x1="228.800000" y1="173.000000" x2="231.800000" y2="172.000000"  transform="rotate(0.000000,231.800000,172.000000)" style="stroke: black; stroke-width:0.25;"/>
<line x1="228.800000" y1="179.000000" x2="231.800000" y2="180.000000"  transform="rotate(0.000000,231.800000,180.000000)" style="stroke: black; stroke-width:0.25;"/>
<line x1="228.800000" y1="181.000000" x2="231.800000" y2="180.000000"  transform="rotate(0.000000,231.800000,180.000000)" style="stroke: black; stroke-width:0.25;"/>
<line x1="10.000000" y1="156.000000" x2="20.000000" y2="156.000000"  style="stroke:black; stroke-linecap:round; stroke-width:0.25;"/>
<line x1="10.000000" y1="164.000000" x2="20.000000" y2="164.000000"  style="stroke:black; stroke-linecap:round; stroke-width:0.25;"/>
<line x1="10.000000" y1="172.000000" x2="20.000000" y2="172.000000"  style="stroke:black; stroke-linecap:round; stroke-width:0.25;"/>
<line x1="20.000000" y1="156.000000" x2="24.000000" y2="156.000000"  style="stroke:black; stroke-linecap:round; stroke-width:0.25;"/>
<line x1="20.000000" y1="164.000000" x2="24.000000" y2="164.000000"  style="stroke:black; stroke-linecap:round; stroke-width:0.25;"/>
<line x1="20.000000" y1="172.000000" x2="24.000000" y2="172.000000"  style="stroke:black; stroke-linecap:round; stroke-width:0.25;"/>
<line x1="24.000000" y1="156.000000" x2="28.000000" y2="156.000000"  style="stroke:black; stroke-linecap:round; stroke-width:0.25;"/>
<line x1="24.000000" y1="164.000000" x2="28.000000" y2="164.000000"  style="stroke:black; stroke-linecap:round; stroke-width:0.25;"/>
<line x1="24.000000" y1="172.000000" x2="28.000000" y2="172.000000"  style="stroke:black; stroke-linecap:round; stroke-width:0.25;"/>
<line x1="28.000000" y1="132.000000" x2="36.000000" y2="132.000000"  style="stroke:black; stroke-linecap:round; stroke-width:0.25;"/>
<line x1="28.000000" y1="156.000000" x2="28.000000" y2="132.000000"  style="stroke:black; stroke-linecap:round; stroke-width:0.25;"/>
<line x1="28.000000" y1="156.000000" x2="28.000000" y2="156.000000"  style="stroke:black; stroke-linecap:round; stroke-width:0.25;"/>
<line x1="28.000000" y1="164.000000" x2="36.000000" y2="164.000000"  style="stroke:black; stroke-linecap:round; stroke-width:0.25;"/>
<line x1="28.000000" y1="172.000000" x2="36.000000" y2="172.000000"  style="stroke:black; stroke-linecap:round; stroke-width:0.25;"/>
<line x1="36.000000" y1="132.000000" x2="40.000000" y2="132.000000"  style="stroke:black; stroke-linecap:round; stroke-width:0.25;"/>
<line x1="36.000000" y1="164.000000" x2="40.000000" y2="164.000000"  style="stroke:black; stroke-linecap:round; stroke-width:0.25;"/>
<line x1="36.000000" y1="172.000000" x2="36.000000" y2="196.000000"  style="stroke:black; stroke-linecap:round; stroke-width:0.25;"/>
<line x1="36.000000" y1="196.000000" x2="36.000000" y2="196.000000"  style="stroke:black; stroke-linecap:round; stroke-width:0.25;"/>
<line x1="36.000000" y1="196.000000" x2="36.900000" y2="196.000000"  style="stroke:black; stroke-linecap:round; stroke-width:0.25;"/>
<line x1="36.900000" y1="196.000000" x2="40.900000" y2="196.000000"  style="stroke:black; stroke-linecap:round; stroke-width:0.25;"/>
<line x1="97.800000" y1="36.000000" x2="101.800000" y2="36.000000"  style="stroke:black; stroke-linecap:round; stroke-width:0.25;"/>
<line x1="97.800000" y1="68.000000" x2="101.800000" y2="68.000000"  style="stroke:black; stroke-linecap:round; stroke-width:0.25;"/>
<line x1="97.800000" y1="132.000000" x2="101.800000" y2="132.000000"  style="stroke:black; stroke-linecap:round; stroke-width:0.25;"/>
<line x1="97.800000" y1="164.000000" x2="101.800000" y2="164.000000"  style="stroke:black; stroke-linecap:round; stroke-width:0.25;"/>
<line x1="101.800000" y1="36.000000" x2="109.800000" y2="36.000000"  style="stroke:black; stroke-linecap:round; stroke-width:0.25;"/>
<line x1="101.800000" y1="56.000000" x2="109.800000" y2="56.000000"  style="stroke:black; stroke-linecap:round; stroke-width:0.25;"/>
<line x1="101.800000" y1="68.000000" x2="101.800000" y2="56.000000"  style="stroke:black; stroke-linecap:round; stroke-width:0.25;"/>
<line x1="101.800000" y1="68.000000" x2="101.800000" y2="68.000000"  style="stroke:black; stroke-linecap:round; stroke-width:0.25;"/>
<line x1="101.800000" y1="132.000000" x2="109.800000" y2="132.000000"  style="stroke:black; stroke-linecap:round; stroke-width:0.25;"/>
<line x1="101.800000" y1="152.000000" x2="109.800000" y2="152.000000"  style="stroke:black; stroke-linecap:round; stroke-width:0.25;"/>
<line x1="101.800000" y1="164.000000" x2="101.800000" y2="152.000000"  style="stroke:black; stroke-linecap:round; stroke-width:0.25;"/>
<line x1="101.800000" y1="164.000000" x2="101.800000" y2="164.000000"  style="stroke:black; stroke-linecap:round; stroke-width:0.25;"/>
<line x1="109.800000" y1="36.000000" x2="109.800000" y2="48.000000"  style="stroke:black; stroke-linecap:round; stroke-width:0.25;"/>
<line x1="109.800000" y1="48.000000" x2="109.800000" y2="48.000000"  style="stroke:black; stroke-linecap:round; stroke-width:0.25;"/>
<line x1="109.800000" y1="48.000000" x2="113.800000" y2="48.000000"  style="stroke:black; stroke-linecap:round; stroke-width:0.25;"/>
<line x1="109.800000" y1="56.000000" x2="113.800000" y2="56.000000"  style="stroke:black; stroke-linecap:round; stroke-width:0.25;"/>
<line x1="109.800000" y1="132.000000" x2="109.800000" y2="144.000000"  style="stroke:black; stroke-linecap:round; stroke-width:0.25;"/>
<line x1="109.800000" y1="144.000000" x2="109.800000" y2="144.000000"  style="stroke:black; stroke-linecap:round; stroke-width:0.25;"/>
<line x1="109.800000" y1="144.000000" x2="113.800000" y2="144.000000"  style="stroke:black; stroke-linecap:round; stroke-width:0.25;"/>
<line x1="109.800000" y1="152.000000" x2="113.800000" y2="152.000000"  style="stroke:black; stroke-linecap:round; stroke-width:0.25;"/>
<line x1="118.700000" y1="100.000000" x2="122.700000" y2="100.000000"  style="stroke:black; stroke-linecap:round; stroke-width:0.25;"/>
<line x1="118.700000" y1="196.000000" x2="122.700000" y2="196.000000"  style="stroke:black; stroke-linecap:round; stroke-width:0.25;"/>
<line x1="122.700000" y1="100.000000" x2="141.800000" y2="100.000000"  style="stroke:black; stroke-linecap:round; stroke-width:0.25;"/>
<line x1="122.700000" y1="196.000000" x2="141.800000" y2="196.000000"  style="stroke:black; stroke-linecap:round; stroke-width:0.25;"/>
<line x1="137.800000" y1="52.000000" x2="141.800000" y2="52.000000"  style="stroke:black; stroke-linecap:round; stroke-width:0.25;"/>
<line x1="137.800000" y1="148.000000" x2="141.800000" y2="148.000000"  style="stroke:black; stroke-linecap:round; stroke-width:0.25;"/>
<line x1="137.800000" y1="228.000000" x2="141.800000" y2="228.000000"  style="stroke:black; stroke-linecap:round; stroke-width:0.25;"/>
<line x1="137.800000" y1="260.000000" x2="141.800000" y2="260.000000"  style="stroke:black; stroke-linecap:round; stroke-width:0.25;"/>
<line x1="137.800000" y1="292.000000" x2="141.800000" y2="292.000000"  style="stroke:black; stroke-linecap:round; stroke-width:0.25;"/>
<line x1="141.800000" y1="52.000000" x2="149.800000" y2="52.000000"  style="stroke:black; stroke-linecap:round; stroke-width:0.25;"/>
<line x1="141.800000" y1="72.000000" x2="149.800000" y2="72.000000"  style="stroke:black; stroke-linecap:round; stroke-width:0.25;"/>
<line x1="141.800000" y1="100.000000" x2="141.800000" y2="72.000000"  style="stroke:black; stroke-linecap:round; stroke-width:0.25;"/>
<line x1="141.800000" y1="100.000000" x2="141.800000" y2="100.000000"  style="stroke:black; stroke-linecap:round; stroke-width:0.25;"/>
<line x1="141.800000" y1="148.000000" x2="149.800000" y2="148.000000"  style="stroke:black; stroke-linecap:round; stroke-width:0.25;"/>
<line x1="141.800000" y1="168.000000" x2="149.800000" y2="168.000000"  style="stroke:black; stroke-linecap:round; stroke-width:0.25;"/>
<line x1="141.800000" y1="196.000000" x2="141.800000" y2="168.000000"  style="stroke:black; stroke-linecap:round; stroke-width:0.25;"/>
<line x1="141.800000" y1="196.000000" x2="141.800000" y2="196.000000"  style="stroke:black; stroke-linecap:round; stroke-width:0.25;"/>
<line x1="141.800000" y1="228.000000" x2="181.800000" y2="228.000000"  style="stroke:black; stroke-linecap:round; stroke-width:0.25;"/>
<line x1="141.800000" y1="260.000000" x2="181.800000" y2="260.000000"  style="stroke:black; stroke-linecap:round; stroke-width:0.25;"/>
<line x1="141.800000" y1="292.000000" x2="181.800000" y2="292.000000"  style="stroke:black; stroke-linecap:round; stroke-width:0.25;"/>
<line x1="149.800000" y1="52.000000" x2="149.800000" y2="64.000000"  style="stroke:black; stroke-linecap:round; stroke-width:0.25;"/>
<line x1="149.800000" y1="64.000000" x2="149.800000" y2="64.000000"  style="stroke:black; stroke-linecap:round; stroke-width:0.25;"/>
<line x1="149.800000" y1="64.000000" x2="153.800000" y2="64.000000"  style="stroke:black; stroke-linecap:round; stroke-width:0.25;"/>
<line x1="149.800000" y1="72.000000" x2="153.800000" y2="72.000000"  style="stroke:black; stroke-linecap:round; stroke-width:0.25;"/>
<line x1="149.800000" y1="148.000000" x2="149.800000" y2="160.000000"  style="stroke:black; stroke-linecap:round; stroke-width:0.25;"/>
<line x1="149.800000" y1="160.000000" x2="149.800000" y2="160.000000"  style="stroke:black; stroke-linecap:round; stroke-width:0.25;"/>
<line x1="149.800000" y1="160.000000" x2="153.800000" y2="160.000000"  style="stroke:black; stroke-linecap:round; stroke-width:0.25;"/>
<line x1="149.800000" y1="168.000000" x2="153.800000" y2="168.000000"  style="stroke:black; stroke-linecap:round; stroke-width:0.25;"/>
<line x1="177.800000" y1="68.000000" x2="181.800000" y2="68.000000"  style="stroke:black; stroke-linecap:round; stroke-width:0.25;"/>
<line x1="177.800000" y1="164.000000" x2="181.800000" y2="164.000000"  style="stroke:black; stroke-linecap:round; stroke-width:0.25;"/>
<line x1="181.800000" y1="68.000000" x2="213.800000" y2="68.000000"  style="stroke:black; stroke-linecap:round; stroke-width:0.25;"/>
<line x1="181.800000" y1="156.000000" x2="213.800000" y2="156.000000"  style="stroke:black; stroke-linecap:round; stroke-width:0.25;"/>
<line x1="181.800000" y1="164.000000" x2="181.800000" y2="156.000000"  style="stroke:black; stroke-linecap:round; stroke-width:0.25;"/>
<line x1="181.800000" y1="164.000000" x2="181.800000" y2="164.000000"  style="stroke:black; stroke-linecap:round; stroke-width:0.25;"/>
<line x1="181.800000" y1="228.000000" x2="189.800000" y2="228.000000"  style="stroke:black; stroke-linecap:round; stroke-width:0.25;"/>
<line x1="181.800000" y1="260.000000" x2="197.800000" y2="260.000000"  style="stroke:black; stroke-linecap:round; stroke-width:0.25;"/>
<line x1="181.800000" y1="292.000000" x2="205.800000" y2="292.000000"  style="stroke:black; stroke-linecap:round; stroke-width:0.25;"/>
<line x1="189.800000" y1="164.000000" x2="213.800000" y2="164.000000"  style="stroke:black; stroke-linecap:round; stroke-width:0.25;"/>
<line x1="189.800000" y1="228.000000" x2="189.800000" y2="164.000000"  style="stroke:black; stroke-linecap:round; stroke-width:0.25;"/>
<line x1="197.800000" y1="172.000000" x2="213.800000" y2="172.000000"  style="stroke:black; stroke-linecap:round; stroke-width:0.25;"/>
<line x1="197.800000" y1="260.000000" x2="197.800000" y2="172.000000"  style="stroke:black; stroke-linecap:round; stroke-width:0.25;"/>
<line x1="205.800000" y1="180.000000" x2="213.800000" y2="180.000000"  style="stroke:black; stroke-linecap:round; stroke-width:0.25;"/>
<line x1="205.800000" y1="292.000000" x2="205.800000" y2="180.000000"  style="stroke:black; stroke-linecap:round; stroke-width:0.25;"/>
<line x1="213.800000" y1="68.000000" x2="213.800000" y2="148.000000"  style="stroke:black; stroke-linecap:round; stroke-width:0.25;"/>
<line x1="213.800000" y1="148.000000" x2="213.800000" y2="148.000000"  style="stroke:black; stroke-linecap:round; stroke-width:0.25;"/>
<line x1="213.800000" y1="148.000000" x2="217.800000" y2="148.000000"  style="stroke:black; stroke-linecap:round; stroke-width:0.25;"/>
<line x1="213.800000" y1="156.000000" x2="217.800000" y2="156.000000"  style="stroke:black; stroke-linecap:round; stroke-width:0.25;"/>
<line x1="213.800000" y1="164.000000" x2="217.800000" y2="164.000000"  style="stroke:black; stroke-linecap:round; stroke-width:0.25;"/>
<line x1="213.800000" y1="172.000000" x2="217.800000" y2="172.000000"  style="stroke:black; stroke-linecap:round; stroke-width:0.25;"/>
<line x1="213.800000" y1="180.000000" x2="217.800000" y2="180.000000"  style="stroke:black; stroke-linecap:round; stroke-width:0.25;"/>
<line x1="217.800000" y1="148.000000" x2="221.800000" y2="148.000000"  style="stroke:black; stroke-linecap:round; stroke-width:0.25;"/>
<line x1="217.800000" y1="156.000000" x2="221.800000" y2="156.000000"  style="stroke:black; stroke-linecap:round; stroke-width:0.25;"/>
<line x1="217.800000" y1="164.000000" x2="221.800000" y2="164.000000"  style="stroke:black; stroke-linecap:round; stroke-width:0.25;"/>
<line x1="217.800000" y1="172.000000" x2="221.800000" y2="172.000000"  style="stroke:black; stroke-linecap:round; stroke-width:0.25;"/>
<line x1="217.800000" y1="180.000000" x2="221.800000" y2="180.000000"  style="stroke:black; stroke-linecap:round; stroke-width:0.25;"/>
<line x1="221.800000" y1="148.000000" x2="231.800000" y2="148.000000"  style="stroke:black; stroke-linecap:round; stroke-width:0.25;"/>
<line x1="221.800000" y1="156.000000" x2="231.800000" y2="156.000000"  style="stroke:black; stroke-linecap:round; stroke-width:0.25;"/>
<line x1="221.800000" y1="164.000000" x2="231.800000" y2="164.000000"  style="stroke:black; stroke-linecap:round; stroke-width:0.25;"/>
<line x1="221.800000" y1="172.000000" x2="231.800000" y2="172.000000"  style="stroke:black; stroke-linecap:round; stroke-width:0.25;"/>
<line x1="221.800000" y1="180.000000" x2="231.800000" y2="180.000000"  style="stroke:black; stroke-linecap:round; stroke-width:0.25;"/>
</svg>
