<?xml version="1.0"?>
<svg xmlns="http://www.w3.org/2000/svg" xmlns:xlink="http://www.w3.org/1999/xlink" viewBox="0 0 297.400000 212.000000" width="148.700000mm" height="106.000000mm" version="1.1">
<a xlink:href="process.svg">
<rect x="1.000000" y="1.000000" width="296.400000" height="211.000000" rx="0" ry="0" style="stroke:none;fill:#cccccc;"/>
<rect x="0.000000" y="0.000000" width="296.400000" height="211.000000" rx="0" ry="0" style="stroke:none;fill:#ffffff;"/>
</a>
<text x="10.000000" y="7.000000" font-family="Arial" font-size="7"></text>
<a xlink:href="crossover2LR4-0x7f4de8e23cc0.svg">
<rect x="33.000000" y="95.000000" width="77.400000" height="24.000000" rx="0" ry="0" style="stroke:none;fill:#cccccc;"/>
<rect x="32.000000" y="94.000000" width="77.400000" height="24.000000" rx="0" ry="0" style="stroke:none;fill:#003366;"/>
</a>
<a xlink:href="crossover2LR4-0x7f4de8e23cc0.svg">
<text x="70.700000" y="108.000000" font-family="Arial" font-size="7" text-anchor="middle" fill="#FFFFFF">crossover2LR4(550)</text>
</a>
<circle cx="34.000000" cy="96.000000" r="1"/>
<line x1="29.000000" y1="105.000000" x2="32.000000" y2="106.000000"  transform="rotate(0.000000,32.000000,106.000000)" style="stroke: black; stroke-width:0.25;"/>
<line x1="29.000000" y1="107.000000" x2="32.000000" y2="106.000000"  transform="rotate(0.000000,32.000000,106.000000)" style="stroke: black; stroke-width:0.25;"/>
<rect x="164.400000" y="43.000000" width="24.000000" height="24.000000" rx="0" ry="0" style="stroke:none;fill:#cccccc;"/>
<rect x="163.400000" y="42.000000" width="24.000000" height="24.000000" rx="0" ry="0" style="stroke:none;fill:#f44800;"/>
<text x="175.400000" y="56.000000" font-family="Arial" font-size="7" text-anchor="middle" fill="#FFFFFF">5</text>
<circle cx="165.400000" cy="44.000000" r="1"/>
<line x1="154.400000" y1="33.000000" x2="154.400000" y2="75.000000"  style="stroke: black; stroke-linecap:round; stroke-width:0.25; stroke-dasharray:3,3;"/>
<line x1="154.400000" y1="75.000000" x2="196.400000" y2="75.000000"  style="stroke: black; stroke-linecap:round; stroke-width:0.25; stroke-dasharray:3,3;"/>
<line x1="196.400000" y1="75.000000" x2="196.400000" y2="33.000000"  style="stroke: black; stroke-linecap:round; stroke-width:0.25; stroke-dasharray:3,3;"/>
<line x1="154.400000" y1="33.000000" x2="159.400000" y2="33.000000"  style="stroke: black; stroke-linecap:round; stroke-width:0.25; stroke-dasharray:3,3;"/>
<line x1="181.975000" y1="33.000000" x2="196.400000" y2="33.000000"  style="stroke: black; stroke-linecap:round; stroke-width:0.25; stroke-dasharray:3,3;"/>
<text x="159.400000" y="35.000000" font-family="Arial" font-size="7">LOW_G</text>
<rect x="214.400000" y="39.000000" width="24.000000" height="24.000000" rx="0" ry="0" style="stroke:none;fill:#cccccc;"/>
<rect x="213.400000" y="38.000000" width="24.000000" height="24.000000" rx="0" ry="0" style="stroke:none;fill:#4B71A1;"/>
<text x="225.400000" y="52.000000" font-family="Arial" font-size="7" text-anchor="middle" fill="#FFFFFF">*</text>
<circle cx="215.400000" cy="40.000000" r="1"/>
<line x1="210.400000" y1="45.000000" x2="213.400000" y2="46.000000"  transform="rotate(0.000000,213.400000,46.000000)" style="stroke: black; stroke-width:0.25;"/>
<line x1="210.400000" y1="47.000000" x2="213.400000" y2="46.000000"  transform="rotate(0.000000,213.400000,46.000000)" style="stroke: black; stroke-width:0.25;"/>
<line x1="210.400000" y1="53.000000" x2="213.400000" y2="54.000000"  transform="rotate(0.000000,213.400000,54.000000)" style="stroke: black; stroke-width:0.25;"/>
<line x1="210.400000" y1="55.000000" x2="213.400000" y2="54.000000"  transform="rotate(0.000000,213.400000,54.000000)" style="stroke: black; stroke-width:0.25;"/>
<rect x="144.400000" y="103.000000" width="24.000000" height="24.000000" rx="0" ry="0" style="stroke:none;fill:#cccccc;"/>
<rect x="143.400000" y="102.000000" width="24.000000" height="24.000000" rx="0" ry="0" style="stroke:none;fill:#f44800;"/>
<text x="155.400000" y="116.000000" font-family="Arial" font-size="7" text-anchor="middle" fill="#FFFFFF">0</text>
<circle cx="145.400000" cy="104.000000" r="1"/>
<line x1="134.400000" y1="93.000000" x2="134.400000" y2="135.000000"  style="stroke: black; stroke-linecap:round; stroke-width:0.25; stroke-dasharray:3,3;"/>
<line x1="134.400000" y1="135.000000" x2="176.400000" y2="135.000000"  style="stroke: black; stroke-linecap:round; stroke-width:0.25; stroke-dasharray:3,3;"/>
<line x1="176.400000" y1="135.000000" x2="176.400000" y2="93.000000"  style="stroke: black; stroke-linecap:round; stroke-width:0.25; stroke-dasharray:3,3;"/>
<line x1="134.400000" y1="93.000000" x2="139.400000" y2="93.000000"  style="stroke: black; stroke-linecap:round; stroke-width:0.25; stroke-dasharray:3,3;"/>
<line x1="176.400000" y1="93.000000" x2="176.400000" y2="93.000000"  style="stroke: black; stroke-linecap:round; stroke-width:0.25; stroke-dasharray:3,3;"/>
<text x="139.400000" y="95.000000" font-family="Arial" font-size="7">HIGH_DELAY</text>
<rect x="194.400000" y="99.000000" width="24.000000" height="24.000000" rx="0" ry="0" style="stroke:none;fill:#cccccc;"/>
<rect x="193.400000" y="98.000000" width="24.000000" height="24.000000" rx="0" ry="0" style="stroke:none;fill:#4B71A1;"/>
<text x="205.400000" y="112.000000" font-family="Arial" font-size="7" text-anchor="middle" fill="#FFFFFF">@</text>
<circle cx="195.400000" cy="100.000000" r="1"/>
<line x1="190.400000" y1="105.000000" x2="193.400000" y2="106.000000"  transform="rotate(0.000000,193.400000,106.000000)" style="stroke: black; stroke-width:0.25;"/>
<line x1="190.400000" y1="107.000000" x2="193.400000" y2="106.000000"  transform="rotate(0.000000,193.400000,106.000000)" style="stroke: black; stroke-width:0.25;"/>
<line x1="190.400000" y1="113.000000" x2="193.400000" y2="114.000000"  transform="rotate(0.000000,193.400000,114.000000)" style="stroke: black; stroke-width:0.25;"/>
<line x1="190.400000" y1="115.000000" x2="193.400000" y2="114.000000"  transform="rotate(0.000000,193.400000,114.000000)" style="stroke: black; stroke-width:0.25;"/>
<rect x="164.400000" y="155.000000" width="24.000000" height="24.000000" rx="0" ry="0" style="stroke:none;fill:#cccccc;"/>
<rect x="163.400000" y="154.000000" width="24.000000" height="24.000000" rx="0" ry="0" style="stroke:none;fill:#f44800;"/>
<text x="175.400000" y="168.000000" font-family="Arial" font-size="7" text-anchor="middle" fill="#FFFFFF">1</text>
<circle cx="165.400000" cy="156.000000" r="1"/>
<line x1="154.400000" y1="145.000000" x2="154.400000" y2="187.000000"  style="stroke: black; stroke-linecap:round; stroke-width:0.25; stroke-dasharray:3,3;"/>
<line x1="154.400000" y1="187.000000" x2="196.400000" y2="187.000000"  style="stroke: black; stroke-linecap:round; stroke-width:0.25; stroke-dasharray:3,3;"/>
<line x1="196.400000" y1="187.000000" x2="196.400000" y2="145.000000"  style="stroke: black; stroke-linecap:round; stroke-width:0.25; stroke-dasharray:3,3;"/>
<line x1="154.400000" y1="145.000000" x2="159.400000" y2="145.000000"  style="stroke: black; stroke-linecap:round; stroke-width:0.25; stroke-dasharray:3,3;"/>
<line x1="196.400000" y1="145.000000" x2="196.400000" y2="145.000000"  style="stroke: black; stroke-linecap:round; stroke-width:0.25; stroke-dasharray:3,3;"/>
<text x="159.400000" y="147.000000" font-family="Arial" font-size="7">StereoLink</text>
<rect x="234.400000" y="125.000000" width="24.000000" height="24.000000" rx="0" ry="0" style="stroke:none;fill:#cccccc;"/>
<rect x="233.400000" y="124.000000" width="24.000000" height="24.000000" rx="0" ry="0" style="stroke:none;fill:#4B71A1;"/>
<text x="245.400000" y="138.000000" font-family="Arial" font-size="7" text-anchor="middle" fill="#FFFFFF">*</text>
<circle cx="235.400000" cy="126.000000" r="1"/>
<line x1="230.400000" y1="131.000000" x2="233.400000" y2="132.000000"  transform="rotate(0.000000,233.400000,132.000000)" style="stroke: black; stroke-width:0.25;"/>
<line x1="230.400000" y1="133.000000" x2="233.400000" y2="132.000000"  transform="rotate(0.000000,233.400000,132.000000)" style="stroke: black; stroke-width:0.25;"/>
<line x1="230.400000" y1="139.000000" x2="233.400000" y2="140.000000"  transform="rotate(0.000000,233.400000,140.000000)" style="stroke: black; stroke-width:0.25;"/>
<line x1="230.400000" y1="141.000000" x2="233.400000" y2="140.000000"  transform="rotate(0.000000,233.400000,140.000000)" style="stroke: black; stroke-width:0.25;"/>
<line x1="15.000000" y1="15.000000" x2="15.000000" y2="197.000000"  style="stroke: black; stroke-linecap:round; stroke-width:0.25; stroke-dasharray:3,3;"/>
<line x1="15.000000" y1="197.000000" x2="282.400000" y2="197.000000"  style="stroke: black; stroke-linecap:round; stroke-width:0.25; stroke-dasharray:3,3;"/>
<line x1="282.400000" y1="197.000000" x2="282.400000" y2="15.000000"  style="stroke: black; stroke-linecap:round; stroke-width:0.25; stroke-dasharray:3,3;"/>
<line x1="15.000000" y1="15.000000" x2="20.000000" y2="15.000000"  style="stroke: black; stroke-linecap:round; stroke-width:0.25; stroke-dasharray:3,3;"/>
<line x1="68.375000" y1="15.000000" x2="282.400000" y2="15.000000"  style="stroke: black; stroke-linecap:round; stroke-width:0.25; stroke-dasharray:3,3;"/>
<text x="20.000000" y="17.000000" font-family="Arial" font-size="7">band_split(2)</text>
<line x1="284.400000" y1="101.000000" x2="287.400000" y2="102.000000"  transform="rotate(0.000000,287.400000,102.000000)" style="stroke: black; stroke-width:0.25;"/>
<line x1="284.400000" y1="103.000000" x2="287.400000" y2="102.000000"  transform="rotate(0.000000,287.400000,102.000000)" style="stroke: black; stroke-width:0.25;"/>
<line x1="284.400000" y1="109.000000" x2="287.400000" y2="110.000000"  transform="rotate(0.000000,287.400000,110.000000)" style="stroke: black; stroke-width:0.25;"/>
<line x1="284.400000" y1="111.000000" x2="287.400000" y2="110.000000"  transform="rotate(0.000000,287.400000,110.000000)" style="stroke: black; stroke-width:0.25;"/>
<line x1="10.000000" y1="106.000000" x2="20.000000" y2="106.000000"  style="stroke:black; stroke-linecap:round; stroke-width:0.25;"/>
<line x1="20.000000" y1="106.000000" x2="24.000000" y2="106.000000"  style="stroke:black; stroke-linecap:round; stroke-width:0.25;"/>
<line x1="24.000000" y1="106.000000" x2="28.000000" y2="106.000000"  style="stroke:black; stroke-linecap:round; stroke-width:0.25;"/>
<line x1="28.000000" y1="106.000000" x2="28.000000" y2="106.000000"  style="stroke:black; stroke-linecap:round; stroke-width:0.25;"/>
<line x1="28.000000" y1="106.000000" x2="32.000000" y2="106.000000"  style="stroke:black; stroke-linecap:round; stroke-width:0.25;"/>
<line x1="109.400000" y1="102.000000" x2="113.400000" y2="102.000000"  style="stroke:black; stroke-linecap:round; stroke-width:0.25;"/>
<line x1="109.400000" y1="110.000000" x2="113.400000" y2="110.000000"  style="stroke:black; stroke-linecap:round; stroke-width:0.25;"/>
<line x1="113.400000" y1="24.000000" x2="129.400000" y2="24.000000"  style="stroke:black; stroke-linecap:round; stroke-width:0.25;"/>
<line x1="113.400000" y1="102.000000" x2="113.400000" y2="24.000000"  style="stroke:black; stroke-linecap:round; stroke-width:0.25;"/>
<line x1="113.400000" y1="102.000000" x2="113.400000" y2="102.000000"  style="stroke:black; stroke-linecap:round; stroke-width:0.25;"/>
<line x1="113.400000" y1="110.000000" x2="113.400000" y2="110.000000"  style="stroke:black; stroke-linecap:round; stroke-width:0.25;"/>
<line x1="113.400000" y1="110.000000" x2="121.400000" y2="110.000000"  style="stroke:black; stroke-linecap:round; stroke-width:0.25;"/>
<line x1="121.400000" y1="84.000000" x2="129.400000" y2="84.000000"  style="stroke:black; stroke-linecap:round; stroke-width:0.25;"/>
<line x1="121.400000" y1="110.000000" x2="121.400000" y2="84.000000"  style="stroke:black; stroke-linecap:round; stroke-width:0.25;"/>
<line x1="129.400000" y1="24.000000" x2="149.400000" y2="24.000000"  style="stroke:black; stroke-linecap:round; stroke-width:0.25;"/>
<line x1="129.400000" y1="84.000000" x2="155.400000" y2="84.000000"  style="stroke:black; stroke-linecap:round; stroke-width:0.25;"/>
<line x1="149.400000" y1="24.000000" x2="175.400000" y2="24.000000"  style="stroke:black; stroke-linecap:round; stroke-width:0.25;"/>
<line x1="155.400000" y1="84.000000" x2="181.400000" y2="84.000000"  style="stroke:black; stroke-linecap:round; stroke-width:0.25;"/>
<line x1="167.400000" y1="114.000000" x2="171.400000" y2="114.000000"  style="stroke:black; stroke-linecap:round; stroke-width:0.25;"/>
<line x1="171.400000" y1="114.000000" x2="181.400000" y2="114.000000"  style="stroke:black; stroke-linecap:round; stroke-width:0.25;"/>
<line x1="175.400000" y1="24.000000" x2="201.400000" y2="24.000000"  style="stroke:black; stroke-linecap:round; stroke-width:0.25;"/>
<line x1="181.400000" y1="84.000000" x2="189.400000" y2="84.000000"  style="stroke:black; stroke-linecap:round; stroke-width:0.25;"/>
<line x1="181.400000" y1="114.000000" x2="189.400000" y2="114.000000"  style="stroke:black; stroke-linecap:round; stroke-width:0.25;"/>
<line x1="187.400000" y1="54.000000" x2="191.400000" y2="54.000000"  style="stroke:black; stroke-linecap:round; stroke-width:0.25;"/>
<line x1="187.400000" y1="166.000000" x2="191.400000" y2="166.000000"  style="stroke:black; stroke-linecap:round; stroke-width:0.25;"/>
<line x1="189.400000" y1="84.000000" x2="189.400000" y2="106.000000"  style="stroke:black; stroke-linecap:round; stroke-width:0.25;"/>
<line x1="189.400000" y1="106.000000" x2="189.400000" y2="106.000000"  style="stroke:black; stroke-linecap:round; stroke-width:0.25;"/>
<line x1="189.400000" y1="106.000000" x2="193.400000" y2="106.000000"  style="stroke:black; stroke-linecap:round; stroke-width:0.25;"/>
<line x1="189.400000" y1="114.000000" x2="193.400000" y2="114.000000"  style="stroke:black; stroke-linecap:round; stroke-width:0.25;"/>
<line x1="191.400000" y1="54.000000" x2="201.400000" y2="54.000000"  style="stroke:black; stroke-linecap:round; stroke-width:0.25;"/>
<line x1="191.400000" y1="166.000000" x2="201.400000" y2="166.000000"  style="stroke:black; stroke-linecap:round; stroke-width:0.25;"/>
<line x1="201.400000" y1="24.000000" x2="209.400000" y2="24.000000"  style="stroke:black; stroke-linecap:round; stroke-width:0.25;"/>
<line x1="201.400000" y1="54.000000" x2="209.400000" y2="54.000000"  style="stroke:black; stroke-linecap:round; stroke-width:0.25;"/>
<line x1="201.400000" y1="166.000000" x2="221.400000" y2="166.000000"  style="stroke:black; stroke-linecap:round; stroke-width:0.25;"/>
<line x1="209.400000" y1="24.000000" x2="209.400000" y2="46.000000"  style="stroke:black; stroke-linecap:round; stroke-width:0.25;"/>
<line x1="209.400000" y1="46.000000" x2="209.400000" y2="46.000000"  style="stroke:black; stroke-linecap:round; stroke-width:0.25;"/>
<line x1="209.400000" y1="46.000000" x2="213.400000" y2="46.000000"  style="stroke:black; stroke-linecap:round; stroke-width:0.25;"/>
<line x1="209.400000" y1="54.000000" x2="213.400000" y2="54.000000"  style="stroke:black; stroke-linecap:round; stroke-width:0.25;"/>
<line x1="217.400000" y1="110.000000" x2="221.400000" y2="110.000000"  style="stroke:black; stroke-linecap:round; stroke-width:0.25;"/>
<line x1="221.400000" y1="110.000000" x2="229.400000" y2="110.000000"  style="stroke:black; stroke-linecap:round; stroke-width:0.25;"/>
<line x1="221.400000" y1="140.000000" x2="229.400000" y2="140.000000"  style="stroke:black; stroke-linecap:round; stroke-width:0.25;"/>
<line x1="221.400000" y1="166.000000" x2="221.400000" y2="140.000000"  style="stroke:black; stroke-linecap:round; stroke-width:0.25;"/>
<line x1="221.400000" y1="166.000000" x2="221.400000" y2="166.000000"  style="stroke:black; stroke-linecap:round; stroke-width:0.25;"/>
<line x1="229.400000" y1="110.000000" x2="229.400000" y2="132.000000"  style="stroke:black; stroke-linecap:round; stroke-width:0.25;"/>
<line x1="229.400000" y1="132.000000" x2="229.400000" y2="132.000000"  style="stroke:black; stroke-linecap:round; stroke-width:0.25;"/>
<line x1="229.400000" y1="132.000000" x2="233.400000" y2="132.000000"  style="stroke:black; stroke-linecap:round; stroke-width:0.25;"/>
<line x1="229.400000" y1="140.000000" x2="233.400000" y2="140.000000"  style="stroke:black; stroke-linecap:round; stroke-width:0.25;"/>
<line x1="237.400000" y1="50.000000" x2="241.400000" y2="50.000000"  style="stroke:black; stroke-linecap:round; stroke-width:0.25;"/>
<line x1="241.400000" y1="50.000000" x2="261.400000" y2="50.000000"  style="stroke:black; stroke-linecap:round; stroke-width:0.25;"/>
<line x1="257.400000" y1="136.000000" x2="261.400000" y2="136.000000"  style="stroke:black; stroke-linecap:round; stroke-width:0.25;"/>
<line x1="261.400000" y1="50.000000" x2="269.400000" y2="50.000000"  style="stroke:black; stroke-linecap:round; stroke-width:0.25;"/>
<line x1="261.400000" y1="110.000000" x2="269.400000" y2="110.000000"  style="stroke:black; stroke-linecap:round; stroke-width:0.25;"/>
<line x1="261.400000" y1="136.000000" x2="261.400000" y2="110.000000"  style="stroke:black; stroke-linecap:round; stroke-width:0.25;"/>
<line x1="261.400000" y1="136.000000" x2="261.400000" y2="136.000000"  style="stroke:black; stroke-linecap:round; stroke-width:0.25;"/>
<line x1="269.400000" y1="50.000000" x2="269.400000" y2="102.000000"  style="stroke:black; stroke-linecap:round; stroke-width:0.25;"/>
<line x1="269.400000" y1="102.000000" x2="269.400000" y2="102.000000"  style="stroke:black; stroke-linecap:round; stroke-width:0.25;"/>
<line x1="269.400000" y1="102.000000" x2="273.400000" y2="102.000000"  style="stroke:black; stroke-linecap:round; stroke-width:0.25;"/>
<line x1="269.400000" y1="110.000000" x2="273.400000" y2="110.000000"  style="stroke:black; stroke-linecap:round; stroke-width:0.25;"/>
<line x1="273.400000" y1="102.000000" x2="277.400000" y2="102.000000"  style="stroke:black; stroke-linecap:round; stroke-width:0.25;"/>
<line x1="273.400000" y1="110.000000" x2="277.400000" y2="110.000000"  style="stroke:black; stroke-linecap:round; stroke-width:0.25;"/>
<line x1="277.400000" y1="102.000000" x2="287.400000" y2="102.000000"  style="stroke:black; stroke-linecap:round; stroke-width:0.25;"/>
<line x1="277.400000" y1="110.000000" x2="287.400000" y2="110.000000"  style="stroke:black; stroke-linecap:round; stroke-width:0.25;"/>
</svg>
