<?xml version="1.0"?>
<svg xmlns="http://www.w3.org/2000/svg" xmlns:xlink="http://www.w3.org/1999/xlink" viewBox="0 0 226.700000 208.000000" width="113.350000mm" height="104.000000mm" version="1.1">
<a xlink:href="a1-0x7f4de89a1660.svg">
<rect x="1.000000" y="1.000000" width="225.700000" height="207.000000" rx="0" ry="0" style="stroke:none;fill:#cccccc;"/>
<rect x="0.000000" y="0.000000" width="225.700000" height="207.000000" rx="0" ry="0" style="stroke:none;fill:#ffffff;"/>
</a>
<text x="10.000000" y="7.000000" font-family="Arial" font-size="7"></text>
<rect x="57.450000" y="35.000000" width="25.800000" height="24.000000" rx="0" ry="0" style="stroke:none;fill:#cccccc;"/>
<rect x="56.450000" y="34.000000" width="25.800000" height="24.000000" rx="0" ry="0" style="stroke:none;fill:#f44800;"/>
<text x="69.350000" y="48.000000" font-family="Arial" font-size="7" text-anchor="middle" fill="#FFFFFF">1200</text>
<circle cx="58.450000" cy="36.000000" r="1"/>
<line x1="47.450000" y1="25.000000" x2="47.450000" y2="67.000000"  style="stroke: black; stroke-linecap:round; stroke-width:0.25; stroke-dasharray:3,3;"/>
<line x1="47.450000" y1="67.000000" x2="91.250000" y2="67.000000"  style="stroke: black; stroke-linecap:round; stroke-width:0.25; stroke-dasharray:3,3;"/>
<line x1="91.250000" y1="67.000000" x2="91.250000" y2="25.000000"  style="stroke: black; stroke-linecap:round; stroke-width:0.25; stroke-dasharray:3,3;"/>
<line x1="47.450000" y1="25.000000" x2="52.450000" y2="25.000000"  style="stroke: black; stroke-linecap:round; stroke-width:0.25; stroke-dasharray:3,3;"/>
<line x1="65.350000" y1="25.000000" x2="91.250000" y2="25.000000"  style="stroke: black; stroke-linecap:round; stroke-width:0.25; stroke-dasharray:3,3;"/>
<text x="52.450000" y="27.000000" font-family="Arial" font-size="7">BP</text>
<a xlink:href="T-0x7f4de88a4b60.svg">
<rect x="58.350000" y="77.000000" width="24.000000" height="24.000000" rx="0" ry="0" style="stroke:none;fill:#cccccc;"/>
<rect x="57.350000" y="76.000000" width="24.000000" height="24.000000" rx="0" ry="0" style="stroke:none;fill:#003366;"/>
</a>
<a xlink:href="T-0x7f4de88a4b60.svg">
<text x="69.350000" y="90.000000" font-family="Arial" font-size="7" text-anchor="middle" fill="#FFFFFF">T</text>
</a>
<circle cx="59.350000" cy="78.000000" r="1"/>
<rect x="109.250000" y="51.000000" width="24.000000" height="24.000000" rx="0" ry="0" style="stroke:none;fill:#cccccc;"/>
<rect x="108.250000" y="50.000000" width="24.000000" height="24.000000" rx="0" ry="0" style="stroke:none;fill:#4B71A1;"/>
<text x="120.250000" y="64.000000" font-family="Arial" font-size="7" text-anchor="middle" fill="#FFFFFF">*</text>
<circle cx="110.250000" cy="52.000000" r="1"/>
<line x1="105.250000" y1="57.000000" x2="108.250000" y2="58.000000"  transform="rotate(0.000000,108.250000,58.000000)" style="stroke: black; stroke-width:0.25;"/>
<line x1="105.250000" y1="59.000000" x2="108.250000" y2="58.000000"  transform="rotate(0.000000,108.250000,58.000000)" style="stroke: black; stroke-width:0.25;"/>
<line x1="105.250000" y1="65.000000" x2="108.250000" y2="66.000000"  transform="rotate(0.000000,108.250000,66.000000)" style="stroke: black; stroke-width:0.25;"/>
<line x1="105.250000" y1="67.000000" x2="108.250000" y2="66.000000"  transform="rotate(0.000000,108.250000,66.000000)" style="stroke: black; stroke-width:0.25;"/>
<rect x="35.000000" y="119.000000" width="38.700000" height="24.000000" rx="0" ry="0" style="stroke:none;fill:#cccccc;"/>
<rect x="34.000000" y="118.000000" width="38.700000" height="24.000000" rx="0" ry="0" style="stroke:none;fill:#f44800;"/>
<text x="53.350000" y="132.000000" font-family="Arial" font-size="7" text-anchor="middle" fill="#FFFFFF">7539.82</text>
<circle cx="36.000000" cy="120.000000" r="1"/>
<line x1="25.000000" y1="109.000000" x2="25.000000" y2="151.000000"  style="stroke: black; stroke-linecap:round; stroke-width:0.25; stroke-dasharray:3,3;"/>
<line x1="25.000000" y1="151.000000" x2="81.700000" y2="151.000000"  style="stroke: black; stroke-linecap:round; stroke-width:0.25; stroke-dasharray:3,3;"/>
<line x1="81.700000" y1="151.000000" x2="81.700000" y2="109.000000"  style="stroke: black; stroke-linecap:round; stroke-width:0.25; stroke-dasharray:3,3;"/>
<line x1="25.000000" y1="109.000000" x2="30.000000" y2="109.000000"  style="stroke: black; stroke-linecap:round; stroke-width:0.25; stroke-dasharray:3,3;"/>
<line x1="42.900000" y1="109.000000" x2="81.700000" y2="109.000000"  style="stroke: black; stroke-linecap:round; stroke-width:0.25; stroke-dasharray:3,3;"/>
<text x="30.000000" y="111.000000" font-family="Arial" font-size="7">wx</text>
<a xlink:href="T-0x7f4de88a4b60.svg">
<rect x="42.350000" y="161.000000" width="24.000000" height="24.000000" rx="0" ry="0" style="stroke:none;fill:#cccccc;"/>
<rect x="41.350000" y="160.000000" width="24.000000" height="24.000000" rx="0" ry="0" style="stroke:none;fill:#003366;"/>
</a>
<a xlink:href="T-0x7f4de88a4b60.svg">
<text x="53.350000" y="174.000000" font-family="Arial" font-size="7" text-anchor="middle" fill="#FFFFFF">T</text>
</a>
<circle cx="43.350000" cy="162.000000" r="1"/>
<rect x="99.700000" y="135.000000" width="24.000000" height="24.000000" rx="0" ry="0" style="stroke:none;fill:#cccccc;"/>
<rect x="98.700000" y="134.000000" width="24.000000" height="24.000000" rx="0" ry="0" style="stroke:none;fill:#4B71A1;"/>
<text x="110.700000" y="148.000000" font-family="Arial" font-size="7" text-anchor="middle" fill="#FFFFFF">*</text>
<circle cx="100.700000" cy="136.000000" r="1"/>
<line x1="95.700000" y1="141.000000" x2="98.700000" y2="142.000000"  transform="rotate(0.000000,98.700000,142.000000)" style="stroke: black; stroke-width:0.25;"/>
<line x1="95.700000" y1="143.000000" x2="98.700000" y2="142.000000"  transform="rotate(0.000000,98.700000,142.000000)" style="stroke: black; stroke-width:0.25;"/>
<line x1="95.700000" y1="149.000000" x2="98.700000" y2="150.000000"  transform="rotate(0.000000,98.700000,150.000000)" style="stroke: black; stroke-width:0.25;"/>
<line x1="95.700000" y1="151.000000" x2="98.700000" y2="150.000000"  transform="rotate(0.000000,98.700000,150.000000)" style="stroke: black; stroke-width:0.25;"/>
<rect x="131.700000" y="135.000000" width="24.000000" height="24.000000" rx="0" ry="0" style="stroke:none;fill:#cccccc;"/>
<rect x="130.700000" y="134.000000" width="24.000000" height="24.000000" rx="0" ry="0" style="stroke:none;fill:#4B71A1;"/>
<text x="142.700000" y="148.000000" font-family="Arial" font-size="7" text-anchor="middle" fill="#FFFFFF">sin</text>
<circle cx="132.700000" cy="136.000000" r="1"/>
<line x1="127.700000" y1="145.000000" x2="130.700000" y2="146.000000"  transform="rotate(0.000000,130.700000,146.000000)" style="stroke: black; stroke-width:0.25;"/>
<line x1="127.700000" y1="147.000000" x2="130.700000" y2="146.000000"  transform="rotate(0.000000,130.700000,146.000000)" style="stroke: black; stroke-width:0.25;"/>
<rect x="171.700000" y="93.000000" width="24.000000" height="24.000000" rx="0" ry="0" style="stroke:none;fill:#cccccc;"/>
<rect x="170.700000" y="92.000000" width="24.000000" height="24.000000" rx="0" ry="0" style="stroke:none;fill:#4B71A1;"/>
<text x="182.700000" y="106.000000" font-family="Arial" font-size="7" text-anchor="middle" fill="#FFFFFF">/</text>
<circle cx="172.700000" cy="94.000000" r="1"/>
<line x1="167.700000" y1="99.000000" x2="170.700000" y2="100.000000"  transform="rotate(0.000000,170.700000,100.000000)" style="stroke: black; stroke-width:0.25;"/>
<line x1="167.700000" y1="101.000000" x2="170.700000" y2="100.000000"  transform="rotate(0.000000,170.700000,100.000000)" style="stroke: black; stroke-width:0.25;"/>
<line x1="167.700000" y1="107.000000" x2="170.700000" y2="108.000000"  transform="rotate(0.000000,170.700000,108.000000)" style="stroke: black; stroke-width:0.25;"/>
<line x1="167.700000" y1="109.000000" x2="170.700000" y2="108.000000"  transform="rotate(0.000000,170.700000,108.000000)" style="stroke: black; stroke-width:0.25;"/>
<line x1="15.000000" y1="15.000000" x2="15.000000" y2="193.000000"  style="stroke: black; stroke-linecap:round; stroke-width:0.25; stroke-dasharray:3,3;"/>
<line x1="15.000000" y1="193.000000" x2="211.700000" y2="193.000000"  style="stroke: black; stroke-linecap:round; stroke-width:0.25; stroke-dasharray:3,3;"/>
<line x1="211.700000" y1="193.000000" x2="211.700000" y2="15.000000"  style="stroke: black; stroke-linecap:round; stroke-width:0.25; stroke-dasharray:3,3;"/>
<line x1="15.000000" y1="15.000000" x2="20.000000" y2="15.000000"  style="stroke: black; stroke-linecap:round; stroke-width:0.25; stroke-dasharray:3,3;"/>
<line x1="32.900000" y1="15.000000" x2="211.700000" y2="15.000000"  style="stroke: black; stroke-linecap:round; stroke-width:0.25; stroke-dasharray:3,3;"/>
<text x="20.000000" y="17.000000" font-family="Arial" font-size="7">Bw</text>
<line x1="213.700000" y1="103.000000" x2="216.700000" y2="104.000000"  transform="rotate(0.000000,216.700000,104.000000)" style="stroke: black; stroke-width:0.25;"/>
<line x1="213.700000" y1="105.000000" x2="216.700000" y2="104.000000"  transform="rotate(0.000000,216.700000,104.000000)" style="stroke: black; stroke-width:0.25;"/>
<line x1="65.350000" y1="172.000000" x2="69.350000" y2="172.000000"  style="stroke:black; stroke-linecap:round; stroke-width:0.25;"/>
<line x1="69.350000" y1="172.000000" x2="86.700000" y2="172.000000"  style="stroke:black; stroke-linecap:round; stroke-width:0.25;"/>
<line x1="72.700000" y1="130.000000" x2="76.700000" y2="130.000000"  style="stroke:black; stroke-linecap:round; stroke-width:0.25;"/>
<line x1="76.700000" y1="130.000000" x2="86.700000" y2="130.000000"  style="stroke:black; stroke-linecap:round; stroke-width:0.25;"/>
<line x1="81.350000" y1="88.000000" x2="85.350000" y2="88.000000"  style="stroke:black; stroke-linecap:round; stroke-width:0.25;"/>
<line x1="82.250000" y1="46.000000" x2="86.250000" y2="46.000000"  style="stroke:black; stroke-linecap:round; stroke-width:0.25;"/>
<line x1="85.350000" y1="88.000000" x2="96.250000" y2="88.000000"  style="stroke:black; stroke-linecap:round; stroke-width:0.25;"/>
<line x1="86.250000" y1="46.000000" x2="96.250000" y2="46.000000"  style="stroke:black; stroke-linecap:round; stroke-width:0.25;"/>
<line x1="86.700000" y1="130.000000" x2="94.700000" y2="130.000000"  style="stroke:black; stroke-linecap:round; stroke-width:0.25;"/>
<line x1="86.700000" y1="150.000000" x2="94.700000" y2="150.000000"  style="stroke:black; stroke-linecap:round; stroke-width:0.25;"/>
<line x1="86.700000" y1="172.000000" x2="86.700000" y2="150.000000"  style="stroke:black; stroke-linecap:round; stroke-width:0.25;"/>
<line x1="86.700000" y1="172.000000" x2="86.700000" y2="172.000000"  style="stroke:black; stroke-linecap:round; stroke-width:0.25;"/>
<line x1="94.700000" y1="130.000000" x2="94.700000" y2="142.000000"  style="stroke:black; stroke-linecap:round; stroke-width:0.25;"/>
<line x1="94.700000" y1="142.000000" x2="94.700000" y2="142.000000"  style="stroke:black; stroke-linecap:round; stroke-width:0.25;"/>
<line x1="94.700000" y1="142.000000" x2="98.700000" y2="142.000000"  style="stroke:black; stroke-linecap:round; stroke-width:0.25;"/>
<line x1="94.700000" y1="150.000000" x2="98.700000" y2="150.000000"  style="stroke:black; stroke-linecap:round; stroke-width:0.25;"/>
<line x1="96.250000" y1="46.000000" x2="104.250000" y2="46.000000"  style="stroke:black; stroke-linecap:round; stroke-width:0.25;"/>
<line x1="96.250000" y1="66.000000" x2="104.250000" y2="66.000000"  style="stroke:black; stroke-linecap:round; stroke-width:0.25;"/>
<line x1="96.250000" y1="88.000000" x2="96.250000" y2="66.000000"  style="stroke:black; stroke-linecap:round; stroke-width:0.25;"/>
<line x1="96.250000" y1="88.000000" x2="96.250000" y2="88.000000"  style="stroke:black; stroke-linecap:round; stroke-width:0.25;"/>
<line x1="104.250000" y1="46.000000" x2="104.250000" y2="58.000000"  style="stroke:black; stroke-linecap:round; stroke-width:0.25;"/>
<line x1="104.250000" y1="58.000000" x2="104.250000" y2="58.000000"  style="stroke:black; stroke-linecap:round; stroke-width:0.25;"/>
<line x1="104.250000" y1="58.000000" x2="108.250000" y2="58.000000"  style="stroke:black; stroke-linecap:round; stroke-width:0.25;"/>
<line x1="104.250000" y1="66.000000" x2="108.250000" y2="66.000000"  style="stroke:black; stroke-linecap:round; stroke-width:0.25;"/>
<line x1="122.700000" y1="146.000000" x2="126.700000" y2="146.000000"  style="stroke:black; stroke-linecap:round; stroke-width:0.25;"/>
<line x1="126.700000" y1="146.000000" x2="126.700000" y2="146.000000"  style="stroke:black; stroke-linecap:round; stroke-width:0.25;"/>
<line x1="126.700000" y1="146.000000" x2="130.700000" y2="146.000000"  style="stroke:black; stroke-linecap:round; stroke-width:0.25;"/>
<line x1="132.250000" y1="62.000000" x2="136.250000" y2="62.000000"  style="stroke:black; stroke-linecap:round; stroke-width:0.25;"/>
<line x1="136.250000" y1="62.000000" x2="158.700000" y2="62.000000"  style="stroke:black; stroke-linecap:round; stroke-width:0.25;"/>
<line x1="154.700000" y1="146.000000" x2="158.700000" y2="146.000000"  style="stroke:black; stroke-linecap:round; stroke-width:0.25;"/>
<line x1="158.700000" y1="62.000000" x2="166.700000" y2="62.000000"  style="stroke:black; stroke-linecap:round; stroke-width:0.25;"/>
<line x1="158.700000" y1="108.000000" x2="166.700000" y2="108.000000"  style="stroke:black; stroke-linecap:round; stroke-width:0.25;"/>
<line x1="158.700000" y1="146.000000" x2="158.700000" y2="108.000000"  style="stroke:black; stroke-linecap:round; stroke-width:0.25;"/>
<line x1="158.700000" y1="146.000000" x2="158.700000" y2="146.000000"  style="stroke:black; stroke-linecap:round; stroke-width:0.25;"/>
<line x1="166.700000" y1="62.000000" x2="166.700000" y2="100.000000"  style="stroke:black; stroke-linecap:round; stroke-width:0.25;"/>
<line x1="166.700000" y1="100.000000" x2="166.700000" y2="100.000000"  style="stroke:black; stroke-linecap:round; stroke-width:0.25;"/>
<line x1="166.700000" y1="100.000000" x2="170.700000" y2="100.000000"  style="stroke:black; stroke-linecap:round; stroke-width:0.25;"/>
<line x1="166.700000" y1="108.000000" x2="170.700000" y2="108.000000"  style="stroke:black; stroke-linecap:round; stroke-width:0.25;"/>
<line x1="194.700000" y1="104.000000" x2="198.700000" y2="104.000000"  style="stroke:black; stroke-linecap:round; stroke-width:0.25;"/>
<line x1="198.700000" y1="104.000000" x2="198.700000" y2="104.000000"  style="stroke:black; stroke-linecap:round; stroke-width:0.25;"/>
<line x1="198.700000" y1="104.000000" x2="202.700000" y2="104.000000"  style="stroke:black; stroke-linecap:round; stroke-width:0.25;"/>
<line x1="202.700000" y1="104.000000" x2="206.700000" y2="104.000000"  style="stroke:black; stroke-linecap:round; stroke-width:0.25;"/>
<line x1="206.700000" y1="104.000000" x2="216.700000" y2="104.000000"  style="stroke:black; stroke-linecap:round; stroke-width:0.25;"/>
</svg>
