<?xml version="1.0"?>
<svg xmlns="http://www.w3.org/2000/svg" xmlns:xlink="http://www.w3.org/1999/xlink" viewBox="0 0 731.200000 72.000000" width="365.600000mm" height="36.000000mm" version="1.1">
<a xlink:href="process.svg">
<rect x="1.000000" y="1.000000" width="730.200000" height="71.000000" rx="0" ry="0" style="stroke:none;fill:#cccccc;"/>
<rect x="0.000000" y="0.000000" width="730.200000" height="71.000000" rx="0" ry="0" style="stroke:none;fill:#ffffff;"/>
</a>
<text x="10.000000" y="7.000000" font-family="Arial" font-size="7"></text>
<a xlink:href="peak-0x7f4de8d39d60.svg">
<rect x="33.000000" y="25.000000" width="103.200000" height="24.000000" rx="0" ry="0" style="stroke:none;fill:#cccccc;"/>
<rect x="32.000000" y="24.000000" width="103.200000" height="24.000000" rx="0" ry="0" style="stroke:none;fill:#003366;"/>
</a>
<a xlink:href="peak-0x7f4de8d39d60.svg">
<text x="83.600000" y="38.000000" font-family="Arial" font-size="7" text-anchor="middle" fill="#FFFFFF">peak(12.0f)(250)(1.7f)</text>
</a>
<circle cx="34.000000" cy="26.000000" r="1"/>
<line x1="29.000000" y1="35.000000" x2="32.000000" y2="36.000000"  transform="rotate(0.000000,32.000000,36.000000)" style="stroke: black; stroke-width:0.25;"/>
<line x1="29.000000" y1="37.000000" x2="32.000000" y2="36.000000"  transform="rotate(0.000000,32.000000,36.000000)" style="stroke: black; stroke-width:0.25;"/>
<a xlink:href="peak-0x7f4de8d3a520.svg">
<rect x="144.200000" y="25.000000" width="90.300000" height="24.000000" rx="0" ry="0" style="stroke:none;fill:#cccccc;"/>
<rect x="143.200000" y="24.000000" width="90.300000" height="24.000000" rx="0" ry="0" style="stroke:none;fill:#003366;"/>
</a>
<a xlink:href="peak-0x7f4de8d3a520.svg">
<text x="188.350000" y="38.000000" font-family="Arial" font-size="7" text-anchor="middle" fill="#FFFFFF">peak(1.5f)(800)(1.7f)</text>
</a>
<circle cx="145.200000" cy="26.000000" r="1"/>
<line x1="140.200000" y1="35.000000" x2="143.200000" y2="36.000000"  transform="rotate(0.000000,143.200000,36.000000)" style="stroke: black; stroke-width:0.25;"/>
<line x1="140.200000" y1="37.000000" x2="143.200000" y2="36.000000"  transform="rotate(0.000000,143.200000,36.000000)" style="stroke: black; stroke-width:0.25;"/>
<a xlink:href="peak-0x7f4de8d3ace0.svg">
<rect x="242.500000" y="25.000000" width="90.300000" height="24.000000" rx="0" ry="0" style="stroke:none;fill:#cccccc;"/>
<rect x="241.500000" y="24.000000" width="90.300000" height="24.000000" rx="0" ry="0" style="stroke:none;fill:#003366;"/>
</a>
<a xlink:href="peak-0x7f4de8d3ace0.svg">
<text x="286.650000" y="38.000000" font-family="Arial" font-size="7" text-anchor="middle" fill="#FFFFFF">peak(-1.5f)(1200)(1)</text>
</a>
<circle cx="243.500000" cy="26.000000" r="1"/>
<line x1="238.500000" y1="35.000000" x2="241.500000" y2="36.000000"  transform="rotate(0.000000,241.500000,36.000000)" style="stroke: black; stroke-width:0.25;"/>
<line x1="238.500000" y1="37.000000" x2="241.500000" y2="36.000000"  transform="rotate(0.000000,241.500000,36.000000)" style="stroke: black; stroke-width:0.25;"/>
<a xlink:href="peak-0x7f4de8d3b4a0.svg">
<rect x="340.800000" y="25.000000" width="90.300000" height="24.000000" rx="0" ry="0" style="stroke:none;fill:#cccccc;"/>
<rect x="339.800000" y="24.000000" width="90.300000" height="24.000000" rx="0" ry="0" style="stroke:none;fill:#003366;"/>
</a>
<a xlink:href="peak-0x7f4de8d3b4a0.svg">
<text x="384.950000" y="38.000000" font-family="Arial" font-size="7" text-anchor="middle" fill="#FFFFFF">peak(-8.5f)(8000)(2)</text>
</a>
<circle cx="341.800000" cy="26.000000" r="1"/>
<line x1="336.800000" y1="35.000000" x2="339.800000" y2="36.000000"  transform="rotate(0.000000,339.800000,36.000000)" style="stroke: black; stroke-width:0.25;"/>
<line x1="336.800000" y1="37.000000" x2="339.800000" y2="36.000000"  transform="rotate(0.000000,339.800000,36.000000)" style="stroke: black; stroke-width:0.25;"/>
<a xlink:href="peak-0x7f4de8d3bc60.svg">
<rect x="439.100000" y="25.000000" width="103.200000" height="24.000000" rx="0" ry="0" style="stroke:none;fill:#cccccc;"/>
<rect x="438.100000" y="24.000000" width="103.200000" height="24.000000" rx="0" ry="0" style="stroke:none;fill:#003366;"/>
</a>
<a xlink:href="peak-0x7f4de8d3bc60.svg">
<text x="489.700000" y="38.000000" font-family="Arial" font-size="7" text-anchor="middle" fill="#FFFFFF">peak(8.0f)(18000)(1.0f)</text>
</a>
<circle cx="440.100000" cy="26.000000" r="1"/>
<line x1="435.100000" y1="35.000000" x2="438.100000" y2="36.000000"  transform="rotate(0.000000,438.100000,36.000000)" style="stroke: black; stroke-width:0.25;"/>
<line x1="435.100000" y1="37.000000" x2="438.100000" y2="36.000000"  transform="rotate(0.000000,438.100000,36.000000)" style="stroke: black; stroke-width:0.25;"/>
<a xlink:href="peak-0x7f4de8d3c420.svg">
<rect x="550.300000" y="25.000000" width="64.500000" height="24.000000" rx="0" ry="0" style="stroke:none;fill:#cccccc;"/>
<rect x="549.300000" y="24.000000" width="64.500000" height="24.000000" rx="0" ry="0" style="stroke:none;fill:#003366;"/>
</a>
<a xlink:href="peak-0x7f4de8d3c420.svg">
<text x="581.550000" y="38.000000" font-family="Arial" font-size="7" text-anchor="middle" fill="#FFFFFF">peak(3)(500)(1)</text>
</a>
<circle cx="551.300000" cy="26.000000" r="1"/>
<line x1="546.300000" y1="35.000000" x2="549.300000" y2="36.000000"  transform="rotate(0.000000,549.300000,36.000000)" style="stroke: black; stroke-width:0.25;"/>
<line x1="546.300000" y1="37.000000" x2="549.300000" y2="36.000000"  transform="rotate(0.000000,549.300000,36.000000)" style="stroke: black; stroke-width:0.25;"/>
<a xlink:href="peak-0x7f4de8d3cbc0.svg">
<rect x="622.800000" y="25.000000" width="77.400000" height="24.000000" rx="0" ry="0" style="stroke:none;fill:#cccccc;"/>
<rect x="621.800000" y="24.000000" width="77.400000" height="24.000000" rx="0" ry="0" style="stroke:none;fill:#003366;"/>
</a>
<a xlink:href="peak-0x7f4de8d3cbc0.svg">
<text x="660.500000" y="38.000000" font-family="Arial" font-size="7" text-anchor="middle" fill="#FFFFFF">peak(-2)(850)(1)</text>
</a>
<circle cx="623.800000" cy="26.000000" r="1"/>
<line x1="618.800000" y1="35.000000" x2="621.800000" y2="36.000000"  transform="rotate(0.000000,621.800000,36.000000)" style="stroke: black; stroke-width:0.25;"/>
<line x1="618.800000" y1="37.000000" x2="621.800000" y2="36.000000"  transform="rotate(0.000000,621.800000,36.000000)" style="stroke: black; stroke-width:0.25;"/>
<line x1="15.000000" y1="15.000000" x2="15.000000" y2="57.000000"  style="stroke: black; stroke-linecap:round; stroke-width:0.25; stroke-dasharray:3,3;"/>
<line x1="15.000000" y1="57.000000" x2="716.200000" y2="57.000000"  style="stroke: black; stroke-linecap:round; stroke-width:0.25; stroke-dasharray:3,3;"/>
<line x1="716.200000" y1="57.000000" x2="716.200000" y2="15.000000"  style="stroke: black; stroke-linecap:round; stroke-width:0.25; stroke-dasharray:3,3;"/>
<line x1="15.000000" y1="15.000000" x2="20.000000" y2="15.000000"  style="stroke: black; stroke-linecap:round; stroke-width:0.25; stroke-dasharray:3,3;"/>
<line x1="42.575000" y1="15.000000" x2="716.200000" y2="15.000000"  style="stroke: black; stroke-linecap:round; stroke-width:0.25; stroke-dasharray:3,3;"/>
<text x="20.000000" y="17.000000" font-family="Arial" font-size="7">eq(1)</text>
<line x1="718.200000" y1="35.000000" x2="721.200000" y2="36.000000"  transform="rotate(0.000000,721.200000,36.000000)" style="stroke: black; stroke-width:0.25;"/>
<line x1="718.200000" y1="37.000000" x2="721.200000" y2="36.000000"  transform="rotate(0.000000,721.200000,36.000000)" style="stroke: black; stroke-width:0.25;"/>
<line x1="10.000000" y1="36.000000" x2="20.000000" y2="36.000000"  style="stroke:black; stroke-linecap:round; stroke-width:0.25;"/>
<line x1="20.000000" y1="36.000000" x2="24.000000" y2="36.000000"  style="stroke:black; stroke-linecap:round; stroke-width:0.25;"/>
<line x1="24.000000" y1="36.000000" x2="28.000000" y2="36.000000"  style="stroke:black; stroke-linecap:round; stroke-width:0.25;"/>
<line x1="28.000000" y1="36.000000" x2="28.000000" y2="36.000000"  style="stroke:black; stroke-linecap:round; stroke-width:0.25;"/>
<line x1="28.000000" y1="36.000000" x2="32.000000" y2="36.000000"  style="stroke:black; stroke-linecap:round; stroke-width:0.25;"/>
<line x1="135.200000" y1="36.000000" x2="139.200000" y2="36.000000"  style="stroke:black; stroke-linecap:round; stroke-width:0.25;"/>
<line x1="139.200000" y1="36.000000" x2="139.200000" y2="36.000000"  style="stroke:black; stroke-linecap:round; stroke-width:0.25;"/>
<line x1="139.200000" y1="36.000000" x2="143.200000" y2="36.000000"  style="stroke:black; stroke-linecap:round; stroke-width:0.25;"/>
<line x1="233.500000" y1="36.000000" x2="237.500000" y2="36.000000"  style="stroke:black; stroke-linecap:round; stroke-width:0.25;"/>
<line x1="237.500000" y1="36.000000" x2="237.500000" y2="36.000000"  style="stroke:black; stroke-linecap:round; stroke-width:0.25;"/>
<line x1="237.500000" y1="36.000000" x2="241.500000" y2="36.000000"  style="stroke:black; stroke-linecap:round; stroke-width:0.25;"/>
<line x1="331.800000" y1="36.000000" x2="335.800000" y2="36.000000"  style="stroke:black; stroke-linecap:round; stroke-width:0.25;"/>
<line x1="335.800000" y1="36.000000" x2="335.800000" y2="36.000000"  style="stroke:black; stroke-linecap:round; stroke-width:0.25;"/>
<line x1="335.800000" y1="36.000000" x2="339.800000" y2="36.000000"  style="stroke:black; stroke-linecap:round; stroke-width:0.25;"/>
<line x1="430.100000" y1="36.000000" x2="434.100000" y2="36.000000"  style="stroke:black; stroke-linecap:round; stroke-width:0.25;"/>
<line x1="434.100000" y1="36.000000" x2="434.100000" y2="36.000000"  style="stroke:black; stroke-linecap:round; stroke-width:0.25;"/>
<line x1="434.100000" y1="36.000000" x2="438.100000" y2="36.000000"  style="stroke:black; stroke-linecap:round; stroke-width:0.25;"/>
<line x1="541.300000" y1="36.000000" x2="545.300000" y2="36.000000"  style="stroke:black; stroke-linecap:round; stroke-width:0.25;"/>
<line x1="545.300000" y1="36.000000" x2="545.300000" y2="36.000000"  style="stroke:black; stroke-linecap:round; stroke-width:0.25;"/>
<line x1="545.300000" y1="36.000000" x2="549.300000" y2="36.000000"  style="stroke:black; stroke-linecap:round; stroke-width:0.25;"/>
<line x1="613.800000" y1="36.000000" x2="617.800000" y2="36.000000"  style="stroke:black; stroke-linecap:round; stroke-width:0.25;"/>
<line x1="617.800000" y1="36.000000" x2="617.800000" y2="36.000000"  style="stroke:black; stroke-linecap:round; stroke-width:0.25;"/>
<line x1="617.800000" y1="36.000000" x2="621.800000" y2="36.000000"  style="stroke:black; stroke-linecap:round; stroke-width:0.25;"/>
<line x1="699.200000" y1="36.000000" x2="703.200000" y2="36.000000"  style="stroke:black; stroke-linecap:round; stroke-width:0.25;"/>
<line x1="703.200000" y1="36.000000" x2="703.200000" y2="36.000000"  style="stroke:black; stroke-linecap:round; stroke-width:0.25;"/>
<line x1="703.200000" y1="36.000000" x2="707.200000" y2="36.000000"  style="stroke:black; stroke-linecap:round; stroke-width:0.25;"/>
<line x1="707.200000" y1="36.000000" x2="711.200000" y2="36.000000"  style="stroke:black; stroke-linecap:round; stroke-width:0.25;"/>
<line x1="711.200000" y1="36.000000" x2="721.200000" y2="36.000000"  style="stroke:black; stroke-linecap:round; stroke-width:0.25;"/>
</svg>
