<?xml version="1.0"?>
<svg xmlns="http://www.w3.org/2000/svg" xmlns:xlink="http://www.w3.org/1999/xlink" viewBox="0 0 702.800000 124.000000" width="351.400000mm" height="62.000000mm" version="1.1">
<a xlink:href="input-0x7f4de8d35e40.svg">
<rect x="1.000000" y="1.000000" width="701.800000" height="123.000000" rx="0" ry="0" style="stroke:none;fill:#cccccc;"/>
<rect x="0.000000" y="0.000000" width="701.800000" height="123.000000" rx="0" ry="0" style="stroke:none;fill:#ffffff;"/>
</a>
<text x="10.000000" y="7.000000" font-family="Arial" font-size="7"></text>
<a xlink:href="peak-0x7f4de8d259a0.svg">
<rect x="66.000000" y="27.000000" width="141.900000" height="24.000000" rx="0" ry="0" style="stroke:none;fill:#cccccc;"/>
<rect x="65.000000" y="26.000000" width="141.900000" height="24.000000" rx="0" ry="0" style="stroke:none;fill:#003366;"/>
</a>
<a xlink:href="peak-0x7f4de8d259a0.svg">
<text x="135.950000" y="40.000000" font-family="Arial" font-size="7" text-anchor="middle" fill="#FFFFFF">peak_compress...)(0.8f)(0.1f)(1)</text>
</a>
<circle cx="67.000000" cy="28.000000" r="1"/>
<line x1="62.000000" y1="37.000000" x2="65.000000" y2="38.000000"  transform="rotate(0.000000,65.000000,38.000000)" style="stroke: black; stroke-width:0.25;"/>
<line x1="62.000000" y1="39.000000" x2="65.000000" y2="38.000000"  transform="rotate(0.000000,65.000000,38.000000)" style="stroke: black; stroke-width:0.25;"/>
<a xlink:href="peak-0x7f4de8d2d3a0.svg">
<rect x="66.000000" y="59.000000" width="141.900000" height="24.000000" rx="0" ry="0" style="stroke:none;fill:#cccccc;"/>
<rect x="65.000000" y="58.000000" width="141.900000" height="24.000000" rx="0" ry="0" style="stroke:none;fill:#003366;"/>
</a>
<a xlink:href="peak-0x7f4de8d2d3a0.svg">
<text x="135.950000" y="72.000000" font-family="Arial" font-size="7" text-anchor="middle" fill="#FFFFFF">peak_compress...)(0.8f)(0.1f)(1)</text>
</a>
<circle cx="67.000000" cy="60.000000" r="1"/>
<line x1="62.000000" y1="69.000000" x2="65.000000" y2="70.000000"  transform="rotate(0.000000,65.000000,70.000000)" style="stroke: black; stroke-width:0.25;"/>
<line x1="62.000000" y1="71.000000" x2="65.000000" y2="70.000000"  transform="rotate(0.000000,65.000000,70.000000)" style="stroke: black; stroke-width:0.25;"/>
<rect x="258.900000" y="51.000000" width="24.000000" height="24.000000" rx="0" ry="0" style="stroke:none;fill:#cccccc;"/>
<rect x="257.900000" y="50.000000" width="24.000000" height="24.000000" rx="0" ry="0" style="stroke:none;fill:#4B71A1;"/>
<text x="269.900000" y="64.000000" font-family="Arial" font-size="7" text-anchor="middle" fill="#FFFFFF">min</text>
<circle cx="259.900000" cy="52.000000" r="1"/>
<line x1="254.900000" y1="57.000000" x2="257.900000" y2="58.000000"  transform="rotate(0.000000,257.900000,58.000000)" style="stroke: black; stroke-width:0.25;"/>
<line x1="254.900000" y1="59.000000" x2="257.900000" y2="58.000000"  transform="rotate(0.000000,257.900000,58.000000)" style="stroke: black; stroke-width:0.25;"/>
<line x1="254.900000" y1="65.000000" x2="257.900000" y2="66.000000"  transform="rotate(0.000000,257.900000,66.000000)" style="stroke: black; stroke-width:0.25;"/>
<line x1="254.900000" y1="67.000000" x2="257.900000" y2="66.000000"  transform="rotate(0.000000,257.900000,66.000000)" style="stroke: black; stroke-width:0.25;"/>
<line x1="248.900000" y1="41.000000" x2="248.900000" y2="83.000000"  style="stroke: black; stroke-linecap:round; stroke-width:0.25; stroke-dasharray:3,3;"/>
<line x1="248.900000" y1="83.000000" x2="290.900000" y2="83.000000"  style="stroke: black; stroke-linecap:round; stroke-width:0.25; stroke-dasharray:3,3;"/>
<line x1="290.900000" y1="83.000000" x2="290.900000" y2="41.000000"  style="stroke: black; stroke-linecap:round; stroke-width:0.25; stroke-dasharray:3,3;"/>
<line x1="248.900000" y1="41.000000" x2="253.900000" y2="41.000000"  style="stroke: black; stroke-linecap:round; stroke-width:0.25; stroke-dasharray:3,3;"/>
<line x1="290.900000" y1="41.000000" x2="290.900000" y2="41.000000"  style="stroke: black; stroke-linecap:round; stroke-width:0.25; stroke-dasharray:3,3;"/>
<text x="253.900000" y="43.000000" font-family="Arial" font-size="7">parallelMin(2)</text>
<a xlink:href="interpolate-0x7f4de8d304a0.svg">
<rect x="395.900000" y="27.000000" width="103.200000" height="24.000000" rx="0" ry="0" style="stroke:none;fill:#cccccc;"/>
<rect x="394.900000" y="26.000000" width="103.200000" height="24.000000" rx="0" ry="0" style="stroke:none;fill:#003366;"/>
</a>
<a xlink:href="interpolate-0x7f4de8d304a0.svg">
<text x="446.500000" y="40.000000" font-family="Arial" font-size="7" text-anchor="middle" fill="#FFFFFF">interpolate_linear(1.0f)</text>
</a>
<circle cx="396.900000" cy="28.000000" r="1"/>
<line x1="391.900000" y1="33.000000" x2="394.900000" y2="34.000000"  transform="rotate(0.000000,394.900000,34.000000)" style="stroke: black; stroke-width:0.25;"/>
<line x1="391.900000" y1="35.000000" x2="394.900000" y2="34.000000"  transform="rotate(0.000000,394.900000,34.000000)" style="stroke: black; stroke-width:0.25;"/>
<line x1="391.900000" y1="41.000000" x2="394.900000" y2="42.000000"  transform="rotate(0.000000,394.900000,42.000000)" style="stroke: black; stroke-width:0.25;"/>
<line x1="391.900000" y1="43.000000" x2="394.900000" y2="42.000000"  transform="rotate(0.000000,394.900000,42.000000)" style="stroke: black; stroke-width:0.25;"/>
<a xlink:href="interpolate-0x7f4de8d33150.svg">
<rect x="395.900000" y="59.000000" width="103.200000" height="24.000000" rx="0" ry="0" style="stroke:none;fill:#cccccc;"/>
<rect x="394.900000" y="58.000000" width="103.200000" height="24.000000" rx="0" ry="0" style="stroke:none;fill:#003366;"/>
</a>
<a xlink:href="interpolate-0x7f4de8d33150.svg">
<text x="446.500000" y="72.000000" font-family="Arial" font-size="7" text-anchor="middle" fill="#FFFFFF">interpolate_linear(1.0f)</text>
</a>
<circle cx="396.900000" cy="60.000000" r="1"/>
<line x1="391.900000" y1="65.000000" x2="394.900000" y2="66.000000"  transform="rotate(0.000000,394.900000,66.000000)" style="stroke: black; stroke-width:0.25;"/>
<line x1="391.900000" y1="67.000000" x2="394.900000" y2="66.000000"  transform="rotate(0.000000,394.900000,66.000000)" style="stroke: black; stroke-width:0.25;"/>
<line x1="391.900000" y1="73.000000" x2="394.900000" y2="74.000000"  transform="rotate(0.000000,394.900000,74.000000)" style="stroke: black; stroke-width:0.25;"/>
<line x1="391.900000" y1="75.000000" x2="394.900000" y2="74.000000"  transform="rotate(0.000000,394.900000,74.000000)" style="stroke: black; stroke-width:0.25;"/>
<a xlink:href="db2linear-0x7f4de8d35540.svg">
<rect x="585.100000" y="27.000000" width="38.700000" height="24.000000" rx="0" ry="0" style="stroke:none;fill:#cccccc;"/>
<rect x="584.100000" y="26.000000" width="38.700000" height="24.000000" rx="0" ry="0" style="stroke:none;fill:#003366;"/>
</a>
<a xlink:href="db2linear-0x7f4de8d35540.svg">
<text x="603.450000" y="40.000000" font-family="Arial" font-size="7" text-anchor="middle" fill="#FFFFFF">db2linear</text>
</a>
<circle cx="586.100000" cy="28.000000" r="1"/>
<line x1="581.100000" y1="37.000000" x2="584.100000" y2="38.000000"  transform="rotate(0.000000,584.100000,38.000000)" style="stroke: black; stroke-width:0.25;"/>
<line x1="581.100000" y1="39.000000" x2="584.100000" y2="38.000000"  transform="rotate(0.000000,584.100000,38.000000)" style="stroke: black; stroke-width:0.25;"/>
<rect x="639.800000" y="31.000000" width="24.000000" height="24.000000" rx="0" ry="0" style="stroke:none;fill:#cccccc;"/>
<rect x="638.800000" y="30.000000" width="24.000000" height="24.000000" rx="0" ry="0" style="stroke:none;fill:#4B71A1;"/>
<text x="650.800000" y="44.000000" font-family="Arial" font-size="7" text-anchor="middle" fill="#FFFFFF">*</text>
<circle cx="640.800000" cy="32.000000" r="1"/>
<line x1="635.800000" y1="37.000000" x2="638.800000" y2="38.000000"  transform="rotate(0.000000,638.800000,38.000000)" style="stroke: black; stroke-width:0.25;"/>
<line x1="635.800000" y1="39.000000" x2="638.800000" y2="38.000000"  transform="rotate(0.000000,638.800000,38.000000)" style="stroke: black; stroke-width:0.25;"/>
<line x1="635.800000" y1="45.000000" x2="638.800000" y2="46.000000"  transform="rotate(0.000000,638.800000,46.000000)" style="stroke: black; stroke-width:0.25;"/>
<line x1="635.800000" y1="47.000000" x2="638.800000" y2="46.000000"  transform="rotate(0.000000,638.800000,46.000000)" style="stroke: black; stroke-width:0.25;"/>
<a xlink:href="db2linear-0x7f4de8d35540.svg">
<rect x="585.100000" y="67.000000" width="38.700000" height="24.000000" rx="0" ry="0" style="stroke:none;fill:#cccccc;"/>
<rect x="584.100000" y="66.000000" width="38.700000" height="24.000000" rx="0" ry="0" style="stroke:none;fill:#003366;"/>
</a>
<a xlink:href="db2linear-0x7f4de8d35540.svg">
<text x="603.450000" y="80.000000" font-family="Arial" font-size="7" text-anchor="middle" fill="#FFFFFF">db2linear</text>
</a>
<circle cx="586.100000" cy="68.000000" r="1"/>
<line x1="581.100000" y1="77.000000" x2="584.100000" y2="78.000000"  transform="rotate(0.000000,584.100000,78.000000)" style="stroke: black; stroke-width:0.25;"/>
<line x1="581.100000" y1="79.000000" x2="584.100000" y2="78.000000"  transform="rotate(0.000000,584.100000,78.000000)" style="stroke: black; stroke-width:0.25;"/>
<rect x="639.800000" y="71.000000" width="24.000000" height="24.000000" rx="0" ry="0" style="stroke:none;fill:#cccccc;"/>
<rect x="638.800000" y="70.000000" width="24.000000" height="24.000000" rx="0" ry="0" style="stroke:none;fill:#4B71A1;"/>
<text x="650.800000" y="84.000000" font-family="Arial" font-size="7" text-anchor="middle" fill="#FFFFFF">*</text>
<circle cx="640.800000" cy="72.000000" r="1"/>
<line x1="635.800000" y1="77.000000" x2="638.800000" y2="78.000000"  transform="rotate(0.000000,638.800000,78.000000)" style="stroke: black; stroke-width:0.25;"/>
<line x1="635.800000" y1="79.000000" x2="638.800000" y2="78.000000"  transform="rotate(0.000000,638.800000,78.000000)" style="stroke: black; stroke-width:0.25;"/>
<line x1="635.800000" y1="85.000000" x2="638.800000" y2="86.000000"  transform="rotate(0.000000,638.800000,86.000000)" style="stroke: black; stroke-width:0.25;"/>
<line x1="635.800000" y1="87.000000" x2="638.800000" y2="86.000000"  transform="rotate(0.000000,638.800000,86.000000)" style="stroke: black; stroke-width:0.25;"/>
<line x1="15.000000" y1="15.000000" x2="15.000000" y2="109.000000"  style="stroke: black; stroke-linecap:round; stroke-width:0.25; stroke-dasharray:3,3;"/>
<line x1="15.000000" y1="109.000000" x2="687.800000" y2="109.000000"  style="stroke: black; stroke-linecap:round; stroke-width:0.25; stroke-dasharray:3,3;"/>
<line x1="687.800000" y1="109.000000" x2="687.800000" y2="15.000000"  style="stroke: black; stroke-linecap:round; stroke-width:0.25; stroke-dasharray:3,3;"/>
<line x1="15.000000" y1="15.000000" x2="20.000000" y2="15.000000"  style="stroke: black; stroke-linecap:round; stroke-width:0.25; stroke-dasharray:3,3;"/>
<line x1="139.325000" y1="15.000000" x2="687.800000" y2="15.000000"  style="stroke: black; stroke-linecap:round; stroke-width:0.25; stroke-dasharray:3,3;"/>
<text x="20.000000" y="17.000000" font-family="Arial" font-size="7">FFcompressor_....1f)(1)(1.0f)(_)(2)</text>
<line x1="689.800000" y1="57.000000" x2="692.800000" y2="58.000000"  transform="rotate(0.000000,692.800000,58.000000)" style="stroke: black; stroke-width:0.25;"/>
<line x1="689.800000" y1="59.000000" x2="692.800000" y2="58.000000"  transform="rotate(0.000000,692.800000,58.000000)" style="stroke: black; stroke-width:0.25;"/>
<line x1="689.800000" y1="65.000000" x2="692.800000" y2="66.000000"  transform="rotate(0.000000,692.800000,66.000000)" style="stroke: black; stroke-width:0.25;"/>
<line x1="689.800000" y1="67.000000" x2="692.800000" y2="66.000000"  transform="rotate(0.000000,692.800000,66.000000)" style="stroke: black; stroke-width:0.25;"/>
<line x1="10.000000" y1="58.000000" x2="20.000000" y2="58.000000"  style="stroke:black; stroke-linecap:round; stroke-width:0.25;"/>
<line x1="10.000000" y1="66.000000" x2="20.000000" y2="66.000000"  style="stroke:black; stroke-linecap:round; stroke-width:0.25;"/>
<line x1="20.000000" y1="58.000000" x2="24.000000" y2="58.000000"  style="stroke:black; stroke-linecap:round; stroke-width:0.25;"/>
<line x1="20.000000" y1="66.000000" x2="24.000000" y2="66.000000"  style="stroke:black; stroke-linecap:round; stroke-width:0.25;"/>
<line x1="24.000000" y1="58.000000" x2="28.000000" y2="58.000000"  style="stroke:black; stroke-linecap:round; stroke-width:0.25;"/>
<line x1="24.000000" y1="66.000000" x2="28.000000" y2="66.000000"  style="stroke:black; stroke-linecap:round; stroke-width:0.25;"/>
<line x1="28.000000" y1="58.000000" x2="28.000000" y2="58.000000"  style="stroke:black; stroke-linecap:round; stroke-width:0.25;"/>
<line x1="28.000000" y1="58.000000" x2="32.000000" y2="58.000000"  style="stroke:black; stroke-linecap:round; stroke-width:0.25;"/>
<line x1="28.000000" y1="66.000000" x2="28.000000" y2="66.000000"  style="stroke:black; stroke-linecap:round; stroke-width:0.25;"/>
<line x1="28.000000" y1="66.000000" x2="32.000000" y2="66.000000"  style="stroke:black; stroke-linecap:round; stroke-width:0.25;"/>
<line x1="32.000000" y1="58.000000" x2="36.000000" y2="58.000000"  style="stroke:black; stroke-linecap:round; stroke-width:0.25;"/>
<line x1="32.000000" y1="66.000000" x2="36.000000" y2="66.000000"  style="stroke:black; stroke-linecap:round; stroke-width:0.25;"/>
<line x1="36.000000" y1="58.000000" x2="61.000000" y2="38.000000"  style="stroke:black; stroke-linecap:round; stroke-width:0.25;"/>
<line x1="36.000000" y1="58.000000" x2="61.000000" y2="92.000000"  style="stroke:black; stroke-linecap:round; stroke-width:0.25;"/>
<line x1="36.000000" y1="66.000000" x2="61.000000" y2="70.000000"  style="stroke:black; stroke-linecap:round; stroke-width:0.25;"/>
<line x1="36.000000" y1="66.000000" x2="61.000000" y2="100.000000"  style="stroke:black; stroke-linecap:round; stroke-width:0.25;"/>
<line x1="61.000000" y1="38.000000" x2="65.000000" y2="38.000000"  style="stroke:black; stroke-linecap:round; stroke-width:0.25;"/>
<line x1="61.000000" y1="70.000000" x2="65.000000" y2="70.000000"  style="stroke:black; stroke-linecap:round; stroke-width:0.25;"/>
<line x1="61.000000" y1="92.000000" x2="281.550000" y2="92.000000"  style="stroke:black; stroke-linecap:round; stroke-width:0.25;"/>
<line x1="61.000000" y1="100.000000" x2="281.550000" y2="100.000000"  style="stroke:black; stroke-linecap:round; stroke-width:0.25;"/>
<line x1="206.900000" y1="38.000000" x2="210.900000" y2="38.000000"  style="stroke:black; stroke-linecap:round; stroke-width:0.25;"/>
<line x1="206.900000" y1="70.000000" x2="210.900000" y2="70.000000"  style="stroke:black; stroke-linecap:round; stroke-width:0.25;"/>
<line x1="210.900000" y1="38.000000" x2="243.900000" y2="24.000000"  style="stroke:black; stroke-linecap:round; stroke-width:0.25;"/>
<line x1="210.900000" y1="38.000000" x2="243.900000" y2="58.000000"  style="stroke:black; stroke-linecap:round; stroke-width:0.25;"/>
<line x1="210.900000" y1="70.000000" x2="243.900000" y2="32.000000"  style="stroke:black; stroke-linecap:round; stroke-width:0.25;"/>
<line x1="210.900000" y1="70.000000" x2="243.900000" y2="66.000000"  style="stroke:black; stroke-linecap:round; stroke-width:0.25;"/>
<line x1="243.900000" y1="24.000000" x2="282.400000" y2="24.000000"  style="stroke:black; stroke-linecap:round; stroke-width:0.25;"/>
<line x1="243.900000" y1="32.000000" x2="282.400000" y2="32.000000"  style="stroke:black; stroke-linecap:round; stroke-width:0.25;"/>
<line x1="243.900000" y1="58.000000" x2="253.900000" y2="58.000000"  style="stroke:black; stroke-linecap:round; stroke-width:0.25;"/>
<line x1="243.900000" y1="66.000000" x2="253.900000" y2="66.000000"  style="stroke:black; stroke-linecap:round; stroke-width:0.25;"/>
<line x1="253.900000" y1="58.000000" x2="257.900000" y2="58.000000"  style="stroke:black; stroke-linecap:round; stroke-width:0.25;"/>
<line x1="253.900000" y1="66.000000" x2="257.900000" y2="66.000000"  style="stroke:black; stroke-linecap:round; stroke-width:0.25;"/>
<line x1="281.550000" y1="92.000000" x2="502.100000" y2="92.000000"  style="stroke:black; stroke-linecap:round; stroke-width:0.25;"/>
<line x1="281.550000" y1="100.000000" x2="502.100000" y2="100.000000"  style="stroke:black; stroke-linecap:round; stroke-width:0.25;"/>
<line x1="281.900000" y1="62.000000" x2="285.900000" y2="62.000000"  style="stroke:black; stroke-linecap:round; stroke-width:0.25;"/>
<line x1="282.400000" y1="24.000000" x2="320.900000" y2="24.000000"  style="stroke:black; stroke-linecap:round; stroke-width:0.25;"/>
<line x1="282.400000" y1="32.000000" x2="320.900000" y2="32.000000"  style="stroke:black; stroke-linecap:round; stroke-width:0.25;"/>
<line x1="285.900000" y1="62.000000" x2="295.900000" y2="62.000000"  style="stroke:black; stroke-linecap:round; stroke-width:0.25;"/>
<line x1="295.900000" y1="62.000000" x2="312.900000" y2="58.000000"  style="stroke:black; stroke-linecap:round; stroke-width:0.25;"/>
<line x1="295.900000" y1="62.000000" x2="312.900000" y2="66.000000"  style="stroke:black; stroke-linecap:round; stroke-width:0.25;"/>
<line x1="312.900000" y1="58.000000" x2="316.900000" y2="58.000000"  style="stroke:black; stroke-linecap:round; stroke-width:0.25;"/>
<line x1="312.900000" y1="66.000000" x2="316.900000" y2="66.000000"  style="stroke:black; stroke-linecap:round; stroke-width:0.25;"/>
<line x1="316.900000" y1="58.000000" x2="320.900000" y2="58.000000"  style="stroke:black; stroke-linecap:round; stroke-width:0.25;"/>
<line x1="316.900000" y1="66.000000" x2="320.900000" y2="66.000000"  style="stroke:black; stroke-linecap:round; stroke-width:0.25;"/>
<line x1="320.900000" y1="24.000000" x2="336.900000" y2="24.000000"  style="stroke:black; stroke-linecap:round; stroke-width:0.25;"/>
<line x1="320.900000" y1="32.000000" x2="328.900000" y2="32.000000"  style="stroke:black; stroke-linecap:round; stroke-width:0.25;"/>
<line x1="320.900000" y1="58.000000" x2="336.900000" y2="58.000000"  style="stroke:black; stroke-linecap:round; stroke-width:0.25;"/>
<line x1="320.900000" y1="66.000000" x2="336.900000" y2="66.000000"  style="stroke:black; stroke-linecap:round; stroke-width:0.25;"/>
<line x1="328.900000" y1="32.000000" x2="328.900000" y2="50.000000"  style="stroke:black; stroke-linecap:round; stroke-width:0.25;"/>
<line x1="328.900000" y1="50.000000" x2="336.900000" y2="50.000000"  style="stroke:black; stroke-linecap:round; stroke-width:0.25;"/>
<line x1="336.900000" y1="24.000000" x2="336.900000" y2="42.000000"  style="stroke:black; stroke-linecap:round; stroke-width:0.25;"/>
<line x1="336.900000" y1="42.000000" x2="336.900000" y2="42.000000"  style="stroke:black; stroke-linecap:round; stroke-width:0.25;"/>
<line x1="336.900000" y1="42.000000" x2="340.900000" y2="42.000000"  style="stroke:black; stroke-linecap:round; stroke-width:0.25;"/>
<line x1="336.900000" y1="50.000000" x2="340.900000" y2="50.000000"  style="stroke:black; stroke-linecap:round; stroke-width:0.25;"/>
<line x1="336.900000" y1="58.000000" x2="340.900000" y2="58.000000"  style="stroke:black; stroke-linecap:round; stroke-width:0.25;"/>
<line x1="336.900000" y1="66.000000" x2="340.900000" y2="66.000000"  style="stroke:black; stroke-linecap:round; stroke-width:0.25;"/>
<line x1="340.900000" y1="42.000000" x2="370.900000" y2="42.000000"  style="stroke:black; stroke-linecap:round; stroke-width:0.25;"/>
<line x1="340.900000" y1="50.000000" x2="370.900000" y2="58.000000"  style="stroke:black; stroke-linecap:round; stroke-width:0.25;"/>
<line x1="340.900000" y1="58.000000" x2="370.900000" y2="50.000000"  style="stroke:black; stroke-linecap:round; stroke-width:0.25;"/>
<line x1="340.900000" y1="66.000000" x2="370.900000" y2="66.000000"  style="stroke:black; stroke-linecap:round; stroke-width:0.25;"/>
<line x1="370.900000" y1="42.000000" x2="374.900000" y2="42.000000"  style="stroke:black; stroke-linecap:round; stroke-width:0.25;"/>
<line x1="370.900000" y1="50.000000" x2="374.900000" y2="50.000000"  style="stroke:black; stroke-linecap:round; stroke-width:0.25;"/>
<line x1="370.900000" y1="58.000000" x2="374.900000" y2="58.000000"  style="stroke:black; stroke-linecap:round; stroke-width:0.25;"/>
<line x1="370.900000" y1="66.000000" x2="374.900000" y2="66.000000"  style="stroke:black; stroke-linecap:round; stroke-width:0.25;"/>
<line x1="374.900000" y1="34.000000" x2="390.900000" y2="34.000000"  style="stroke:black; stroke-linecap:round; stroke-width:0.25;"/>
<line x1="374.900000" y1="42.000000" x2="374.900000" y2="34.000000"  style="stroke:black; stroke-linecap:round; stroke-width:0.25;"/>
<line x1="374.900000" y1="42.000000" x2="374.900000" y2="42.000000"  style="stroke:black; stroke-linecap:round; stroke-width:0.25;"/>
<line x1="374.900000" y1="50.000000" x2="382.900000" y2="50.000000"  style="stroke:black; stroke-linecap:round; stroke-width:0.25;"/>
<line x1="374.900000" y1="58.000000" x2="390.900000" y2="58.000000"  style="stroke:black; stroke-linecap:round; stroke-width:0.25;"/>
<line x1="374.900000" y1="66.000000" x2="382.900000" y2="66.000000"  style="stroke:black; stroke-linecap:round; stroke-width:0.25;"/>
<line x1="382.900000" y1="42.000000" x2="390.900000" y2="42.000000"  style="stroke:black; stroke-linecap:round; stroke-width:0.25;"/>
<line x1="382.900000" y1="50.000000" x2="382.900000" y2="42.000000"  style="stroke:black; stroke-linecap:round; stroke-width:0.25;"/>
<line x1="382.900000" y1="66.000000" x2="382.900000" y2="74.000000"  style="stroke:black; stroke-linecap:round; stroke-width:0.25;"/>
<line x1="382.900000" y1="74.000000" x2="390.900000" y2="74.000000"  style="stroke:black; stroke-linecap:round; stroke-width:0.25;"/>
<line x1="390.900000" y1="34.000000" x2="394.900000" y2="34.000000"  style="stroke:black; stroke-linecap:round; stroke-width:0.25;"/>
<line x1="390.900000" y1="42.000000" x2="394.900000" y2="42.000000"  style="stroke:black; stroke-linecap:round; stroke-width:0.25;"/>
<line x1="390.900000" y1="58.000000" x2="390.900000" y2="66.000000"  style="stroke:black; stroke-linecap:round; stroke-width:0.25;"/>
<line x1="390.900000" y1="66.000000" x2="390.900000" y2="66.000000"  style="stroke:black; stroke-linecap:round; stroke-width:0.25;"/>
<line x1="390.900000" y1="66.000000" x2="394.900000" y2="66.000000"  style="stroke:black; stroke-linecap:round; stroke-width:0.25;"/>
<line x1="390.900000" y1="74.000000" x2="394.900000" y2="74.000000"  style="stroke:black; stroke-linecap:round; stroke-width:0.25;"/>
<line x1="498.100000" y1="38.000000" x2="502.100000" y2="38.000000"  style="stroke:black; stroke-linecap:round; stroke-width:0.25;"/>
<line x1="498.100000" y1="70.000000" x2="502.100000" y2="70.000000"  style="stroke:black; stroke-linecap:round; stroke-width:0.25;"/>
<line x1="502.100000" y1="38.000000" x2="526.100000" y2="38.000000"  style="stroke:black; stroke-linecap:round; stroke-width:0.25;"/>
<line x1="502.100000" y1="58.000000" x2="526.100000" y2="58.000000"  style="stroke:black; stroke-linecap:round; stroke-width:0.25;"/>
<line x1="502.100000" y1="70.000000" x2="502.100000" y2="58.000000"  style="stroke:black; stroke-linecap:round; stroke-width:0.25;"/>
<line x1="502.100000" y1="70.000000" x2="502.100000" y2="70.000000"  style="stroke:black; stroke-linecap:round; stroke-width:0.25;"/>
<line x1="502.100000" y1="92.000000" x2="510.100000" y2="92.000000"  style="stroke:black; stroke-linecap:round; stroke-width:0.25;"/>
<line x1="502.100000" y1="100.000000" x2="518.100000" y2="100.000000"  style="stroke:black; stroke-linecap:round; stroke-width:0.25;"/>
<line x1="510.100000" y1="66.000000" x2="526.100000" y2="66.000000"  style="stroke:black; stroke-linecap:round; stroke-width:0.25;"/>
<line x1="510.100000" y1="92.000000" x2="510.100000" y2="66.000000"  style="stroke:black; stroke-linecap:round; stroke-width:0.25;"/>
<line x1="518.100000" y1="74.000000" x2="526.100000" y2="74.000000"  style="stroke:black; stroke-linecap:round; stroke-width:0.25;"/>
<line x1="518.100000" y1="100.000000" x2="518.100000" y2="74.000000"  style="stroke:black; stroke-linecap:round; stroke-width:0.25;"/>
<line x1="526.100000" y1="38.000000" x2="526.100000" y2="50.000000"  style="stroke:black; stroke-linecap:round; stroke-width:0.25;"/>
<line x1="526.100000" y1="50.000000" x2="526.100000" y2="50.000000"  style="stroke:black; stroke-linecap:round; stroke-width:0.25;"/>
<line x1="526.100000" y1="50.000000" x2="530.100000" y2="50.000000"  style="stroke:black; stroke-linecap:round; stroke-width:0.25;"/>
<line x1="526.100000" y1="58.000000" x2="530.100000" y2="58.000000"  style="stroke:black; stroke-linecap:round; stroke-width:0.25;"/>
<line x1="526.100000" y1="66.000000" x2="530.100000" y2="66.000000"  style="stroke:black; stroke-linecap:round; stroke-width:0.25;"/>
<line x1="526.100000" y1="74.000000" x2="530.100000" y2="74.000000"  style="stroke:black; stroke-linecap:round; stroke-width:0.25;"/>
<line x1="530.100000" y1="50.000000" x2="560.100000" y2="50.000000"  style="stroke:black; stroke-linecap:round; stroke-width:0.25;"/>
<line x1="530.100000" y1="58.000000" x2="560.100000" y2="66.000000"  style="stroke:black; stroke-linecap:round; stroke-width:0.25;"/>
<line x1="530.100000" y1="66.000000" x2="560.100000" y2="58.000000"  style="stroke:black; stroke-linecap:round; stroke-width:0.25;"/>
<line x1="530.100000" y1="74.000000" x2="560.100000" y2="74.000000"  style="stroke:black; stroke-linecap:round; stroke-width:0.25;"/>
<line x1="560.100000" y1="50.000000" x2="564.100000" y2="50.000000"  style="stroke:black; stroke-linecap:round; stroke-width:0.25;"/>
<line x1="560.100000" y1="58.000000" x2="564.100000" y2="58.000000"  style="stroke:black; stroke-linecap:round; stroke-width:0.25;"/>
<line x1="560.100000" y1="66.000000" x2="564.100000" y2="66.000000"  style="stroke:black; stroke-linecap:round; stroke-width:0.25;"/>
<line x1="560.100000" y1="74.000000" x2="564.100000" y2="74.000000"  style="stroke:black; stroke-linecap:round; stroke-width:0.25;"/>
<line x1="564.100000" y1="38.000000" x2="580.100000" y2="38.000000"  style="stroke:black; stroke-linecap:round; stroke-width:0.25;"/>
<line x1="564.100000" y1="50.000000" x2="564.100000" y2="38.000000"  style="stroke:black; stroke-linecap:round; stroke-width:0.25;"/>
<line x1="564.100000" y1="50.000000" x2="564.100000" y2="50.000000"  style="stroke:black; stroke-linecap:round; stroke-width:0.25;"/>
<line x1="564.100000" y1="58.000000" x2="580.100000" y2="58.000000"  style="stroke:black; stroke-linecap:round; stroke-width:0.25;"/>
<line x1="564.100000" y1="66.000000" x2="580.100000" y2="66.000000"  style="stroke:black; stroke-linecap:round; stroke-width:0.25;"/>
<line x1="564.100000" y1="74.000000" x2="572.100000" y2="74.000000"  style="stroke:black; stroke-linecap:round; stroke-width:0.25;"/>
<line x1="572.100000" y1="74.000000" x2="572.100000" y2="98.000000"  style="stroke:black; stroke-linecap:round; stroke-width:0.25;"/>
<line x1="572.100000" y1="98.000000" x2="580.100000" y2="98.000000"  style="stroke:black; stroke-linecap:round; stroke-width:0.25;"/>
<line x1="580.100000" y1="38.000000" x2="580.100000" y2="38.000000"  style="stroke:black; stroke-linecap:round; stroke-width:0.25;"/>
<line x1="580.100000" y1="38.000000" x2="584.100000" y2="38.000000"  style="stroke:black; stroke-linecap:round; stroke-width:0.25;"/>
<line x1="580.100000" y1="58.000000" x2="603.450000" y2="58.000000"  style="stroke:black; stroke-linecap:round; stroke-width:0.25;"/>
<line x1="580.100000" y1="66.000000" x2="580.100000" y2="78.000000"  style="stroke:black; stroke-linecap:round; stroke-width:0.25;"/>
<line x1="580.100000" y1="78.000000" x2="580.100000" y2="78.000000"  style="stroke:black; stroke-linecap:round; stroke-width:0.25;"/>
<line x1="580.100000" y1="78.000000" x2="584.100000" y2="78.000000"  style="stroke:black; stroke-linecap:round; stroke-width:0.25;"/>
<line x1="580.100000" y1="98.000000" x2="603.450000" y2="98.000000"  style="stroke:black; stroke-linecap:round; stroke-width:0.25;"/>
<line x1="603.450000" y1="58.000000" x2="626.800000" y2="58.000000"  style="stroke:black; stroke-linecap:round; stroke-width:0.25;"/>
<line x1="603.450000" y1="98.000000" x2="626.800000" y2="98.000000"  style="stroke:black; stroke-linecap:round; stroke-width:0.25;"/>
<line x1="622.800000" y1="38.000000" x2="626.800000" y2="38.000000"  style="stroke:black; stroke-linecap:round; stroke-width:0.25;"/>
<line x1="622.800000" y1="78.000000" x2="626.800000" y2="78.000000"  style="stroke:black; stroke-linecap:round; stroke-width:0.25;"/>
<line x1="626.800000" y1="38.000000" x2="634.800000" y2="38.000000"  style="stroke:black; stroke-linecap:round; stroke-width:0.25;"/>
<line x1="626.800000" y1="46.000000" x2="634.800000" y2="46.000000"  style="stroke:black; stroke-linecap:round; stroke-width:0.25;"/>
<line x1="626.800000" y1="58.000000" x2="626.800000" y2="46.000000"  style="stroke:black; stroke-linecap:round; stroke-width:0.25;"/>
<line x1="626.800000" y1="58.000000" x2="626.800000" y2="58.000000"  style="stroke:black; stroke-linecap:round; stroke-width:0.25;"/>
<line x1="626.800000" y1="78.000000" x2="634.800000" y2="78.000000"  style="stroke:black; stroke-linecap:round; stroke-width:0.25;"/>
<line x1="626.800000" y1="86.000000" x2="634.800000" y2="86.000000"  style="stroke:black; stroke-linecap:round; stroke-width:0.25;"/>
<line x1="626.800000" y1="98.000000" x2="626.800000" y2="86.000000"  style="stroke:black; stroke-linecap:round; stroke-width:0.25;"/>
<line x1="626.800000" y1="98.000000" x2="626.800000" y2="98.000000"  style="stroke:black; stroke-linecap:round; stroke-width:0.25;"/>
<line x1="634.800000" y1="38.000000" x2="638.800000" y2="38.000000"  style="stroke:black; stroke-linecap:round; stroke-width:0.25;"/>
<line x1="634.800000" y1="46.000000" x2="638.800000" y2="46.000000"  style="stroke:black; stroke-linecap:round; stroke-width:0.25;"/>
<line x1="634.800000" y1="78.000000" x2="638.800000" y2="78.000000"  style="stroke:black; stroke-linecap:round; stroke-width:0.25;"/>
<line x1="634.800000" y1="86.000000" x2="638.800000" y2="86.000000"  style="stroke:black; stroke-linecap:round; stroke-width:0.25;"/>
<line x1="662.800000" y1="42.000000" x2="666.800000" y2="42.000000"  style="stroke:black; stroke-linecap:round; stroke-width:0.25;"/>
<line x1="662.800000" y1="82.000000" x2="666.800000" y2="82.000000"  style="stroke:black; stroke-linecap:round; stroke-width:0.25;"/>
<line x1="666.800000" y1="42.000000" x2="674.800000" y2="42.000000"  style="stroke:black; stroke-linecap:round; stroke-width:0.25;"/>
<line x1="666.800000" y1="66.000000" x2="674.800000" y2="66.000000"  style="stroke:black; stroke-linecap:round; stroke-width:0.25;"/>
<line x1="666.800000" y1="82.000000" x2="666.800000" y2="66.000000"  style="stroke:black; stroke-linecap:round; stroke-width:0.25;"/>
<line x1="666.800000" y1="82.000000" x2="666.800000" y2="82.000000"  style="stroke:black; stroke-linecap:round; stroke-width:0.25;"/>
<line x1="674.800000" y1="58.000000" x2="678.800000" y2="58.000000"  style="stroke:black; stroke-linecap:round; stroke-width:0.25;"/>
<line x1="674.800000" y1="66.000000" x2="678.800000" y2="66.000000"  style="stroke:black; stroke-linecap:round; stroke-width:0.25;"/>
<line x1="674.800000" y1="42.000000" x2="674.800000" y2="58.000000"  style="stroke:black; stroke-linecap:round; stroke-width:0.25;"/>
<line x1="674.800000" y1="58.000000" x2="674.800000" y2="58.000000"  style="stroke:black; stroke-linecap:round; stroke-width:0.25;"/>
<line x1="678.800000" y1="58.000000" x2="682.800000" y2="58.000000"  style="stroke:black; stroke-linecap:round; stroke-width:0.25;"/>
<line x1="678.800000" y1="66.000000" x2="682.800000" y2="66.000000"  style="stroke:black; stroke-linecap:round; stroke-width:0.25;"/>
<line x1="682.800000" y1="58.000000" x2="692.800000" y2="58.000000"  style="stroke:black; stroke-linecap:round; stroke-width:0.25;"/>
<line x1="682.800000" y1="66.000000" x2="692.800000" y2="66.000000"  style="stroke:black; stroke-linecap:round; stroke-width:0.25;"/>
</svg>
