<?xml version="1.0"?>
<svg xmlns="http://www.w3.org/2000/svg" xmlns:xlink="http://www.w3.org/1999/xlink" viewBox="0 0 545.700000 72.000000" width="272.850000mm" height="36.000000mm" version="1.1">
<a xlink:href="FFcompressor-0x7f4de8e42fc0.svg">
<rect x="1.000000" y="1.000000" width="544.700000" height="71.000000" rx="0" ry="0" style="stroke:none;fill:#cccccc;"/>
<rect x="0.000000" y="0.000000" width="544.700000" height="71.000000" rx="0" ry="0" style="stroke:none;fill:#ffffff;"/>
</a>
<text x="10.000000" y="7.000000" font-family="Arial" font-size="7"></text>
<rect x="33.000000" y="25.000000" width="24.000000" height="24.000000" rx="0" ry="0" style="stroke:none;fill:#cccccc;"/>
<rect x="32.000000" y="24.000000" width="24.000000" height="24.000000" rx="0" ry="0" style="stroke:none;fill:#4B71A1;"/>
<text x="44.000000" y="38.000000" font-family="Arial" font-size="7" text-anchor="middle" fill="#FFFFFF">abs</text>
<circle cx="34.000000" cy="26.000000" r="1"/>
<line x1="29.000000" y1="35.000000" x2="32.000000" y2="36.000000"  transform="rotate(0.000000,32.000000,36.000000)" style="stroke: black; stroke-width:0.25;"/>
<line x1="29.000000" y1="37.000000" x2="32.000000" y2="36.000000"  transform="rotate(0.000000,32.000000,36.000000)" style="stroke: black; stroke-width:0.25;"/>
<a xlink:href="bypass1-0x7f4de8e2de80.svg">
<rect x="65.000000" y="25.000000" width="129.000000" height="24.000000" rx="0" ry="0" style="stroke:none;fill:#cccccc;"/>
<rect x="64.000000" y="24.000000" width="129.000000" height="24.000000" rx="0" ry="0" style="stroke:none;fill:#003366;"/>
</a>
<a xlink:href="bypass1-0x7f4de8e2de80.svg">
<text x="128.500000" y="38.000000" font-family="Arial" font-size="7" text-anchor="middle" fill="#FFFFFF">bypass1(1)(cl..., lenv = {}])</text>
</a>
<circle cx="66.000000" cy="26.000000" r="1"/>
<line x1="61.000000" y1="35.000000" x2="64.000000" y2="36.000000"  transform="rotate(0.000000,64.000000,36.000000)" style="stroke: black; stroke-width:0.25;"/>
<line x1="61.000000" y1="37.000000" x2="64.000000" y2="36.000000"  transform="rotate(0.000000,64.000000,36.000000)" style="stroke: black; stroke-width:0.25;"/>
<a xlink:href="linear2db-0x7f4de8d14bf0.svg">
<rect x="202.000000" y="25.000000" width="38.700000" height="24.000000" rx="0" ry="0" style="stroke:none;fill:#cccccc;"/>
<rect x="201.000000" y="24.000000" width="38.700000" height="24.000000" rx="0" ry="0" style="stroke:none;fill:#003366;"/>
</a>
<a xlink:href="linear2db-0x7f4de8d14bf0.svg">
<text x="220.350000" y="38.000000" font-family="Arial" font-size="7" text-anchor="middle" fill="#FFFFFF">linear2db</text>
</a>
<circle cx="203.000000" cy="26.000000" r="1"/>
<line x1="198.000000" y1="35.000000" x2="201.000000" y2="36.000000"  transform="rotate(0.000000,201.000000,36.000000)" style="stroke: black; stroke-width:0.25;"/>
<line x1="198.000000" y1="37.000000" x2="201.000000" y2="36.000000"  transform="rotate(0.000000,201.000000,36.000000)" style="stroke: black; stroke-width:0.25;"/>
<a xlink:href="gain-0x7f4de8e34a20.svg">
<rect x="248.700000" y="25.000000" width="129.000000" height="24.000000" rx="0" ry="0" style="stroke:none;fill:#cccccc;"/>
<rect x="247.700000" y="24.000000" width="129.000000" height="24.000000" rx="0" ry="0" style="stroke:none;fill:#003366;"/>
</a>
<a xlink:href="gain-0x7f4de8e34a20.svg">
<text x="312.200000" y="38.000000" font-family="Arial" font-size="7" text-anchor="middle" fill="#FFFFFF">gain_computer(0.4f)(-18)(0.1f)</text>
</a>
<circle cx="249.700000" cy="26.000000" r="1"/>
<line x1="244.700000" y1="35.000000" x2="247.700000" y2="36.000000"  transform="rotate(0.000000,247.700000,36.000000)" style="stroke: black; stroke-width:0.25;"/>
<line x1="244.700000" y1="37.000000" x2="247.700000" y2="36.000000"  transform="rotate(0.000000,247.700000,36.000000)" style="stroke: black; stroke-width:0.25;"/>
<a xlink:href="bypass1-0x7f4de8e34ec0.svg">
<rect x="385.700000" y="25.000000" width="129.000000" height="24.000000" rx="0" ry="0" style="stroke:none;fill:#cccccc;"/>
<rect x="384.700000" y="24.000000" width="129.000000" height="24.000000" rx="0" ry="0" style="stroke:none;fill:#003366;"/>
</a>
<a xlink:href="bypass1-0x7f4de8e34ec0.svg">
<text x="449.200000" y="38.000000" font-family="Arial" font-size="7" text-anchor="middle" fill="#FFFFFF">bypass1(0)(cl..., lenv = {}])</text>
</a>
<circle cx="386.700000" cy="26.000000" r="1"/>
<line x1="381.700000" y1="35.000000" x2="384.700000" y2="36.000000"  transform="rotate(0.000000,384.700000,36.000000)" style="stroke: black; stroke-width:0.25;"/>
<line x1="381.700000" y1="37.000000" x2="384.700000" y2="36.000000"  transform="rotate(0.000000,384.700000,36.000000)" style="stroke: black; stroke-width:0.25;"/>
<line x1="15.000000" y1="15.000000" x2="15.000000" y2="57.000000"  style="stroke: black; stroke-linecap:round; stroke-width:0.25; stroke-dasharray:3,3;"/>
<line x1="15.000000" y1="57.000000" x2="530.700000" y2="57.000000"  style="stroke: black; stroke-linecap:round; stroke-width:0.25; stroke-dasharray:3,3;"/>
<line x1="530.700000" y1="57.000000" x2="530.700000" y2="15.000000"  style="stroke: black; stroke-linecap:round; stroke-width:0.25; stroke-dasharray:3,3;"/>
<line x1="15.000000" y1="15.000000" x2="20.000000" y2="15.000000"  style="stroke: black; stroke-linecap:round; stroke-width:0.25; stroke-dasharray:3,3;"/>
<line x1="129.650000" y1="15.000000" x2="530.700000" y2="15.000000"  style="stroke: black; stroke-linecap:round; stroke-width:0.25; stroke-dasharray:3,3;"/>
<text x="20.000000" y="17.000000" font-family="Arial" font-size="7">peak_compress...)(0.8f)(0.1f)(1)</text>
<line x1="532.700000" y1="35.000000" x2="535.700000" y2="36.000000"  transform="rotate(0.000000,535.700000,36.000000)" style="stroke: black; stroke-width:0.25;"/>
<line x1="532.700000" y1="37.000000" x2="535.700000" y2="36.000000"  transform="rotate(0.000000,535.700000,36.000000)" style="stroke: black; stroke-width:0.25;"/>
<line x1="10.000000" y1="36.000000" x2="20.000000" y2="36.000000"  style="stroke:black; stroke-linecap:round; stroke-width:0.25;"/>
<line x1="20.000000" y1="36.000000" x2="24.000000" y2="36.000000"  style="stroke:black; stroke-linecap:round; stroke-width:0.25;"/>
<line x1="24.000000" y1="36.000000" x2="28.000000" y2="36.000000"  style="stroke:black; stroke-linecap:round; stroke-width:0.25;"/>
<line x1="28.000000" y1="36.000000" x2="28.000000" y2="36.000000"  style="stroke:black; stroke-linecap:round; stroke-width:0.25;"/>
<line x1="28.000000" y1="36.000000" x2="32.000000" y2="36.000000"  style="stroke:black; stroke-linecap:round; stroke-width:0.25;"/>
<line x1="56.000000" y1="36.000000" x2="60.000000" y2="36.000000"  style="stroke:black; stroke-linecap:round; stroke-width:0.25;"/>
<line x1="60.000000" y1="36.000000" x2="60.000000" y2="36.000000"  style="stroke:black; stroke-linecap:round; stroke-width:0.25;"/>
<line x1="60.000000" y1="36.000000" x2="64.000000" y2="36.000000"  style="stroke:black; stroke-linecap:round; stroke-width:0.25;"/>
<line x1="193.000000" y1="36.000000" x2="197.000000" y2="36.000000"  style="stroke:black; stroke-linecap:round; stroke-width:0.25;"/>
<line x1="197.000000" y1="36.000000" x2="197.000000" y2="36.000000"  style="stroke:black; stroke-linecap:round; stroke-width:0.25;"/>
<line x1="197.000000" y1="36.000000" x2="201.000000" y2="36.000000"  style="stroke:black; stroke-linecap:round; stroke-width:0.25;"/>
<line x1="239.700000" y1="36.000000" x2="243.700000" y2="36.000000"  style="stroke:black; stroke-linecap:round; stroke-width:0.25;"/>
<line x1="243.700000" y1="36.000000" x2="243.700000" y2="36.000000"  style="stroke:black; stroke-linecap:round; stroke-width:0.25;"/>
<line x1="243.700000" y1="36.000000" x2="247.700000" y2="36.000000"  style="stroke:black; stroke-linecap:round; stroke-width:0.25;"/>
<line x1="376.700000" y1="36.000000" x2="380.700000" y2="36.000000"  style="stroke:black; stroke-linecap:round; stroke-width:0.25;"/>
<line x1="380.700000" y1="36.000000" x2="380.700000" y2="36.000000"  style="stroke:black; stroke-linecap:round; stroke-width:0.25;"/>
<line x1="380.700000" y1="36.000000" x2="384.700000" y2="36.000000"  style="stroke:black; stroke-linecap:round; stroke-width:0.25;"/>
<line x1="513.700000" y1="36.000000" x2="517.700000" y2="36.000000"  style="stroke:black; stroke-linecap:round; stroke-width:0.25;"/>
<line x1="517.700000" y1="36.000000" x2="517.700000" y2="36.000000"  style="stroke:black; stroke-linecap:round; stroke-width:0.25;"/>
<line x1="517.700000" y1="36.000000" x2="521.700000" y2="36.000000"  style="stroke:black; stroke-linecap:round; stroke-width:0.25;"/>
<line x1="521.700000" y1="36.000000" x2="525.700000" y2="36.000000"  style="stroke:black; stroke-linecap:round; stroke-width:0.25;"/>
<line x1="525.700000" y1="36.000000" x2="535.700000" y2="36.000000"  style="stroke:black; stroke-linecap:round; stroke-width:0.25;"/>
</svg>
