<?xml version="1.0"?>
<svg xmlns="http://www.w3.org/2000/svg" xmlns:xlink="http://www.w3.org/1999/xlink" viewBox="0 0 210.700000 156.000000" width="105.350000mm" height="78.000000mm" version="1.1">
<a xlink:href="selectn-0x7f4de8e28ae0.svg">
<rect x="1.000000" y="1.000000" width="209.700000" height="155.000000" rx="0" ry="0" style="stroke:none;fill:#cccccc;"/>
<rect x="0.000000" y="0.000000" width="209.700000" height="155.000000" rx="0" ry="0" style="stroke:none;fill:#ffffff;"/>
</a>
<text x="10.000000" y="7.000000" font-family="Arial" font-size="7"></text>
<rect x="41.000000" y="51.000000" width="24.000000" height="24.000000" rx="0" ry="0" style="stroke:none;fill:#cccccc;"/>
<rect x="40.000000" y="50.000000" width="24.000000" height="24.000000" rx="0" ry="0" style="stroke:none;fill:#47945E;"/>
<text x="52.000000" y="64.000000" font-family="Arial" font-size="7" text-anchor="middle" fill="#FFFFFF">x</text>
<circle cx="42.000000" cy="52.000000" r="1"/>
<line x1="37.000000" y1="61.000000" x2="40.000000" y2="62.000000"  transform="rotate(0.000000,40.000000,62.000000)" style="stroke: black; stroke-width:0.25;"/>
<line x1="37.000000" y1="63.000000" x2="40.000000" y2="62.000000"  transform="rotate(0.000000,40.000000,62.000000)" style="stroke: black; stroke-width:0.25;"/>
<rect x="41.000000" y="83.000000" width="24.000000" height="24.000000" rx="0" ry="0" style="stroke:none;fill:#cccccc;"/>
<rect x="40.000000" y="82.000000" width="24.000000" height="24.000000" rx="0" ry="0" style="stroke:none;fill:#47945E;"/>
<text x="52.000000" y="96.000000" font-family="Arial" font-size="7" text-anchor="middle" fill="#FFFFFF">y</text>
<circle cx="42.000000" cy="84.000000" r="1"/>
<line x1="37.000000" y1="93.000000" x2="40.000000" y2="94.000000"  transform="rotate(0.000000,40.000000,94.000000)" style="stroke: black; stroke-width:0.25;"/>
<line x1="37.000000" y1="95.000000" x2="40.000000" y2="94.000000"  transform="rotate(0.000000,40.000000,94.000000)" style="stroke: black; stroke-width:0.25;"/>
<rect x="83.000000" y="35.000000" width="24.000000" height="24.000000" rx="0" ry="0" style="stroke:none;fill:#cccccc;"/>
<rect x="82.000000" y="34.000000" width="24.000000" height="24.000000" rx="0" ry="0" style="stroke:none;fill:#f44800;"/>
<text x="94.000000" y="48.000000" font-family="Arial" font-size="7" text-anchor="middle" fill="#FFFFFF">0</text>
<circle cx="84.000000" cy="36.000000" r="1"/>
<line x1="73.000000" y1="25.000000" x2="73.000000" y2="67.000000"  style="stroke: black; stroke-linecap:round; stroke-width:0.25; stroke-dasharray:3,3;"/>
<line x1="73.000000" y1="67.000000" x2="115.000000" y2="67.000000"  style="stroke: black; stroke-linecap:round; stroke-width:0.25; stroke-dasharray:3,3;"/>
<line x1="115.000000" y1="67.000000" x2="115.000000" y2="25.000000"  style="stroke: black; stroke-linecap:round; stroke-width:0.25; stroke-dasharray:3,3;"/>
<line x1="73.000000" y1="25.000000" x2="78.000000" y2="25.000000"  style="stroke: black; stroke-linecap:round; stroke-width:0.25; stroke-dasharray:3,3;"/>
<line x1="115.000000" y1="25.000000" x2="115.000000" y2="25.000000"  style="stroke: black; stroke-linecap:round; stroke-width:0.25; stroke-dasharray:3,3;"/>
<text x="78.000000" y="27.000000" font-family="Arial" font-size="7">HIGH_DELAY</text>
<rect x="83.000000" y="77.000000" width="24.000000" height="24.000000" rx="0" ry="0" style="stroke:none;fill:#cccccc;"/>
<rect x="82.000000" y="76.000000" width="24.000000" height="24.000000" rx="0" ry="0" style="stroke:none;fill:#47945E;"/>
<text x="94.000000" y="90.000000" font-family="Arial" font-size="7" text-anchor="middle" fill="#FFFFFF">x</text>
<circle cx="84.000000" cy="78.000000" r="1"/>
<rect x="83.000000" y="109.000000" width="24.000000" height="24.000000" rx="0" ry="0" style="stroke:none;fill:#cccccc;"/>
<rect x="82.000000" y="108.000000" width="24.000000" height="24.000000" rx="0" ry="0" style="stroke:none;fill:#47945E;"/>
<text x="94.000000" y="122.000000" font-family="Arial" font-size="7" text-anchor="middle" fill="#FFFFFF">y</text>
<circle cx="84.000000" cy="110.000000" r="1"/>
<rect x="141.000000" y="67.000000" width="38.700000" height="24.000000" rx="0" ry="0" style="stroke:none;fill:#cccccc;"/>
<rect x="140.000000" y="66.000000" width="38.700000" height="24.000000" rx="0" ry="0" style="stroke:none;fill:#4B71A1;"/>
<text x="159.350000" y="80.000000" font-family="Arial" font-size="7" text-anchor="middle" fill="#FFFFFF">select2</text>
<circle cx="142.000000" cy="68.000000" r="1"/>
<line x1="137.000000" y1="69.000000" x2="140.000000" y2="70.000000"  transform="rotate(0.000000,140.000000,70.000000)" style="stroke: black; stroke-width:0.25;"/>
<line x1="137.000000" y1="71.000000" x2="140.000000" y2="70.000000"  transform="rotate(0.000000,140.000000,70.000000)" style="stroke: black; stroke-width:0.25;"/>
<line x1="137.000000" y1="77.000000" x2="140.000000" y2="78.000000"  transform="rotate(0.000000,140.000000,78.000000)" style="stroke: black; stroke-width:0.25;"/>
<line x1="137.000000" y1="79.000000" x2="140.000000" y2="78.000000"  transform="rotate(0.000000,140.000000,78.000000)" style="stroke: black; stroke-width:0.25;"/>
<line x1="137.000000" y1="85.000000" x2="140.000000" y2="86.000000"  transform="rotate(0.000000,140.000000,86.000000)" style="stroke: black; stroke-width:0.25;"/>
<line x1="137.000000" y1="87.000000" x2="140.000000" y2="86.000000"  transform="rotate(0.000000,140.000000,86.000000)" style="stroke: black; stroke-width:0.25;"/>
<line x1="15.000000" y1="15.000000" x2="15.000000" y2="141.000000"  style="stroke: black; stroke-linecap:round; stroke-width:0.25; stroke-dasharray:3,3;"/>
<line x1="15.000000" y1="141.000000" x2="195.700000" y2="141.000000"  style="stroke: black; stroke-linecap:round; stroke-width:0.25; stroke-dasharray:3,3;"/>
<line x1="195.700000" y1="141.000000" x2="195.700000" y2="15.000000"  style="stroke: black; stroke-linecap:round; stroke-width:0.25; stroke-dasharray:3,3;"/>
<line x1="15.000000" y1="15.000000" x2="20.000000" y2="15.000000"  style="stroke: black; stroke-linecap:round; stroke-width:0.25; stroke-dasharray:3,3;"/>
<line x1="71.600000" y1="15.000000" x2="195.700000" y2="15.000000"  style="stroke: black; stroke-linecap:round; stroke-width:0.25; stroke-dasharray:3,3;"/>
<text x="20.000000" y="17.000000" font-family="Arial" font-size="7">selector(0)(1)</text>
<line x1="197.700000" y1="77.000000" x2="200.700000" y2="78.000000"  transform="rotate(0.000000,200.700000,78.000000)" style="stroke: black; stroke-width:0.25;"/>
<line x1="197.700000" y1="79.000000" x2="200.700000" y2="78.000000"  transform="rotate(0.000000,200.700000,78.000000)" style="stroke: black; stroke-width:0.25;"/>
<line x1="10.000000" y1="74.000000" x2="20.000000" y2="74.000000"  style="stroke:black; stroke-linecap:round; stroke-width:0.25;"/>
<line x1="10.000000" y1="82.000000" x2="20.000000" y2="82.000000"  style="stroke:black; stroke-linecap:round; stroke-width:0.25;"/>
<line x1="20.000000" y1="74.000000" x2="24.000000" y2="74.000000"  style="stroke:black; stroke-linecap:round; stroke-width:0.25;"/>
<line x1="20.000000" y1="82.000000" x2="24.000000" y2="82.000000"  style="stroke:black; stroke-linecap:round; stroke-width:0.25;"/>
<line x1="24.000000" y1="74.000000" x2="28.000000" y2="74.000000"  style="stroke:black; stroke-linecap:round; stroke-width:0.25;"/>
<line x1="24.000000" y1="82.000000" x2="28.000000" y2="82.000000"  style="stroke:black; stroke-linecap:round; stroke-width:0.25;"/>
<line x1="28.000000" y1="62.000000" x2="36.000000" y2="62.000000"  style="stroke:black; stroke-linecap:round; stroke-width:0.25;"/>
<line x1="28.000000" y1="74.000000" x2="28.000000" y2="62.000000"  style="stroke:black; stroke-linecap:round; stroke-width:0.25;"/>
<line x1="28.000000" y1="74.000000" x2="28.000000" y2="74.000000"  style="stroke:black; stroke-linecap:round; stroke-width:0.25;"/>
<line x1="28.000000" y1="82.000000" x2="36.000000" y2="82.000000"  style="stroke:black; stroke-linecap:round; stroke-width:0.25;"/>
<line x1="36.000000" y1="62.000000" x2="40.000000" y2="62.000000"  style="stroke:black; stroke-linecap:round; stroke-width:0.25;"/>
<line x1="36.000000" y1="82.000000" x2="36.000000" y2="94.000000"  style="stroke:black; stroke-linecap:round; stroke-width:0.25;"/>
<line x1="36.000000" y1="94.000000" x2="36.000000" y2="94.000000"  style="stroke:black; stroke-linecap:round; stroke-width:0.25;"/>
<line x1="36.000000" y1="94.000000" x2="40.000000" y2="94.000000"  style="stroke:black; stroke-linecap:round; stroke-width:0.25;"/>
<line x1="106.000000" y1="46.000000" x2="110.000000" y2="46.000000"  style="stroke:black; stroke-linecap:round; stroke-width:0.25;"/>
<line x1="106.000000" y1="88.000000" x2="110.000000" y2="88.000000"  style="stroke:black; stroke-linecap:round; stroke-width:0.25;"/>
<line x1="106.000000" y1="120.000000" x2="110.000000" y2="120.000000"  style="stroke:black; stroke-linecap:round; stroke-width:0.25;"/>
<line x1="110.000000" y1="46.000000" x2="120.000000" y2="46.000000"  style="stroke:black; stroke-linecap:round; stroke-width:0.25;"/>
<line x1="110.000000" y1="88.000000" x2="120.000000" y2="88.000000"  style="stroke:black; stroke-linecap:round; stroke-width:0.25;"/>
<line x1="110.000000" y1="120.000000" x2="120.000000" y2="120.000000"  style="stroke:black; stroke-linecap:round; stroke-width:0.25;"/>
<line x1="120.000000" y1="46.000000" x2="136.000000" y2="46.000000"  style="stroke:black; stroke-linecap:round; stroke-width:0.25;"/>
<line x1="120.000000" y1="78.000000" x2="136.000000" y2="78.000000"  style="stroke:black; stroke-linecap:round; stroke-width:0.25;"/>
<line x1="120.000000" y1="88.000000" x2="120.000000" y2="78.000000"  style="stroke:black; stroke-linecap:round; stroke-width:0.25;"/>
<line x1="120.000000" y1="88.000000" x2="120.000000" y2="88.000000"  style="stroke:black; stroke-linecap:round; stroke-width:0.25;"/>
<line x1="120.000000" y1="120.000000" x2="128.000000" y2="120.000000"  style="stroke:black; stroke-linecap:round; stroke-width:0.25;"/>
<line x1="128.000000" y1="86.000000" x2="136.000000" y2="86.000000"  style="stroke:black; stroke-linecap:round; stroke-width:0.25;"/>
<line x1="128.000000" y1="120.000000" x2="128.000000" y2="86.000000"  style="stroke:black; stroke-linecap:round; stroke-width:0.25;"/>
<line x1="136.000000" y1="46.000000" x2="136.000000" y2="70.000000"  style="stroke:black; stroke-linecap:round; stroke-width:0.25;"/>
<line x1="136.000000" y1="70.000000" x2="136.000000" y2="70.000000"  style="stroke:black; stroke-linecap:round; stroke-width:0.25;"/>
<line x1="136.000000" y1="70.000000" x2="140.000000" y2="70.000000"  style="stroke:black; stroke-linecap:round; stroke-width:0.25;"/>
<line x1="136.000000" y1="78.000000" x2="140.000000" y2="78.000000"  style="stroke:black; stroke-linecap:round; stroke-width:0.25;"/>
<line x1="136.000000" y1="86.000000" x2="140.000000" y2="86.000000"  style="stroke:black; stroke-linecap:round; stroke-width:0.25;"/>
<line x1="178.700000" y1="78.000000" x2="182.700000" y2="78.000000"  style="stroke:black; stroke-linecap:round; stroke-width:0.25;"/>
<line x1="182.700000" y1="78.000000" x2="182.700000" y2="78.000000"  style="stroke:black; stroke-linecap:round; stroke-width:0.25;"/>
<line x1="182.700000" y1="78.000000" x2="186.700000" y2="78.000000"  style="stroke:black; stroke-linecap:round; stroke-width:0.25;"/>
<line x1="186.700000" y1="78.000000" x2="190.700000" y2="78.000000"  style="stroke:black; stroke-linecap:round; stroke-width:0.25;"/>
<line x1="190.700000" y1="78.000000" x2="200.700000" y2="78.000000"  style="stroke:black; stroke-linecap:round; stroke-width:0.25;"/>
</svg>
